<?xml version="1.0" encoding="utf-8"?>
<!-- Generator: Adobe Illustrator 21.0.0, SVG Export Plug-In . SVG Version: 6.00 Build 0)  -->
<svg version="1.1" id="Layer_1" xmlns="http://www.w3.org/2000/svg" xmlns:xlink="http://www.w3.org/1999/xlink" x="0px" y="0px"
	 width="44px" height="51px" viewBox="0 0 44 51" style="enable-background:new 0 0 44 51;" xml:space="preserve">
<style type="text/css">
	.st0{fill:#553DE2;}
	.st1{fill:#FFFFFF;}
</style>
<g id="Page-1">
	<g id="Artboard-Copy-5" transform="translate(-678 -3665)">
		<g id="Group-14" transform="translate(605 3665)">
			<g id="power_elite-copy-2" transform="translate(73)">
				<path id="Shape" class="st0" d="M43.9,33.8c0,1.7-1,3.8-2.5,4.7L24.3,50.3c-1.3,0.9-3.5,0.9-4.8,0l-17-11.8
					C1,37.6,0,35.5,0,33.8V17.2c0-1.7,1-3.8,2.5-4.7L19.6,0.7c1.3-0.9,3.5-0.9,4.8,0l17.1,11.8c1.3,0.9,2.5,3,2.5,4.7L43.9,33.8
					C44,33.8,43.9,33.8,43.9,33.8z"/>
				<g id="Group" transform="translate(4.632 13.895)">
					<path id="Shape_1_" class="st1" d="M8.7,0h17.4v4.3H8.7V0z M4.3,7.1h26.1v4.3H4.3V7.1z M0,14.3h34.7v4.3H0V14.3z"/>
				</g>
			</g>
		</g>
	</g>
</g>
</svg>
