<?xml version="1.0" encoding="UTF-8"?>
<svg width="169px" height="17px" viewBox="0 0 169 17" version="1.1" xmlns="http://www.w3.org/2000/svg" xmlns:xlink="http://www.w3.org/1999/xlink">
    <title>Logo</title>
    <g id="Page-1" stroke="none" stroke-width="1" fill="none" fill-rule="evenodd">
        <g id="Logo" transform="translate(0.000000, 0.263446)" fill-rule="nonzero">
            <path d="M0.528145394,15.4005544 C0.387581773,15.4029627 0.252258085,15.3472412 0.154145394,15.2465544 C0.0534585951,15.1484417 -0.00226292371,15.013118 7.04444354e-05,14.8725544 L7.04444354e-05,0.550554366 C7.04444354e-05,0.389554366 0.0481453943,0.257554366 0.143145394,0.154554366 C0.243141004,0.0499179688 0.383571748,-0.00625432887 0.528145394,0.000554365741 L2.31014539,0.000554365741 C2.58914539,0.000554365741 2.80914539,0.140554366 2.97014539,0.418554366 L7.21614539,8.29455437 L11.4621454,0.418554366 C11.6231454,0.139554366 11.8431454,0.000554365741 12.1221454,0.000554365741 L13.8821454,0.000554365741 C14.0431454,0.000554365741 14.1751454,0.0515543657 14.2781454,0.154554366 C14.3818394,0.259703131 14.4375566,0.402975804 14.4321454,0.550554366 L14.4321454,14.8725544 C14.4389541,15.017128 14.3827818,15.1575588 14.2781454,15.2575544 C14.1698269,15.3550091 14.0277376,15.4063191 13.8821454,15.4005544 L11.9901454,15.4005544 C11.8495818,15.4029627 11.7142581,15.3472412 11.6161454,15.2465544 C11.5154586,15.1484417 11.4597371,15.013118 11.4621454,14.8725544 L11.4621454,5.41255437 L8.40414539,11.2205544 C8.24314539,11.5435544 8.00114539,11.7045544 7.67814539,11.7045544 L6.75414539,11.7045544 C6.44614539,11.7045544 6.19714539,11.5435544 6.00614539,11.2205544 L2.94814539,5.41255437 L2.94814539,14.8725544 C2.95121582,15.0111235 2.89988173,15.1453819 2.80514539,15.2465544 C2.70514978,15.3511908 2.56471904,15.4073631 2.42014539,15.4005544 L0.528145394,15.4005544 L0.528145394,15.4005544 Z M18.9181454,15.4005544 C18.7944525,15.4044841 18.6746439,15.3570724 18.5871356,15.2695641 C18.4996274,15.1820559 18.4522156,15.0622473 18.4561454,14.9385544 L18.5001454,14.7405544 L23.7801454,0.550554366 C23.9271454,0.183554366 24.1901454,0.000554365741 24.5721454,0.000554365741 L26.9921454,0.000554365741 C27.3731454,0.000554365741 27.6371454,0.183554366 27.7841454,0.550554366 L33.0641454,14.7405544 L33.108255,14.9385544 C33.1109789,15.0641633 33.058734,15.1847283 32.9651454,15.2685544 C32.8799819,15.3523007 32.7655834,15.3996381 32.6461454,15.4005544 L30.6881454,15.4005544 C30.3801454,15.4005544 30.1681454,15.2605544 30.0501454,14.9825544 L29.0381454,12.3205544 L22.5261454,12.3205544 L21.5141454,14.9825544 C21.3971454,15.2615544 21.1841454,15.4005544 20.8761454,15.4005544 L18.9181454,15.4005544 L18.9181454,15.4005544 Z M23.2961454,9.76855437 L28.2681454,9.76855437 L25.7821454,2.99255437 L23.2961454,9.76855437 Z M54.5281454,15.4005544 C54.3875818,15.4029627 54.2522581,15.3472412 54.1541454,15.2465544 C54.0534586,15.1484417 53.9977371,15.013118 54.0000704,14.8725544 L54.0000704,0.550554366 C54.0000704,0.389554366 54.0481454,0.257554366 54.1431454,0.154554366 C54.243141,0.0499179688 54.3835717,-0.00625432887 54.5281454,0.000554365741 L56.2441454,0.000554365741 C56.5106848,-0.00646106761 56.7580635,0.13855401 56.8821454,0.374554366 L63.1741454,10.1425544 L63.1741454,0.550554366 C63.1741454,0.389554366 63.2221454,0.257554366 63.3171454,0.154554366 C63.417141,0.0499179688 63.5575717,-0.00625432887 63.7021454,0.000554365741 L65.5941454,0.000554365741 C65.7551454,0.000554365741 65.8871454,0.0515543657 65.9901454,0.154554366 C66.0938394,0.259703131 66.1495566,0.402975804 66.1441454,0.550554366 L66.1441454,14.8505544 C66.1495566,14.9981329 66.0938394,15.1414056 65.9901454,15.2465544 C65.8920327,15.3472412 65.756709,15.4029627 65.6161454,15.4005544 L63.8781454,15.4005544 C63.6048107,15.4120098 63.3487787,15.266925 63.2181454,15.0265544 L56.9481454,5.47855437 L56.9481454,14.8725544 C56.9512158,15.0111235 56.8998817,15.1453819 56.8051454,15.2465544 C56.7051498,15.3511908 56.564719,15.4073631 56.4201454,15.4005544 L54.5281454,15.4005544 L54.5281454,15.4005544 Z M45.6161454,15.4005544 C45.756709,15.4029627 45.8920327,15.3472412 45.9901454,15.2465544 C46.0908322,15.1484417 46.1465537,15.013118 46.1441454,14.8725544 L46.1441454,0.550554366 C46.1499101,0.404962145 46.0986001,0.26287288 46.0011454,0.154554366 C45.9011498,0.0499179688 45.760719,-0.00625432887 45.6161454,0.000554365741 L43.9001454,0.000554365741 C43.633606,-0.00646106761 43.3862273,0.13855401 43.2621454,0.374554366 L36.9701454,10.1425544 L36.9701454,0.550554366 C36.9759101,0.404962145 36.9246001,0.26287288 36.8271454,0.154554366 C36.7271498,0.0499179688 36.586719,-0.00625432887 36.4421454,0.000554365741 L34.5501454,0.000554365741 C34.4025668,-0.0048568047 34.2592942,0.0508603459 34.1541454,0.154554366 C34.0504514,0.259703131 33.9947342,0.402975804 34.0001454,0.550554366 L34.0001454,14.8505544 C34.0001454,15.0115544 34.0511454,15.1435544 34.1541454,15.2465544 C34.2522581,15.3472412 34.3875818,15.4029627 34.5281454,15.4005544 L36.2661454,15.4005544 C36.5394801,15.4120098 36.7955121,15.266925 36.9261454,15.0265544 L43.1961454,5.47855437 L43.1961454,14.8725544 C43.193075,15.0111235 43.2444091,15.1453819 43.3391454,15.2465544 C43.439141,15.3511908 43.5795717,15.4073631 43.7241454,15.4005544 L45.6161454,15.4005544 L45.6161454,15.4005544 Z" id="Shape" fill="#FF8484"></path>
            <path d="M120.034,15.7365544 C120.195333,15.7365544 120.323667,15.685221 120.419,15.5825544 C120.514333,15.4798877 120.562,15.355221 120.562,15.2085544 L120.562,15.2085544 L120.562,13.6465544 C120.562,13.485221 120.514333,13.3568877 120.419,13.2615544 C120.323667,13.166221 120.195333,13.1185544 120.034,13.1185544 L120.034,13.1185544 L113.764,13.1185544 L116.888,9.95055437 C117.592,9.39322103 118.193333,8.8468877 118.692,8.31155437 C119.190667,7.77622103 119.572,7.2188877 119.836,6.63955437 C120.1,6.06022103 120.232,5.4258877 120.232,4.73655437 C120.232,3.85655437 120.030333,3.06455437 119.627,2.36055437 C119.223667,1.65655437 118.622333,1.09922103 117.823,0.688554366 C117.023667,0.277887699 116.015333,0.0725543657 114.798,0.0725543657 C113.932667,0.0725543657 113.155333,0.211887699 112.466,0.490554366 C111.776667,0.769221032 111.193667,1.13955437 110.717,1.60155437 C110.240333,2.06355437 109.877333,2.59155437 109.628,3.18555437 C109.378667,3.77955437 109.246667,4.3918877 109.232,5.02255437 C109.232,5.1398877 109.276,5.24255437 109.364,5.33055437 C109.452,5.41855437 109.562,5.46255437 109.694,5.46255437 L109.694,5.46255437 L111.652,5.46255437 C111.784,5.46255437 111.916,5.4258877 112.048,5.35255437 C112.18,5.27922103 112.260667,5.14722103 112.29,4.95655437 C112.363333,4.53122103 112.499,4.14255437 112.697,3.79055437 C112.895,3.43855437 113.17,3.15622103 113.522,2.94355437 C113.874,2.7308877 114.306667,2.62455437 114.82,2.62455437 C115.597333,2.62455437 116.165667,2.8298877 116.525,3.24055437 C116.884333,3.65122103 117.064,4.18655437 117.064,4.84655437 C117.064,5.28655437 116.928333,5.73022103 116.657,6.17755437 C116.385667,6.6248877 115.953,7.11622103 115.359,7.65155437 C114.765,8.1868877 113.984,8.8358877 113.016,9.59855437 L113.016,9.59855437 L109.54,13.0525544 C109.305333,13.243221 109.155,13.430221 109.089,13.6135544 C109.023,13.7968877 108.99,13.9545544 108.99,14.0865544 L108.99,14.0865544 L108.99,15.2085544 C108.99,15.355221 109.041333,15.4798877 109.144,15.5825544 C109.246667,15.685221 109.371333,15.7365544 109.518,15.7365544 L109.518,15.7365544 L120.034,15.7365544 Z M130.834,15.9565544 C131.875333,15.9565544 132.766333,15.8025544 133.507,15.4945544 C134.247667,15.1865544 134.852667,14.761221 135.322,14.2185544 C135.791333,13.6758877 136.143333,13.0488877 136.378,12.3375544 C136.612667,11.626221 136.744667,10.867221 136.774,10.0605544 C136.803333,9.66455437 136.818,9.22822103 136.818,8.75155437 L136.818,8.75155437 L136.818,7.31055437 C136.818,6.82655437 136.803333,6.37922103 136.774,5.96855437 C136.744667,5.1618877 136.609,4.4028877 136.367,3.69155437 C136.125,2.98022103 135.765667,2.36055437 135.289,1.83255437 C134.812333,1.30455437 134.207333,0.886554366 133.474,0.578554366 C132.740667,0.270554366 131.860667,0.116554366 130.834,0.116554366 C129.822,0.116554366 128.949333,0.270554366 128.216,0.578554366 C127.482667,0.886554366 126.877667,1.30455437 126.401,1.83255437 C125.924333,2.36055437 125.561333,2.98022103 125.312,3.69155437 C125.062667,4.4028877 124.923333,5.1618877 124.894,5.96855437 C124.879333,6.37922103 124.868333,6.82655437 124.861,7.31055437 C124.853667,7.79455437 124.853667,8.2748877 124.861,8.75155437 C124.868333,9.22822103 124.879333,9.66455437 124.894,10.0605544 C124.938,10.867221 125.077333,11.626221 125.312,12.3375544 C125.546667,13.0488877 125.898667,13.6758877 126.368,14.2185544 C126.837333,14.761221 127.438667,15.1865544 128.172,15.4945544 C128.905333,15.8025544 129.792667,15.9565544 130.834,15.9565544 Z M130.834,13.4265544 C129.91,13.4265544 129.220667,13.1148877 128.766,12.4915544 C128.311333,11.868221 128.069333,11.021221 128.04,9.95055437 C128.04,9.52522103 128.036333,9.09622103 128.029,8.66355437 C128.021667,8.2308877 128.021667,7.79455437 128.029,7.35455437 C128.036333,6.91455437 128.04,6.49655437 128.04,6.10055437 C128.069333,5.05922103 128.307667,4.21955437 128.755,3.58155437 C129.202333,2.94355437 129.895333,2.62455437 130.834,2.62455437 C131.787333,2.62455437 132.487667,2.94355437 132.935,3.58155437 C133.382333,4.21955437 133.613333,5.05922103 133.628,6.10055437 C133.657333,6.49655437 133.672,6.91455437 133.672,7.35455437 L133.672,7.35455437 L133.672,8.66355437 C133.672,9.09622103 133.657333,9.52522103 133.628,9.95055437 C133.613333,11.021221 133.382333,11.868221 132.935,12.4915544 C132.487667,13.1148877 131.787333,13.4265544 130.834,13.4265544 Z M152.106,15.7365544 C152.267333,15.7365544 152.395667,15.685221 152.491,15.5825544 C152.586333,15.4798877 152.634,15.355221 152.634,15.2085544 L152.634,15.2085544 L152.634,13.6465544 C152.634,13.485221 152.586333,13.3568877 152.491,13.2615544 C152.395667,13.166221 152.267333,13.1185544 152.106,13.1185544 L152.106,13.1185544 L145.836,13.1185544 L148.96,9.95055437 C149.664,9.39322103 150.265333,8.8468877 150.764,8.31155437 C151.262667,7.77622103 151.644,7.2188877 151.908,6.63955437 C152.172,6.06022103 152.304,5.4258877 152.304,4.73655437 C152.304,3.85655437 152.102333,3.06455437 151.699,2.36055437 C151.295667,1.65655437 150.694333,1.09922103 149.895,0.688554366 C149.095667,0.277887699 148.087333,0.0725543657 146.87,0.0725543657 C146.004667,0.0725543657 145.227333,0.211887699 144.538,0.490554366 C143.848667,0.769221032 143.265667,1.13955437 142.789,1.60155437 C142.312333,2.06355437 141.949333,2.59155437 141.7,3.18555437 C141.450667,3.77955437 141.318667,4.3918877 141.304,5.02255437 C141.304,5.1398877 141.348,5.24255437 141.436,5.33055437 C141.524,5.41855437 141.634,5.46255437 141.766,5.46255437 L141.766,5.46255437 L143.724,5.46255437 C143.856,5.46255437 143.988,5.4258877 144.12,5.35255437 C144.252,5.27922103 144.332667,5.14722103 144.362,4.95655437 C144.435333,4.53122103 144.571,4.14255437 144.769,3.79055437 C144.967,3.43855437 145.242,3.15622103 145.594,2.94355437 C145.946,2.7308877 146.378667,2.62455437 146.892,2.62455437 C147.669333,2.62455437 148.237667,2.8298877 148.597,3.24055437 C148.956333,3.65122103 149.136,4.18655437 149.136,4.84655437 C149.136,5.28655437 149.000333,5.73022103 148.729,6.17755437 C148.457667,6.6248877 148.025,7.11622103 147.431,7.65155437 C146.837,8.1868877 146.056,8.8358877 145.088,9.59855437 L145.088,9.59855437 L141.612,13.0525544 C141.377333,13.243221 141.227,13.430221 141.161,13.6135544 C141.095,13.7968877 141.062,13.9545544 141.062,14.0865544 L141.062,14.0865544 L141.062,15.2085544 C141.062,15.355221 141.113333,15.4798877 141.216,15.5825544 C141.318667,15.685221 141.443333,15.7365544 141.59,15.7365544 L141.59,15.7365544 L152.106,15.7365544 Z M167.724,15.7365544 C167.885333,15.7365544 168.013667,15.685221 168.109,15.5825544 C168.204333,15.4798877 168.252,15.355221 168.252,15.2085544 L168.252,15.2085544 L168.252,13.6465544 C168.252,13.485221 168.204333,13.3568877 168.109,13.2615544 C168.013667,13.166221 167.885333,13.1185544 167.724,13.1185544 L167.724,13.1185544 L161.454,13.1185544 L164.578,9.95055437 C165.282,9.39322103 165.883333,8.8468877 166.382,8.31155437 C166.880667,7.77622103 167.262,7.2188877 167.526,6.63955437 C167.79,6.06022103 167.922,5.4258877 167.922,4.73655437 C167.922,3.85655437 167.720333,3.06455437 167.317,2.36055437 C166.913667,1.65655437 166.312333,1.09922103 165.513,0.688554366 C164.713667,0.277887699 163.705333,0.0725543657 162.488,0.0725543657 C161.622667,0.0725543657 160.845333,0.211887699 160.156,0.490554366 C159.466667,0.769221032 158.883667,1.13955437 158.407,1.60155437 C157.930333,2.06355437 157.567333,2.59155437 157.318,3.18555437 C157.068667,3.77955437 156.936667,4.3918877 156.922,5.02255437 C156.922,5.1398877 156.966,5.24255437 157.054,5.33055437 C157.142,5.41855437 157.252,5.46255437 157.384,5.46255437 L157.384,5.46255437 L159.342,5.46255437 C159.474,5.46255437 159.606,5.4258877 159.738,5.35255437 C159.87,5.27922103 159.950667,5.14722103 159.98,4.95655437 C160.053333,4.53122103 160.189,4.14255437 160.387,3.79055437 C160.585,3.43855437 160.86,3.15622103 161.212,2.94355437 C161.564,2.7308877 161.996667,2.62455437 162.51,2.62455437 C163.287333,2.62455437 163.855667,2.8298877 164.215,3.24055437 C164.574333,3.65122103 164.754,4.18655437 164.754,4.84655437 C164.754,5.28655437 164.618333,5.73022103 164.347,6.17755437 C164.075667,6.6248877 163.643,7.11622103 163.049,7.65155437 C162.455,8.1868877 161.674,8.8358877 160.706,9.59855437 L160.706,9.59855437 L157.23,13.0525544 C156.995333,13.243221 156.845,13.430221 156.779,13.6135544 C156.713,13.7968877 156.68,13.9545544 156.68,14.0865544 L156.68,14.0865544 L156.68,15.2085544 C156.68,15.355221 156.731333,15.4798877 156.834,15.5825544 C156.936667,15.685221 157.061333,15.7365544 157.208,15.7365544 L157.208,15.7365544 L167.724,15.7365544 Z" id="2022" fill="#FF8484"></path>
            <rect id="Rectangle" fill="#3813C2" x="76.2841454" y="6.40055437" width="25" height="3" rx="1.5"></rect>
        </g>
    </g>
</svg>