<?xml version="1.0" encoding="utf-8"?>
<!-- Generator: Adobe Illustrator 21.0.0, SVG Export Plug-In . SVG Version: 6.00 Build 0)  -->
<svg version="1.1" id="Layer_1" xmlns="http://www.w3.org/2000/svg" xmlns:xlink="http://www.w3.org/1999/xlink" x="0px" y="0px"
	 width="1440px" height="3134.1px" viewBox="0 0 1440 3134.1" style="enable-background:new 0 0 1440 3134.1;" xml:space="preserve"
	>
<style type="text/css">
	.st0{fill:#FF8484;}
	.st1{fill:#F5EEE4;}
	.st2{fill:#99F9E4;}
	.st3{fill:#F59EF2;}
</style>
<path class="st0" d="M1081.9,365.4l2.2,16.3l-14.9-6L1081.9,365.4 M1087.2,352.1l-31.7,25.7l37.1,14.8L1087.2,352.1L1087.2,352.1z"
	/>
<path class="st1" d="M991.2,839c4.9,0,8.8,4,8.8,8.8c0,4.9-4,8.8-8.8,8.8s-8.8-4-8.8-8.8C982.4,843,986.4,839,991.2,839 M991.2,828
	c-11,0-19.8,8.9-19.8,19.8c0,11,8.9,19.8,19.8,19.8c11,0,19.8-8.9,19.8-19.8C1011.1,836.9,1002.2,828,991.2,828L991.2,828z"/>
<path class="st1" d="M417.7,1517.2c4.9,0,8.8,4,8.8,8.8c0,4.9-4,8.8-8.8,8.8s-8.8-4-8.8-8.8S412.9,1517.2,417.7,1517.2
	 M417.7,1506.2c-11,0-19.8,8.9-19.8,19.8c0,11,8.9,19.8,19.8,19.8c11,0,19.8-8.9,19.8-19.8C437.6,1515.1,428.7,1506.2,417.7,1506.2
	L417.7,1506.2z"/>
<path class="st2" d="M560.1,450.7l14.7,4.4l0.4,15.7l-14.6,5.3l-9.6-12.9L560.1,450.7 M557.3,442.6l-15,20.7l15.8,21.2l24.2-8.8
	l-0.7-25.8L557.3,442.6L557.3,442.6z"/>
<path class="st3" d="M1153.1,653.9l9.1,0c3,0,5.5,2.4,5.5,5.4c0,3-2.4,5.5-5.4,5.5c0,0-0.1,0-0.1,0l-9.1,0l0,9.1
	c0,3-2.4,5.5-5.4,5.5s-5.5-2.4-5.5-5.4c0,0,0-0.1,0-0.1l0-9.1l-9.1,0c-3,0-5.5-2.4-5.5-5.4c0-3,2.4-5.5,5.4-5.5c0.1,0,0.1,0,0.2,0
	l9.1,0l0-9.1c0.1-3,2.5-5.4,5.5-5.4c3,0.1,5.3,2.5,5.4,5.4L1153.1,653.9L1153.1,653.9z"/>
<path class="st3" d="M1078.1,1744.3l9.1,0c3,0,5.5,2.4,5.5,5.4c0,3-2.4,5.5-5.4,5.5c0,0-0.1,0-0.1,0l-9.1,0l0,9.1
	c0,3-2.4,5.5-5.4,5.5s-5.5-2.4-5.5-5.4c0,0,0-0.1,0-0.1l0-9.1l-9.1,0c-3,0-5.5-2.4-5.5-5.4s2.4-5.5,5.4-5.5c0.1,0,0.1,0,0.2,0l9.1,0
	l0-9.1c0.1-3,2.5-5.4,5.5-5.4c3,0.1,5.3,2.5,5.4,5.4L1078.1,1744.3L1078.1,1744.3z"/>
<path class="st2" d="M710.3,1255.4l14.7-4.5l9,12.8l-9.2,12.5l-15.1-5.4L710.3,1255.4 M703.5,1250.2l-1,25.5l24.9,8.9l15.3-20.7
	l-14.9-21.1L703.5,1250.2L703.5,1250.2z"/>
<path class="st2" d="M510.4,2621.2l8.9-12.5l15,4.7l0.3,15.5l-15.3,4.9L510.4,2621.2 M501.9,2621.2l14.7,20.9l25.2-8l-0.4-25.7
	l-24.6-7.7L501.9,2621.2L501.9,2621.2z"/>
<path class="st0" d="M203.2,1167l13,10.1l-14.9,6.1L203.2,1167 M197.7,1153.8l-4.8,40.5l36.9-15.3L197.7,1153.8L197.7,1153.8z"/>
<path class="st0" d="M1028.5,2534.2l13.2-9.8l1.9,15.9L1028.5,2534.2 M1014.3,2536l37.8,15.3l-5-39.6L1014.3,2536L1014.3,2536z"/>
<path class="st3" d="M809.5,3005.6l9.1,0c3,0,5.5,2.4,5.5,5.4c0,3-2.4,5.5-5.4,5.5c0,0-0.1,0-0.1,0l-9.1,0l0,9.1
	c0,3-2.4,5.5-5.4,5.5s-5.5-2.4-5.5-5.4c0,0,0-0.1,0-0.1l0-9.1l-9.1,0c-3,0-5.5-2.4-5.5-5.4c0-3,2.4-5.5,5.4-5.5c0.1,0,0.1,0,0.2,0
	l9.1,0l0-9.1c0.1-3,2.5-5.4,5.5-5.4c3,0.1,5.3,2.5,5.4,5.4L809.5,3005.6L809.5,3005.6z"/>
</svg>
