<?xml version="1.0" encoding="utf-8"?>
<!-- Generator: Adobe Illustrator 21.0.0, SVG Export Plug-In . SVG Version: 6.00 Build 0)  -->
<svg version="1.1" id="Layer_1" xmlns="http://www.w3.org/2000/svg" xmlns:xlink="http://www.w3.org/1999/xlink" x="0px" y="0px"
	 width="1440px" height="972px" viewBox="0 0 1440 972" style="enable-background:new 0 0 1440 972;" xml:space="preserve">
<style type="text/css">
	.st0{fill:#FF8484;}
	.st1{fill:#F5EEE4;}
	.st2{fill:#99F9E4;}
	.st3{fill:#F59EF2;}
</style>
<path class="st0" d="M963.3,271.7l2.2,16.3l-14.9-6L963.3,271.7 M968.6,258.4l-31.7,25.7l37.1,14.8L968.6,258.4L968.6,258.4z"/>
<path class="st1" d="M1230,197c4.9,0,8.8,4,8.8,8.8c0,4.9-4,8.8-8.8,8.8c-4.8,0-8.8-4-8.8-8.8S1225.2,197,1230,197 M1230,186
	c-11,0-19.8,8.9-19.8,19.8c0,11,8.9,19.8,19.8,19.8c11,0,19.8-8.9,19.8-19.8C1249.9,194.9,1241,186,1230,186L1230,186z"/>
<path class="st1" d="M624.5,913.4c4.9,0,8.8,4,8.8,8.8c0,4.9-4,8.8-8.8,8.8s-8.8-4-8.8-8.8S619.7,913.4,624.5,913.4 M624.5,902.4
	c-11,0-19.8,8.9-19.8,19.8c0,11,8.9,19.8,19.8,19.8c11,0,19.8-8.9,19.8-19.8C644.4,911.3,635.5,902.4,624.5,902.4L624.5,902.4z"/>
<path class="st2" d="M96.9,619.7l14.7,4.4l0.4,15.7l-14.6,5.3l-9.6-12.9L96.9,619.7 M94.1,611.6l-15,20.7l15.8,21.2l24.2-8.8
	l-0.7-25.8L94.1,611.6L94.1,611.6z"/>
<path class="st2" d="M536,460l14.7,4.4l0.4,15.7l-14.6,5.3l-9.6-12.9L536,460 M533.2,451.9l-15,20.7l15.8,21.2l24.2-8.8l-0.7-25.8
	L533.2,451.9L533.2,451.9z"/>
<path class="st3" d="M225.5,308l9.1,0c3,0,5.5,2.4,5.5,5.4c0,3-2.4,5.5-5.4,5.5c0,0-0.1,0-0.1,0l-9.1,0l0,9.1c0,3-2.4,5.5-5.4,5.5
	c-3,0-5.5-2.4-5.5-5.4c0,0,0-0.1,0-0.1l0-9.1l-9.1,0c-3,0-5.5-2.4-5.5-5.4c0-3,2.4-5.5,5.4-5.5c0.1,0,0.1,0,0.2,0l9.1,0l0-9.1
	c0.1-3,2.5-5.4,5.5-5.4c3,0.1,5.3,2.5,5.4,5.4L225.5,308L225.5,308z"/>
<path class="st0" d="M1349.1,771.7l15.2,6.3l-12.7,9.9L1349.1,771.7 M1340.3,760.4l6.3,40.3l31.4-24.6L1340.3,760.4L1340.3,760.4z"
	/>
</svg>
