<svg width="720" height="720" xmlns="http://www.w3.org/2000/svg"><path d="M719.152 0L690 29.152 660.848 0h-1.696L630 29.152 600.848 0h-1.696L570 29.152 540.848 0h-1.696L510 29.152 480.848 0h-1.696L450 29.152 420.848 0h-1.696L390 29.152 360.848 0h-1.696L330 29.152 300.848 0h-1.696L270 29.152 240.849 0h-1.697L210 29.152 180.849 0h-1.697L150 29.152 120.848 0h-1.696L90 29.152 60.848 0h-1.696L30 29.152.848 0H0v.848L29.152 30 0 59.152v61.696L29.152 150 0 179.152v61.696L29.152 270 0 299.152v61.696L29.152 390 0 419.151v61.697L29.152 510 0 539.151v61.697L29.152 630 0 659.152V720h.848l-.248-.248v-58.304L29.152 690l30 30.001h1.696l30-30 28.552-28.552v58.304l-.248.248h1.696l-.248-.248v-58.304L149.152 690l30 30.001h1.697l30-30 28.551-28.552v58.304l-.248.248h1.697l-.248-.248v-58.304L269.15 690l30 30.001h1.697l30-30 28.553-28.552v58.304l-.25.248h1.697l-.248-.248v-58.304L389.152 690l30 30.001h1.696l30.001-30 28.551-28.552v58.304l-.248.248h1.696l-.248-.248v-58.304L509.152 690l30 30.001h1.696l30-30 28.552-28.552v58.304l-.248.248h1.696l-.248-.248v-58.304L629.152 690l30 30.001h1.696l30-30 28.552-28.552v58.304l-.248.248H720v-60.848l-29.152-29.153L720 600.85V539.15L690.848 510 720 480.848v-61.697L690.848 390 720 360.848v-61.696L690.848 270 720 240.848v-61.696l-29.152-29.153L720 120.85V59.151L690.848 30 720 .848V0h-.848zM570.848 30L600 .848 629.152 30 600 59.152 570.848 30zM450.85 30L480 .848 509.152 30 480 59.152 450.849 30zm-120 0L360 .848 389.152 30 360 59.152 330.848 30zm-120 0L240 .848 269.152 30 240 59.152 210.848 30zm-120 0L120 .848 149.152 30 120 59.152 90.848 30zM660.6 59.752V1.448L689.152 30l30 30L690 89.151l-29.4-29.4zM600.848 60l30-30L659.4 1.448v58.304L630 89.15 600.848 60zm-60.248-.248V1.448L569.152 30l30 30L570 89.151l-29.401-29.4zM480.848 60l30.001-30L539.4 1.448v58.304L510 89.15 480.848 60zm-60.248-.248V1.448L449.152 30l30 30L450 89.151l-29.4-29.4zM360.848 60l30-30L419.4 1.448v58.304L390 89.15 360.848 60zm-60.248-.248V1.448L329.152 30l30 30L330 89.151l-29.4-29.4zM240.849 60l30-30L299.4 1.448v58.304L270 89.15 240.849 60zm-60.249-.248V1.448L209.152 30l30 30L210 89.151l-29.4-29.4zM120.848 60l30-30L179.4 1.448v58.304L150 89.15 120.848 60zM60.6 59.752V1.448L89.152 30l30 30L90 89.151l-29.4-29.4zM.848 60l30-30L59.4 1.448v58.304L30 89.15.849 60zm630 30L660 60.847 689.152 90 660 119.152l-29.152-29.153zM510.85 90L540 60.847 569.152 90 540 119.152l-29.151-29.153zm-120 0L420 60.847 449.152 90 420 119.152l-29.152-29.153zm-120 0L300 60.847 329.15 90l-29.15 29.153-29.153-29.153zm-120 0L180 60.847 209.152 90 180 119.152l-29.152-29.153zm-120 0L60 60.847 89.152 90 60 119.152 30.848 89.999zm630 30l30-30L719.4 61.447v58.304L690 149.15 660.848 120zm-60.249-.248V61.448L629.152 90l30 30.001L630 149.151l-29.4-29.4zm-59.752.248l30-30L599.4 61.447v58.304L570 149.15 540.849 120zm-60.248-.248V61.448L509.152 90l30 30.001L510 149.151l-29.4-29.4zm-59.752.248l30.001-30L479.4 61.447v58.304L450 149.15 420.848 120zm-60.248-.248V61.448L389.152 90l30 30.001L390 149.151l-29.4-29.4zm-59.752.248l30-30 28.553-28.552v58.304L330 149.15 300.848 120zm-60.247-.248V61.448L269.15 90l30 30.001L270 149.151l-29.4-29.4zm-59.752.248l30-30L239.4 61.447v58.304L210 149.15 180.849 120zm-60.249-.248V61.448L149.152 90l30 30.001L150 149.151l-29.4-29.4zM60.848 120l30-30L119.4 61.447v58.304L90 149.15 60.848 120zM.6 119.752V61.448L29.152 90l30 30.001L30 149.151.6 119.751zm570.248 30.247L600 120.85l29.152 29.15L600 179.152l-29.152-29.153zm-119.999 0L480 120.85l29.152 29.15L480 179.152l-29.151-29.153zm-120 0L360 120.85l29.152 29.15L360 179.152l-29.152-29.153zm-120 0L240 120.85l29.152 29.15L240 179.152l-29.152-29.153zm-120 0L120 120.85l29.152 29.15L120 179.152l-29.152-29.153zM660.6 179.752v-58.304L689.152 150l30 30.001L690 209.151l-29.4-29.4zm-59.752.248l30-30 28.552-28.552v58.304L630 209.15 600.848 180zm-60.248-.248v-58.304L569.152 150l30 30.001L570 209.151l-29.401-29.4zm-59.752.248l30.001-30 28.551-28.552v58.304L510 209.15 480.848 180zm-60.248-.248v-58.304L449.152 150l30 30.001L450 209.151l-29.4-29.4zm-59.752.248l30-30 28.552-28.552v58.304L390 209.15 360.848 180zm-60.248-.248v-58.304L329.152 150l30 30.001L330 209.151l-29.4-29.4zm-59.751.248l30-30 28.551-28.552v58.304L270 209.15 240.849 180zm-60.249-.248v-58.304L209.152 150l30 30.001L210 209.151l-29.4-29.4zm-59.752.248l30-30 28.552-28.552v58.304L150 209.15 120.848 180zm-60.248-.248v-58.304L89.152 150l30 30.001L90 209.151l-29.4-29.4zM.848 180l30-30L59.4 121.447v58.304L30 209.15.849 180zm630 30L660 180.848 689.152 210 660 239.152 630.848 210zm-119.999 0L540 180.848 569.152 210 540 239.152 510.849 210zm-120 0L420 180.848 449.152 210 420 239.152 390.848 210zm-120 0L300 180.848 329.15 210l-29.15 29.152L270.848 210zm-120 0L180 180.848 209.152 210 180 239.152 150.848 210zm-120 0L60 180.848 89.152 210 60 239.152 30.848 210zm630 30l30-30 28.551-28.552v58.304L690 269.15 660.848 240zm-60.249-.248v-58.304L629.152 210l30 30L630 269.151l-29.4-29.4zm-59.752.248l30-30 28.552-28.552v58.304L570 269.15 540.849 240zm-60.248-.248v-58.304L509.152 210l30 30L510 269.151l-29.4-29.4zm-59.752.248l30.001-30 28.551-28.552v58.304L450 269.15 420.848 240zm-60.248-.248v-58.304L389.152 210l30 30L390 269.151l-29.4-29.4zm-59.752.248l30-30 28.553-28.552v58.304L330 269.15 300.848 240zm-60.247-.248v-58.304L269.15 210l30 30L270 269.151l-29.4-29.4zm-59.752.248l30-30 28.551-28.552v58.304L210 269.15 180.849 240zm-60.249-.248v-58.304L149.152 210l30 30L150 269.151l-29.4-29.4zM60.848 240l30-30 28.552-28.552v58.304L90 269.15 60.848 240zM.6 239.752v-58.304L29.152 210l30 30L30 269.151.6 239.751zM570.848 270L600 240.848 629.152 270 600 299.152 570.848 270zm-119.999 0L480 240.848 509.152 270 480 299.152 450.849 270zm-120 0L360 240.848 389.152 270 360 299.152 330.848 270zm-120 0L240 240.848 269.152 270 240 299.152 210.848 270zm-120 0L120 240.848 149.152 270 120 299.152 90.848 270zM660.6 299.751v-58.303L689.152 270l30 30L690 329.151l-29.4-29.401zm-59.752.248l30-29.999 28.552-28.552v58.303l-29.4 29.4L600.848 300zm-60.248-.248v-58.303L569.152 270l30 30L570 329.151 540.6 299.75zm-59.752.248L510.85 270l28.551-28.552v58.303l-29.4 29.4L480.848 300zm-60.248-.248v-58.303L449.152 270l30 30L450 329.151l-29.4-29.401zm-59.752.248l30-29.999 28.552-28.552v58.303l-29.4 29.4L360.848 300zm-60.248-.248v-58.303L329.152 270l30 30L330 329.151l-29.4-29.401zm-59.751.248l30-29.999 28.551-28.552v58.303l-29.4 29.4L240.849 300zm-60.249-.248v-58.303L209.152 270l30 30L210 329.151l-29.4-29.401zm-59.752.248l30-29.999 28.552-28.552v58.303l-29.4 29.4L120.848 300zm-60.248-.248v-58.303L89.152 270l30 30L90 329.151 60.6 299.75zm-59.752.248l30-29.999L59.4 241.448v58.303l-29.4 29.4L.849 300zm630 30.001L660 300.848 689.152 330 660 359.151 630.848 330zm-119.999 0L540 300.848 569.152 330 540 359.151 510.849 330zm-120 0L420 300.848 449.152 330 420 359.151 390.848 330zm-120 0L300 300.848 329.15 330l-29.15 29.151L270.848 330zm-120 0L180 300.848 209.152 330 180 359.151 150.848 330zm-120 0L60 300.848 89.152 330 60 359.151 30.848 330zm630 30l30-30 28.551-28.552v58.303l-29.4 29.4L660.848 360zm-60.249-.249v-58.303L629.152 330l30 30L630 389.151l-29.4-29.401zm-59.752.248l30-29.999 28.552-28.552v58.303l-29.4 29.4L540.849 360zm-60.248-.248v-58.303L509.152 330l30 30L510 389.151l-29.4-29.401zm-59.752.248L450.85 330l28.551-28.552v58.303l-29.4 29.4L420.848 360zm-60.248-.248v-58.303L389.152 330l30 30L390 389.151l-29.4-29.401zm-59.752.248l30-29.999 28.553-28.552v58.303L330 389.151 300.848 360zm-60.247-.248v-58.303L269.15 330l30 30L270 389.151l-29.4-29.401zm-59.752.248l30-29.999 28.551-28.552v58.303l-29.4 29.4L180.849 360zm-60.249-.248v-58.303L149.152 330l30 30L150 389.151l-29.4-29.401zm-59.752.248l30-29.999 28.552-28.552v58.303l-29.4 29.4L60.848 360zM.6 359.751v-58.303L29.152 330l30 30L30 389.151.6 359.75zM570.848 390L600 360.848 629.152 390 600 419.151 570.848 390zm-119.999 0L480 360.848 509.152 390 480 419.151 450.849 390zm-120 0L360 360.848 389.152 390 360 419.151 330.848 390zm-120 0L240 360.848 269.152 390 240 419.151 210.848 390zm-120 0L120 360.848 149.152 390 120 419.151 90.848 390zM660.6 419.751v-58.303L689.152 390l30 30L690 449.151l-29.4-29.401zm-59.752.248l30-29.999 28.552-28.552v58.303l-29.4 29.4L600.848 420zm-60.248-.248v-58.303L569.152 390l30 30L570 449.151 540.6 419.75zm-59.752.248L510.85 390l28.551-28.552v58.303l-29.4 29.4L480.848 420zm-60.248-.248v-58.303L449.152 390l30 30L450 449.151l-29.4-29.401zm-59.752.248l30-29.999 28.552-28.552v58.303l-29.4 29.4L360.848 420zm-60.248-.248v-58.303L329.152 390l30 30L330 449.151l-29.4-29.401zm-59.751.248l30-29.999 28.551-28.552v58.303l-29.4 29.4L240.849 420zm-60.249-.248v-58.303L209.152 390l30 30L210 449.151l-29.4-29.401zm-59.752.248l30-29.999 28.552-28.552v58.303l-29.4 29.4L120.848 420zm-60.248-.248v-58.303L89.152 390l30 30L90 449.151 60.6 419.75zm-59.752.248l30-29.999L59.4 361.448v58.303l-29.4 29.4L.849 420zm630 30.001L660 420.848 689.152 450 660 479.151 630.848 450zm-119.999 0L540 420.848 569.152 450 540 479.151 510.849 450zm-120 0L420 420.848 449.152 450 420 479.151 390.848 450zm-120 0L300 420.848 329.15 450l-29.15 29.151L270.848 450zm-120 0L180 420.848 209.152 450 180 479.151 150.848 450zm-120 0L60 420.848 89.152 450 60 479.151 30.848 450zm630 30l30-30 28.551-28.552v58.303l-29.4 29.4L660.848 480zm-60.249-.249v-58.303L629.152 450l30 30L630 509.152l-29.4-29.401zm-59.752.249l30-30 28.552-28.552v58.303l-29.4 29.4L540.849 480zm-60.248-.249v-58.303L509.152 450l30 30L510 509.152l-29.4-29.401zm-59.752.249l30.001-30 28.551-28.552v58.303l-29.4 29.4L420.848 480zm-60.248-.249v-58.303L389.152 450l30 30L390 509.152l-29.4-29.401zm-59.752.249l30-30 28.553-28.552v58.303L330 509.151 300.848 480zm-60.247-.249v-58.303L269.15 450l30 30L270 509.152l-29.4-29.401zm-59.752.249l30-30 28.551-28.552v58.303l-29.4 29.4L180.849 480zm-60.249-.249v-58.303L149.152 450l30 30L150 509.152l-29.4-29.401zM60.848 480l30-30 28.552-28.552v58.303l-29.4 29.4L60.848 480zM.6 479.751v-58.303L29.152 450l30 30L30 509.152.6 479.75zM570.848 510L600 480.848 629.152 510 600 539.151 570.848 510zm-119.999 0L480 480.848 509.152 510 480 539.151 450.849 510zm-120 0L360 480.848 389.152 510 360 539.151 330.848 510zm-120 0L240 480.848 269.152 510 240 539.151 210.848 510zm-120 0L120 480.848 149.152 510 120 539.151 90.848 510zM660.6 539.752v-58.304L689.152 510l30 30L690 569.152l-29.4-29.4zm-59.752.248l30-30 28.552-28.552v58.304l-29.4 29.4L600.848 540zm-60.248-.248v-58.304L569.152 510l30 30L570 569.152l-29.401-29.4zm-59.752.248l30.001-30 28.551-28.552v58.304l-29.4 29.4L480.848 540zm-60.248-.248v-58.304L449.152 510l30 30L450 569.152l-29.4-29.4zm-59.752.248l30-30 28.552-28.552v58.304l-29.4 29.4L360.848 540zm-60.248-.248v-58.304L329.152 510l30 30L330 569.152l-29.4-29.4zm-59.751.248l30-30 28.551-28.552v58.304l-29.4 29.4L240.849 540zm-60.249-.248v-58.304L209.152 510l30 30L210 569.152l-29.4-29.4zm-59.752.248l30-30 28.552-28.552v58.304l-29.4 29.4L120.848 540zm-60.248-.248v-58.304L89.152 510l30 30L90 569.152l-29.4-29.4zM.848 540l30-30L59.4 481.448v58.304l-29.4 29.4L.849 540zm630 30L660 540.847 689.152 570 660 599.152l-29.152-29.153zm-119.999 0L540 540.847 569.152 570 540 599.152l-29.151-29.153zm-120 0L420 540.847 449.152 570 420 599.152l-29.152-29.153zm-120 0L300 540.847 329.15 570l-29.15 29.153-29.153-29.153zm-120 0L180 540.847 209.152 570 180 599.152l-29.152-29.153zm-120 0L60 540.847 89.152 570 60 599.152l-29.152-29.153zm630 30l30-30 28.551-28.552v58.304L690 629.15 660.848 600zm-60.249-.248v-58.304L629.152 570l30 30.001L630 629.151l-29.4-29.4zm-59.752.248l30-30 28.552-28.552v58.304L570 629.15 540.849 600zm-60.248-.248v-58.304L509.152 570l30 30.001L510 629.151l-29.4-29.4zm-59.752.248l30.001-30 28.551-28.552v58.304L450 629.15 420.848 600zm-60.248-.248v-58.304L389.152 570l30 30.001L390 629.151l-29.4-29.4zm-59.752.248l30-30 28.553-28.552v58.304L330 629.15 300.848 600zm-60.247-.248v-58.304L269.15 570l30 30.001L270 629.151l-29.4-29.4zm-59.752.248l30-30 28.551-28.552v58.304L210 629.15 180.849 600zm-60.249-.248v-58.304L149.152 570l30 30.001L150 629.151l-29.4-29.4zM60.848 600l30-30 28.552-28.552v58.304L90 629.15 60.848 600zM.6 599.752v-58.304L29.152 570l30 30.001L30 629.151.6 599.751zm570.248 30.247L600 600.85l29.152 29.15L600 659.152l-29.152-29.153zm-119.999 0L480 600.85l29.152 29.15L480 659.152l-29.151-29.153zm-120 0L360 600.85l29.152 29.15L360 659.152l-29.152-29.153zm-120 0L240 600.85l29.152 29.15L240 659.152l-29.152-29.153zm-120 0L120 600.85l29.152 29.15L120 659.152l-29.152-29.153zM660.6 659.752v-58.304L689.152 630l30 30.001L690 689.151l-29.4-29.4zm-59.752.248l30-30 28.552-28.552v58.304L630 689.15 600.848 660zm-60.248-.248v-58.304L569.152 630l30 30.001L570 689.151l-29.401-29.4zm-59.752.248l30.001-30 28.551-28.552v58.304L510 689.15 480.848 660zm-60.248-.248v-58.304L449.152 630l30 30.001L450 689.151l-29.4-29.4zm-59.752.248l30-30 28.552-28.552v58.304L390 689.15 360.848 660zm-60.248-.248v-58.304L329.152 630l30 30.001L330 689.151l-29.4-29.4zm-59.751.248l30-30 28.551-28.552v58.304L270 689.15 240.849 660zm-60.249-.248v-58.304L209.152 630l30 30.001L210 689.151l-29.4-29.4zm-59.752.248l30-30 28.552-28.552v58.304L150 689.15 120.848 660zm-60.248-.248v-58.304L89.152 630l30 30.001L90 689.151l-29.4-29.4zM.848 660l30-30L59.4 601.447v58.304L30 689.15.849 660zm630 30L660 660.847 689.152 690 660 719.152l-29.152-29.153zm-119.999 0L540 660.847 569.152 690 540 719.152l-29.151-29.153zm-120 0L420 660.847 449.152 690 420 719.152l-29.152-29.153zm-120 0L300 660.847 329.15 690l-29.15 29.153-29.153-29.153zm-120 0L180 660.847 209.152 690 180 719.152l-29.152-29.153zm-120 0L60 660.847 89.152 690 60 719.152l-29.152-29.153z" fill="#4519EB" fill-rule="evenodd"/></svg>