<?xml version="1.0" encoding="utf-8"?>
<!-- Generator: Adobe Illustrator 21.0.0, SVG Export Plug-In . SVG Version: 6.00 Build 0)  -->
<svg version="1.1" id="Layer_1" xmlns="http://www.w3.org/2000/svg" xmlns:xlink="http://www.w3.org/1999/xlink" x="0px" y="0px"
	 viewBox="0 0 136 50" style="enable-background:new 0 0 136 50;" xml:space="preserve">
<style type="text/css">
	.st0{fill:#3813C2;}
</style>
<g id="Page-1">
	<g id="Logo-example-6">
		<polyline id="Fill-170" class="st0" points="36.3,49.7 54.5,49.7 36.3,0 18.2,0 0,49.7 9.1,49.7 5.2,39.1 18.9,1.9 36.3,49.7 		
			"/>
		<path id="Brand-Name" class="st0" d="M75.9,15.4c0.7,0.3,1.3,0.6,1.7,1.2c0.4,0.5,0.6,1.2,0.6,1.9c0,1.1-0.4,2-1.3,2.6
			C76,21.7,74.7,22,73.1,22h-6.8V9.4h6.4c1.6,0,2.8,0.3,3.7,0.9c0.8,0.6,1.3,1.4,1.3,2.4c0,0.6-0.1,1.1-0.4,1.6
			C76.9,14.8,76.5,15.2,75.9,15.4z M69.8,12v2.4h2.4c1.2,0,1.8-0.4,1.8-1.2c0-0.8-0.6-1.2-1.8-1.2H69.8z M72.8,19.4
			c1.2,0,1.9-0.4,1.9-1.3c0-0.9-0.6-1.3-1.9-1.3h-3v2.6H72.8z M85.6,18.7h-1.9V22h-3.6V9.4h5.8c1.1,0,2.1,0.2,3,0.6s1.5,0.9,1.9,1.6
			s0.7,1.5,0.7,2.5c0,0.9-0.2,1.7-0.6,2.4c-0.4,0.7-1,1.2-1.8,1.6l2.7,4h-3.8L85.6,18.7z M87.9,14.1c0-0.6-0.2-1-0.6-1.4
			c-0.4-0.3-0.9-0.5-1.7-0.5h-2v3.7h2c0.7,0,1.3-0.2,1.7-0.5C87.7,15.1,87.9,14.7,87.9,14.1z M101.9,19.6h-5.3l-1,2.4h-3.6l5.6-12.6
			h3.5l5.6,12.6h-3.7L101.9,19.6z M100.8,16.9l-1.6-4l-1.6,4H100.8z M119.6,9.4V22h-2.9l-5.6-6.7V22h-3.5V9.4h2.9l5.6,6.7V9.4H119.6
			z M122.1,9.4h6c1.4,0,2.6,0.3,3.7,0.8c1.1,0.5,1.9,1.2,2.5,2.2s0.9,2.1,0.9,3.3s-0.3,2.4-0.9,3.3c-0.6,0.9-1.4,1.7-2.5,2.2
			c-1.1,0.5-2.3,0.8-3.7,0.8h-6V9.4z M127.9,19.2c1.1,0,1.9-0.3,2.6-0.9c0.7-0.6,1-1.5,1-2.5s-0.3-1.9-1-2.5
			c-0.7-0.6-1.5-0.9-2.6-0.9h-2.3v6.9H127.9z M77.9,28.4V41H76L69,32.5V41h-2.3V28.4h1.9l6.9,8.5v-8.5H77.9z M89.4,38.1h-6.3
			L81.9,41h-2.4l5.7-12.6h2.3L93.2,41h-2.4L89.4,38.1z M88.7,36.2l-2.4-5.5l-2.4,5.5H88.7z M106.3,41l0-8.4l-4.1,6.9h-1L97,32.8V41
			h-2.2V28.4h1.9l5,8.4l4.9-8.4h1.9l0,12.6H106.3z M121.4,39v2h-9.4V28.4h9.2v2h-6.9v3.3h6.1v1.9h-6.1V39H121.4z"/>
	</g>
</g>
</svg>
