<?xml version="1.0" encoding="utf-8"?>
<!-- Generator: Adobe Illustrator 21.0.0, SVG Export Plug-In . SVG Version: 6.00 Build 0)  -->
<svg version="1.1" id="Layer_1" xmlns="http://www.w3.org/2000/svg" xmlns:xlink="http://www.w3.org/1999/xlink" x="0px" y="0px"
	 viewBox="0 0 180 50" style="enable-background:new 0 0 180 50;" xml:space="preserve">
<style type="text/css">
	.st0{fill:#3813C2;}
</style>
<g id="Page-1">
	<g id="Logo-example-5">
		<g id="Group-6">
			<path id="Fill-1" class="st0" d="M43.2,49.6c-1.8,0-3.5-0.7-4.8-2c-1.3-1.3-2-3-2-4.8c0-1.8,0.7-3.5,2-4.7c1.3-1.3,3-2,4.8-2
				s3.5,0.7,4.8,2c2.6,2.6,2.6,6.9,0,9.5C46.7,48.9,45,49.6,43.2,49.6"/>
			<path id="Fill-3" class="st0" d="M6.7,13.8c-1.8,0-3.5-0.7-4.8-2c-1.3-1.3-2-3-2-4.8c0-1.8,0.7-3.5,2-4.7c1.3-1.3,3-2,4.8-2
				c1.8,0,3.5,0.7,4.7,2c1.3,1.3,2,3,2,4.8c0,1.8-0.7,3.5-2,4.8C10.2,13.1,8.5,13.8,6.7,13.8"/>
			<path id="Fill-5" class="st0" d="M42.9,13.6c-1.8,0-3.5-0.7-4.8-2c-2.6-2.6-2.6-6.9,0-9.5c1.3-1.3,3-2,4.8-2c1.8,0,3.5,0.7,4.8,2
				c2.6,2.6,2.6,6.9,0,9.5C46.4,12.9,44.7,13.6,42.9,13.6"/>
			<path id="Fill-7" class="st0" d="M6.9,49.6c-1.8,0-3.5-0.7-4.8-2c-1.3-1.3-2-3-2-4.8c0-1.8,0.7-3.5,2-4.8
				c0.3-0.3,0.6-0.5,0.9-0.8c0.1-0.1,0.2-0.1,0.3-0.2c0.2-0.1,0.5-0.3,0.7-0.4c0.1-0.1,0.3-0.1,0.4-0.2c0.2-0.1,0.5-0.2,0.8-0.2
				c0.1,0,0.1,0,0.2,0c0,0,0.1,0,0.1,0l1.5-0.1c0.2,0,0.4,0,0.6,0.1l0.1,0c0.1,0,0.1,0,0.2,0l0.1,0l0.1,0h0.1c0.1,0,0.2,0,0.3,0
				c2.6,0,5.1-1.1,7-3c1.9-1.9,2.9-4.5,2.8-7l0-0.1l0-0.1c0-0.1,0-0.1,0-0.2c0-0.1,0-0.2,0-0.3l0-0.2c0-0.1,0-0.3,0-0.4l0.1-1.5
				c0,0,0-0.1,0-0.1l0-0.1c0.1-0.3,0.1-0.6,0.3-0.8c0.1-0.2,0.1-0.3,0.2-0.4c0.1-0.3,0.2-0.5,0.4-0.7c0.1-0.1,0.1-0.2,0.2-0.3
				c0.3-0.4,0.5-0.7,0.8-1c1.3-1.3,3-2,4.8-2c1.8,0,3.5,0.7,4.8,2c2.6,2.6,2.6,6.9,0,9.5c-0.3,0.3-0.6,0.5-0.9,0.8
				c-0.1,0.1-0.2,0.1-0.3,0.2c-0.2,0.1-0.5,0.3-0.7,0.4c-0.1,0.1-0.3,0.1-0.4,0.2c-0.3,0.1-0.5,0.2-0.8,0.2l-0.2,0c0,0-0.1,0-0.1,0
				l-1.5,0.1c-0.2,0-0.4,0-0.6-0.1l-0.1,0c0,0-0.1,0-0.2,0l-0.1,0l-0.1,0h-0.1c-0.1,0-0.2,0-0.3,0c-2.6,0-5.1,1.1-7,3
				c-1.9,1.9-2.9,4.5-2.8,7l0,0.1l0,0.1c0,0.1,0,0.1,0,0.2c0,0.1,0,0.2,0,0.3c0,0.1,0,0.1,0,0.2c0,0.1,0,0.2,0,0.3v0l-0.1,1.4
				c0,0-0.1,0.2-0.1,0.2c-0.1,0.3-0.2,0.6-0.2,0.8c-0.1,0.1-0.1,0.3-0.2,0.4c-0.1,0.3-0.2,0.5-0.4,0.7c-0.1,0.1-0.1,0.2-0.2,0.3
				c-0.2,0.4-0.5,0.7-0.8,0.9C10.4,48.9,8.7,49.6,6.9,49.6L6.9,49.6z"/>
			<path id="Fill-9" class="st0" d="M25,49.6c-1.8,0-3.5-0.7-4.8-2c-1.3-1.3-2-3-2-4.8c0-1.8,0.7-3.5,2-4.7c0.3-0.3,0.6-0.5,1-0.8
				c0.1-0.1,0.2-0.1,0.3-0.2c0.2-0.1,0.5-0.3,0.7-0.4c0.1-0.1,0.3-0.1,0.4-0.2c0.2-0.1,0.5-0.2,0.8-0.2c0,0,0.2-0.1,0.3-0.1l1.5-0.1
				c0.2,0,0.4,0,0.6,0.1l0.1,0c0.1,0,0.1,0,0.2,0c0,0,0,0,0.1,0l0,0l0.1,0c0.1,0,0.2,0,0.3,0c2.6,0,5.1-1.1,7-3
				c1.9-1.9,2.9-4.5,2.8-7l0-0.3l0,0c0,0,0,0,0,0c0-0.1,0-0.1,0-0.2l0-0.2c0-0.1,0-0.2,0-0.4l0.1-1.5c0,0,0.1-0.2,0.1-0.3
				c0.1-0.3,0.2-0.6,0.2-0.8c0-0.1,0.1-0.3,0.2-0.4c0.1-0.2,0.2-0.5,0.4-0.7l0,0c0.1-0.1,0.1-0.2,0.2-0.3c0.3-0.4,0.5-0.7,0.8-1
				c1.3-1.3,3-2,4.8-2c1.8,0,3.5,0.7,4.8,2c2.6,2.6,2.6,6.9,0,9.5c-0.3,0.3-0.6,0.5-1,0.8c-0.1,0.1-0.1,0.1-0.2,0.1l-0.1,0.1
				c-0.2,0.1-0.5,0.3-0.7,0.4c-0.1,0.1-0.3,0.1-0.4,0.2c-0.2,0.1-0.5,0.2-0.8,0.2c-0.1,0-0.1,0-0.2,0c0,0-0.1,0-0.1,0l-1.5,0.1
				c-0.2,0-0.5,0-0.7-0.1c-0.1,0-0.1,0-0.2,0c0,0,0,0-0.1,0l-0.1,0c-0.1,0-0.2,0-0.3,0c-2.6,0-5.1,1.1-7,3c-1.9,1.9-2.9,4.5-2.8,7
				l0,0.1l0,0.1c0,0.1,0,0.2,0,0.2c0,0.1,0,0.2,0,0.2c0,0.1,0,0.1,0,0.2c0,0.1,0,0.2,0,0.3l-0.1,1.5c0,0-0.1,0.2-0.1,0.2
				c-0.1,0.3-0.2,0.6-0.2,0.8c0,0.1-0.1,0.2-0.2,0.4l0,0c-0.1,0.2-0.2,0.5-0.4,0.7c-0.1,0.1-0.1,0.2-0.2,0.3c-0.3,0.4-0.5,0.7-0.8,1
				C28.5,48.9,26.8,49.6,25,49.6"/>
			<path id="Fill-11" class="st0" d="M6.9,31.4c-1.8,0-3.5-0.7-4.8-2c-1.3-1.3-2-3-2-4.8c0-1.8,0.7-3.5,2-4.7c0.3-0.3,0.6-0.5,1-0.8
				c0.1-0.1,0.2-0.1,0.3-0.2c0.2-0.1,0.5-0.3,0.7-0.4c0.1-0.1,0.3-0.1,0.4-0.2c0.2-0.1,0.5-0.2,0.8-0.2l0.2,0c0,0,0.1,0,0.1,0
				L7.1,18c0.2,0,0.4,0,0.6,0.1l0,0c0.1,0,0.1,0,0.2,0c0,0,0,0,0.1,0l0.1,0l0.1,0c0.1,0,0.2,0,0.3,0c2.6,0,5.1-1.1,7-3
				c1.9-1.9,2.9-4.5,2.8-7l0-0.1l0-0.1c0-0.1,0-0.2,0-0.2c0-0.1,0-0.1,0-0.2l0-0.2c0-0.1,0-0.2,0-0.4l0.1-1.4l0,0v0
				c0,0,0.1-0.2,0.1-0.2c0.1-0.4,0.2-0.6,0.2-0.9c0-0.1,0.1-0.3,0.2-0.4c0.1-0.2,0.2-0.5,0.4-0.7l0,0c0.1-0.1,0.1-0.2,0.2-0.3
				c0.3-0.4,0.5-0.7,0.8-0.9c1.3-1.3,3-2,4.8-2c1.8,0,3.5,0.7,4.8,2c2.6,2.6,2.6,6.9,0,9.5c-0.3,0.3-0.6,0.5-0.9,0.8
				c-0.1,0.1-0.2,0.1-0.3,0.2l0,0c-0.2,0.1-0.5,0.3-0.7,0.4c-0.1,0.1-0.3,0.1-0.4,0.2c-0.3,0.1-0.5,0.2-0.8,0.2c-0.1,0-0.1,0-0.2,0
				c0,0-0.1,0-0.1,0l-1.5,0.1c-0.2,0-0.4,0-0.6-0.1l-0.1,0c-0.1,0-0.1,0-0.2,0c0,0-0.1,0-0.1,0l0,0l-0.1,0c-0.1,0-0.2,0-0.3,0
				c-2.6,0-5.1,1.1-7,3c-1.9,1.9-2.9,4.5-2.8,7l0,0.1l0,0.1c0,0.1,0,0.2,0,0.2c0,0.1,0,0.2,0,0.2c0,0.1,0,0.1,0,0.2
				c0,0.1,0,0.2,0,0.3L13.5,26c0,0,0,0.1,0,0.1l0,0.1c-0.1,0.3-0.2,0.6-0.2,0.8c0,0.1-0.1,0.3-0.2,0.4c-0.1,0.2-0.2,0.5-0.4,0.7
				c-0.1,0.1-0.1,0.2-0.2,0.3c-0.3,0.4-0.5,0.7-0.8,1C10.4,30.7,8.7,31.4,6.9,31.4"/>
		</g>
		<path id="TechBrand" class="st0" d="M62.9,22.2h-3.9v-2.8h11.3v2.8h-3.9V32h-3.6V22.2z M81.8,29.2V32H71.7V19.4h9.9v2.8h-6.4v2.1
			h5.6v2.7h-5.6v2.3H81.8z M90.1,32.3c-1.3,0-2.5-0.3-3.6-0.8c-1.1-0.6-1.9-1.3-2.5-2.3c-0.6-1-0.9-2.1-0.9-3.4
			c0-1.3,0.3-2.4,0.9-3.4c0.6-1,1.4-1.8,2.5-2.3s2.2-0.8,3.6-0.8c1.2,0,2.2,0.2,3.1,0.6c0.9,0.4,1.7,1,2.3,1.8l-2.3,2.1
			c-0.8-1-1.8-1.5-3-1.5c-0.7,0-1.3,0.1-1.8,0.4c-0.5,0.3-0.9,0.7-1.2,1.3s-0.4,1.2-0.4,1.9c0,0.7,0.1,1.3,0.4,1.9
			c0.3,0.5,0.7,1,1.2,1.3c0.5,0.3,1.1,0.4,1.8,0.4c1.2,0,2.2-0.5,3-1.5l2.3,2.1c-0.6,0.8-1.4,1.4-2.3,1.8S91.2,32.3,90.1,32.3z
			 M109.1,19.4V32h-3.6v-4.9h-4.9V32h-3.6V19.4h3.6v4.7h4.9v-4.7H109.1z M120.9,25.4c0.7,0.2,1.2,0.6,1.7,1.1c0.4,0.5,0.6,1.2,0.6,2
			c0,1.1-0.4,1.9-1.3,2.5c-0.8,0.6-2.1,0.9-3.7,0.9H112V19.4h5.9c1.5,0,2.6,0.3,3.4,0.9c0.8,0.6,1.2,1.4,1.2,2.4
			c0,0.6-0.1,1.2-0.4,1.7C121.8,24.8,121.4,25.2,120.9,25.4z M114.3,21.2v3.5h3.3c0.8,0,1.4-0.1,1.9-0.4c0.4-0.3,0.7-0.7,0.7-1.3
			c0-0.6-0.2-1-0.7-1.3s-1.1-0.4-1.9-0.4H114.3z M118.1,30.2c1.8,0,2.7-0.6,2.7-1.8c0-1.2-0.9-1.8-2.7-1.8h-3.8v3.6H118.1z M134,32
			l-2.6-3.7c-0.1,0-0.3,0-0.5,0H128V32h-2.3V19.4h5.2c1.1,0,2,0.2,2.9,0.5c0.8,0.4,1.4,0.9,1.9,1.5c0.4,0.7,0.6,1.5,0.6,2.4
			c0,0.9-0.2,1.8-0.7,2.4s-1.1,1.2-2,1.5l2.9,4.1H134z M133.9,23.9c0-0.8-0.3-1.4-0.8-1.9s-1.3-0.6-2.3-0.6H128v5h2.7
			c1,0,1.8-0.2,2.3-0.7C133.6,25.3,133.9,24.7,133.9,23.9z M147,29.1h-6.3l-1.2,2.9h-2.4l5.7-12.6h2.3l5.7,12.6h-2.4L147,29.1z
			 M146.3,27.2l-2.4-5.5l-2.4,5.5H146.3z M163.5,19.4V32h-1.9l-6.9-8.5V32h-2.3V19.4h1.9l6.9,8.5v-8.5H163.5z M166.9,19.4h5.5
			c1.3,0,2.5,0.3,3.6,0.8c1,0.5,1.9,1.3,2.4,2.2c0.6,1,0.9,2.1,0.9,3.3c0,1.2-0.3,2.3-0.9,3.3s-1.4,1.7-2.4,2.2
			c-1,0.5-2.2,0.8-3.6,0.8h-5.5V19.4z M172.3,30c0.9,0,1.7-0.2,2.4-0.5c0.7-0.4,1.2-0.9,1.6-1.5c0.4-0.7,0.6-1.4,0.6-2.3
			s-0.2-1.6-0.6-2.3c-0.4-0.7-0.9-1.2-1.6-1.5c-0.7-0.4-1.5-0.5-2.4-0.5h-3.1V30H172.3z"/>
	</g>
</g>
</svg>
