<?xml version="1.0" encoding="utf-8"?>
<!-- Generator: Adobe Illustrator 21.0.0, SVG Export Plug-In . SVG Version: 6.00 Build 0)  -->
<svg version="1.1" id="Layer_1" xmlns="http://www.w3.org/2000/svg" xmlns:xlink="http://www.w3.org/1999/xlink" x="0px" y="0px"
	 viewBox="0 0 151 50" style="enable-background:new 0 0 151 50;" xml:space="preserve">
<style type="text/css">
	.st0{fill:#3813C2;}
</style>
<g id="Page-1">
	<g id="Logo-example-2" transform="translate(-0.000000, 0.000000)">
		<path id="Combined-Shape" class="st0" d="M47.3,13.8c0,0,2.8,0.4,2.2,2.2c-0.5,1.6-0.8,5.7-12.5,6.6c-11.7,0.9-17.5,5.6-18.4,12.6
			c-0.9,7,5,11.6,11.5,12.1c0.1,0,0.1,0,0.2,0c1.2,0.1,1.3,1.8,0.1,2c-3.9,0.7-8.7,0.8-13.8-0.8C4.9,44.9,1.1,36.8,1.9,27.6
			c0,0-1.1,1.4-1.6,3.5c0,0-1.1-7.4,2.6-12.5c0,0-1.6,1-2.6,2.5c0,0,1.2-5.9,6.6-9.7c5.4-3.9,12.2-5.1,12.2-5.1s0.3-3.6,5-6
			c0.3-0.2,0.7,0.1,0.7,0.5c-0.2,1.7,0.3,4.3,2,5.6c0,0,6.4,0.3,9.2,2.9C38.8,11.9,47.3,13.8,47.3,13.8z M47.7,14.9l-0.9-0.1
			c0.1,0.3,0.2,1,0.7,1.4c0.2,0.1,0.6,0.3,0.9,0.2c0.1-0.3,0.2-0.5,0.3-0.7C49,15.1,47.7,14.9,47.7,14.9z M35.3,18.4
			c-3.5-0.9-13.5-1.9-18.4,2.8c-0.2,0.2-0.5,0.5-0.7,0.7c-1.7,1.8-3.5,4.7-4.2,9c0,0,0.6-1,1.6-2.3c-0.4,4.4,1,9.2,4,11.7
			c0,0-1.5-2.3-0.7-6.5c1.3-6.9,6.7-11.7,18.4-12.6c4.3-0.3,7-0.6,8.8-1.5C44,19.9,38.3,19.2,35.3,18.4z"/>
		<g id="Group-4" transform="translate(55.000000, 13.000000)">
			<path id="WOLVES" class="st0" d="M26.5,5.3l-7.3,14h-5.1l-0.8-7.4l-3.8,7.4H4.4l-1.7-14h4.7l0.9,8l4.2-8h4.3l0.8,8.1l4.2-8.1
				H26.5z M32.4,19.6c-1.4,0-2.7-0.3-3.8-0.8c-1.1-0.5-1.9-1.3-2.5-2.2c-0.6-0.9-0.9-2-0.9-3.3c0-1.6,0.4-3.1,1.1-4.4
				c0.8-1.3,1.8-2.3,3.1-3C30.9,5.3,32.4,5,34.1,5c1.4,0,2.7,0.3,3.8,0.8C38.9,6.3,39.7,7,40.3,8s0.9,2,0.9,3.3
				c0,1.6-0.4,3.1-1.1,4.3c-0.8,1.3-1.8,2.3-3.1,3C35.6,19.3,34.1,19.6,32.4,19.6z M32.8,15.8c0.7,0,1.4-0.2,1.9-0.6
				c0.6-0.4,1-0.9,1.3-1.6s0.4-1.4,0.4-2.1c0-0.8-0.2-1.5-0.7-2c-0.5-0.5-1.2-0.7-2-0.7c-0.7,0-1.4,0.2-1.9,0.6
				c-0.6,0.4-1,0.9-1.3,1.6S30,12.3,30,13.1c0,0.8,0.2,1.5,0.7,2C31.3,15.6,31.9,15.8,32.8,15.8z M44.3,5.3H49l-2.1,10.3h6.3
				l-0.7,3.7h-11L44.3,5.3z M70.7,5.3l-8.7,14h-4.6l-3.1-14H59l1.7,8.2l5.1-8.2H70.7z M75,8.9l-0.3,1.6h5.9L80,13.9H74l-0.4,1.8h7
				L80,19.3H68.3l2.8-14h11.4l-0.7,3.6H75z M87.3,19.6c-1.2,0-2.4-0.1-3.4-0.4c-1.1-0.3-1.9-0.6-2.6-1l1.8-3.5
				c1.5,0.9,3.1,1.3,4.7,1.3c0.6,0,1.1-0.1,1.4-0.2c0.3-0.1,0.5-0.3,0.5-0.6c0-0.2-0.2-0.4-0.5-0.6s-0.8-0.3-1.6-0.5
				c-0.9-0.2-1.7-0.5-2.3-0.7s-1.1-0.6-1.6-1.1c-0.5-0.5-0.7-1.2-0.7-2c0-1.1,0.3-2,0.8-2.8c0.6-0.8,1.4-1.4,2.4-1.8
				C87.4,5.2,88.6,5,90.1,5c1,0,2,0.1,2.9,0.3c0.9,0.2,1.7,0.5,2.3,0.9l-1.7,3.4c-0.5-0.3-1.1-0.6-1.8-0.8c-0.7-0.2-1.3-0.3-2-0.3
				c-0.7,0-1.2,0.1-1.5,0.3s-0.5,0.4-0.5,0.7c0,0.3,0.2,0.5,0.5,0.6s0.9,0.3,1.6,0.5c0.9,0.2,1.7,0.4,2.3,0.7
				c0.6,0.2,1.2,0.6,1.6,1.1c0.5,0.5,0.7,1.2,0.7,2c0,1-0.3,2-0.9,2.7c-0.6,0.8-1.4,1.4-2.5,1.8C90,19.4,88.8,19.6,87.3,19.6z"/>
			<path id="partners-_x26_-co" class="st0" d="M5.8,25c0.6,0,1.1,0.1,1.6,0.3c0.5,0.2,0.8,0.5,1,0.9c0.2,0.4,0.4,0.8,0.4,1.3
				c0,0.5-0.1,0.9-0.4,1.3c-0.2,0.4-0.6,0.7-1,0.9C7,29.9,6.4,30,5.8,30H4.2v2H2.9v-7H5.8z M5.8,28.9c0.6,0,1-0.1,1.3-0.4
				c0.3-0.2,0.4-0.6,0.4-1s-0.1-0.8-0.4-1c-0.3-0.2-0.7-0.4-1.3-0.4H4.2v2.8H5.8z M14.7,30.4h-3.5L10.6,32H9.2l3.1-7h1.3l3.2,7h-1.4
				L14.7,30.4z M14.3,29.4L13,26.3l-1.3,3.1H14.3z M22.3,32l-1.4-2c-0.1,0-0.1,0-0.3,0H19v2h-1.3v-7h2.9c0.6,0,1.1,0.1,1.6,0.3
				c0.5,0.2,0.8,0.5,1,0.9c0.2,0.4,0.4,0.8,0.4,1.3c0,0.5-0.1,1-0.4,1.4c-0.3,0.4-0.6,0.7-1.1,0.9l1.6,2.3H22.3z M22.2,27.5
				c0-0.4-0.1-0.8-0.4-1c-0.3-0.2-0.7-0.4-1.3-0.4H19v2.8h1.5c0.6,0,1-0.1,1.3-0.4C22.1,28.3,22.2,27.9,22.2,27.5z M26.4,26.1h-2.3
				V25H30v1.1h-2.3V32h-1.3V26.1z M37.2,25v7h-1.1l-3.9-4.7V32H31v-7h1.1l3.9,4.7V25H37.2z M44.4,30.9V32h-5.3v-7h5.1v1.1h-3.8v1.8
				h3.4V29h-3.4v1.9H44.4z M50.4,32L49,30c-0.1,0-0.2,0-0.3,0h-1.6v2h-1.3v-7h2.9c0.6,0,1.1,0.1,1.6,0.3c0.5,0.2,0.8,0.5,1,0.9
				s0.4,0.8,0.4,1.3c0,0.5-0.1,1-0.4,1.4c-0.3,0.4-0.6,0.7-1.1,0.9l1.6,2.3H50.4z M50.4,27.5c0-0.4-0.1-0.8-0.4-1
				c-0.3-0.2-0.7-0.4-1.3-0.4h-1.5v2.8h1.5c0.6,0,1-0.1,1.3-0.4C50.2,28.3,50.4,27.9,50.4,27.5z M55.3,32.1c-0.5,0-1.1-0.1-1.6-0.2
				c-0.5-0.2-0.9-0.4-1.2-0.6l0.5-1c0.3,0.2,0.6,0.4,1.1,0.6c0.4,0.1,0.8,0.2,1.3,0.2c0.5,0,0.9-0.1,1.2-0.3s0.4-0.4,0.4-0.7
				c0-0.2-0.1-0.4-0.2-0.5c-0.1-0.1-0.3-0.2-0.5-0.3s-0.5-0.2-0.9-0.3c-0.5-0.1-1-0.3-1.3-0.4s-0.6-0.3-0.9-0.6
				c-0.2-0.3-0.4-0.6-0.4-1.1c0-0.4,0.1-0.7,0.3-1.1c0.2-0.3,0.5-0.6,1-0.8c0.4-0.2,0.9-0.3,1.6-0.3c0.4,0,0.8,0.1,1.3,0.2
				c0.4,0.1,0.8,0.3,1.1,0.5l-0.4,1c-0.3-0.2-0.6-0.3-1-0.4c-0.3-0.1-0.7-0.1-1-0.1c-0.5,0-0.9,0.1-1.1,0.3S54,26.6,54,26.9
				c0,0.2,0.1,0.4,0.2,0.5s0.3,0.2,0.5,0.3s0.5,0.2,0.9,0.3c0.5,0.1,0.9,0.2,1.3,0.4c0.3,0.1,0.6,0.3,0.9,0.6s0.4,0.6,0.4,1.1
				c0,0.4-0.1,0.7-0.3,1c-0.2,0.3-0.5,0.6-1,0.8C56.4,32,55.9,32.1,55.3,32.1z M67.4,32.1l-0.9-0.9c-0.7,0.6-1.4,0.8-2.4,0.8
				c-0.5,0-0.9-0.1-1.3-0.2c-0.4-0.2-0.7-0.4-0.9-0.7s-0.3-0.6-0.3-1c0-0.4,0.1-0.8,0.4-1.1c0.3-0.3,0.7-0.7,1.2-1
				c-0.3-0.3-0.5-0.5-0.6-0.8c-0.1-0.2-0.2-0.5-0.2-0.8c0-0.5,0.2-0.9,0.6-1.2c0.4-0.3,0.9-0.5,1.5-0.5c0.6,0,1,0.1,1.4,0.4
				c0.3,0.3,0.5,0.7,0.5,1.1c0,0.4-0.1,0.7-0.3,1S65.5,28,65,28.3l1.5,1.4c0.2-0.3,0.3-0.7,0.4-1.2l1,0.3c-0.1,0.6-0.3,1.2-0.6,1.6
				l0.9,0.8L67.4,32.1z M64.5,25.8c-0.3,0-0.5,0.1-0.6,0.2s-0.2,0.3-0.2,0.5c0,0.2,0,0.3,0.1,0.5c0.1,0.1,0.3,0.3,0.5,0.6
				c0.4-0.2,0.7-0.4,0.8-0.6s0.2-0.3,0.2-0.5c0-0.2-0.1-0.4-0.2-0.5S64.8,25.8,64.5,25.8z M64.3,31.1c0.6,0,1.1-0.2,1.5-0.5L64,28.8
				c-0.4,0.2-0.7,0.4-0.8,0.6c-0.2,0.2-0.2,0.4-0.2,0.7c0,0.3,0.1,0.5,0.4,0.7C63.5,31,63.9,31.1,64.3,31.1z M75.2,32.1
				c-0.7,0-1.3-0.2-1.9-0.5c-0.6-0.3-1-0.7-1.3-1.3s-0.5-1.2-0.5-1.9s0.2-1.3,0.5-1.9s0.8-1,1.3-1.3c0.6-0.3,1.2-0.5,1.9-0.5
				c0.6,0,1.1,0.1,1.6,0.3c0.5,0.2,0.9,0.5,1.2,0.9l-0.8,0.8c-0.5-0.5-1.1-0.8-1.9-0.8c-0.5,0-0.9,0.1-1.3,0.3
				c-0.4,0.2-0.7,0.5-0.9,0.9c-0.2,0.4-0.3,0.8-0.3,1.3s0.1,0.9,0.3,1.3c0.2,0.4,0.5,0.7,0.9,0.9c0.4,0.2,0.8,0.3,1.3,0.3
				c0.7,0,1.4-0.3,1.9-0.8l0.8,0.8c-0.3,0.4-0.7,0.7-1.2,0.9S75.8,32.1,75.2,32.1z M82.5,32.1c-0.7,0-1.4-0.2-1.9-0.5
				s-1-0.7-1.3-1.3c-0.3-0.6-0.5-1.2-0.5-1.8s0.2-1.3,0.5-1.8c0.3-0.6,0.8-1,1.3-1.3s1.2-0.5,1.9-0.5c0.7,0,1.4,0.2,1.9,0.5
				s1,0.7,1.3,1.3s0.5,1.2,0.5,1.9s-0.2,1.3-0.5,1.9s-0.8,1-1.3,1.3S83.3,32.1,82.5,32.1z M82.5,31c0.5,0,0.9-0.1,1.3-0.3
				c0.4-0.2,0.7-0.5,0.9-0.9S85,29,85,28.5s-0.1-0.9-0.3-1.3s-0.5-0.7-0.9-0.9C83.4,26.1,83,26,82.5,26s-0.9,0.1-1.3,0.3
				s-0.7,0.5-0.9,0.9s-0.3,0.8-0.3,1.3s0.1,0.9,0.3,1.3s0.5,0.7,0.9,0.9S82.1,31,82.5,31z"/>
		</g>
	</g>
</g>
</svg>
