<svg width="80" height="330" xmlns="http://www.w3.org/2000/svg" xmlns:xlink="http://www.w3.org/1999/xlink"><defs><linearGradient x1="50%" y1="-1.387%" x2="50%" y2="94.873%" id="c"><stop stop-color="#E2027D" offset="0%"/><stop stop-color="#FF41AA" offset="4.279%"/><stop stop-color="#E2027D" offset="7.28%"/><stop stop-color="#E2027D" offset="23.914%"/><stop stop-color="#E2027D" offset="83.722%"/><stop stop-color="#FC2D9F" offset="93.364%"/><stop stop-color="#D30074" offset="100%"/></linearGradient><path id="b" d="M0 0h50v300H0z"/><filter x="-49%" y="-6.8%" width="198%" height="116.3%" filterUnits="objectBoundingBox" id="a"><feOffset dy="4" in="SourceAlpha" result="shadowOffsetOuter1"/><feGaussianBlur stdDeviation="7.5" in="shadowOffsetOuter1" result="shadowBlurOuter1"/><feColorMatrix values="0 0 0 0 0 0 0 0 0 0 0 0 0 0 0 0 0 0 0.2 0" in="shadowBlurOuter1"/></filter></defs><g fill="none" fill-rule="evenodd"><g transform="translate(15 11)"><use fill="#000" filter="url(#a)" xlink:href="#b"/><use fill="#F20487" xlink:href="#b"/><use fill="url(#c)" xlink:href="#b"/></g><path d="M46.31 201.495H33.515v-4.175c0-1.336.288-2.382.865-3.137.578-.756 1.443-1.134 2.598-1.134.568 0 1.076.181 1.524.545.449.363.781.84.998 1.432.164-.773.542-1.381 1.134-1.823.592-.443 1.28-.664 2.065-.664 1.172 0 2.067.38 2.685 1.138.618.759.928 1.789.928 3.09v4.728zm-6.002-1.731h4.649v-2.997c0-.786-.195-1.398-.584-1.837-.39-.44-.942-.66-1.657-.66-.75 0-1.339.184-1.767.55-.428.366-.641.93-.641 1.692v3.252zm-1.354 0v-2.804c0-.645-.177-1.169-.532-1.573-.354-.405-.848-.607-1.48-.607-.692 0-1.21.219-1.552.655-.343.437-.514 1.065-.514 1.885v2.444h4.078zm1.424-19.368v5.863h4.579V179.5h1.354v8.49H33.514v-8.393h1.362v6.662h4.14v-5.863h1.362zm2.707-11.896a1.9 1.9 0 0 0-1.472.66c-.396.439-.728 1.218-.998 2.337-.322 1.354-.797 2.41-1.424 3.169-.627.758-1.415 1.138-2.364 1.138-.996 0-1.828-.409-2.496-1.226-.668-.818-1.002-1.877-1.002-3.178 0-1.4.384-2.515 1.151-3.344.768-.829 1.659-1.229 2.672-1.2l.053.018v1.652c-.75 0-1.356.248-1.82.743-.462.495-.694 1.206-.694 2.131 0 .862.195 1.522.585 1.982.39.46.898.69 1.525.69.556 0 1.02-.249 1.393-.747.372-.498.699-1.306.98-2.426.334-1.347.826-2.373 1.476-3.076.65-.703 1.456-1.054 2.417-1.054 1.032 0 1.86.421 2.488 1.265.627.844.94 1.945.94 3.305 0 1.277-.346 2.407-1.037 3.388-.691.982-1.617 1.458-2.777 1.428l-.053-.017v-1.653c.82 0 1.444-.301 1.872-.905.428-.603.642-1.35.642-2.241 0-.873-.185-1.565-.554-2.074-.37-.51-.87-.765-1.503-.765zm-8.209-14.92v4.113h11.435v1.732H34.876v4.104h-1.362v-9.949h1.362zm6.302-12.086h5.133v1.732H33.514v-4.896c0-1.365.351-2.426 1.054-3.182.703-.755 1.63-1.133 2.778-1.133 1.166 0 2.096.378 2.79 1.133.695.756 1.042 1.817 1.042 3.182v3.164zm-1.354 0v-3.164c0-.867-.233-1.515-.699-1.942-.465-.428-1.053-.642-1.762-.642-.709 0-1.3.215-1.775.646-.475.43-.712 1.077-.712 1.938v3.164h4.948zm3.19-17.179v5.362l3.297 1.213v1.766l-12.797-4.948v-1.485l12.797-4.87v1.767l-3.296 1.195zm-1.45 4.826v-4.307l-5.827 2.11v.052l5.827 2.145zm1.521-18.515a1.9 1.9 0 0 0-1.472.66c-.396.439-.728 1.218-.998 2.337-.322 1.354-.797 2.41-1.424 3.169-.627.758-1.415 1.138-2.364 1.138-.996 0-1.828-.409-2.496-1.226-.668-.818-1.002-1.877-1.002-3.178 0-1.4.384-2.515 1.151-3.344.768-.829 1.659-1.229 2.672-1.2l.053.018v1.652c-.75 0-1.356.248-1.82.743-.462.495-.694 1.206-.694 2.131 0 .862.195 1.522.585 1.982.39.46.898.69 1.525.69.556 0 1.02-.249 1.393-.747.372-.498.699-1.306.98-2.426.334-1.347.826-2.373 1.476-3.076.65-.703 1.456-1.054 2.417-1.054 1.032 0 1.86.421 2.488 1.265.627.844.94 1.945.94 3.305 0 1.277-.346 2.407-1.037 3.388-.691.981-1.617 1.458-2.777 1.428l-.053-.017v-1.653c.82 0 1.444-.301 1.872-.905.428-.603.642-1.35.642-2.241 0-.873-.185-1.565-.554-2.074-.37-.51-.87-.765-1.503-.765zm0-13.224a1.9 1.9 0 0 0-1.472.66c-.396.439-.728 1.218-.998 2.337-.322 1.354-.797 2.41-1.424 3.169-.627.759-1.415 1.138-2.364 1.138-.996 0-1.828-.409-2.496-1.226-.668-.817-1.002-1.876-1.002-3.177 0-1.4.384-2.515 1.151-3.345.768-.829 1.659-1.229 2.672-1.2l.053.018v1.653c-.75 0-1.356.247-1.82.742-.462.496-.694 1.206-.694 2.132 0 .861.195 1.522.585 1.982.39.46.898.69 1.525.69.556 0 1.02-.25 1.393-.747.372-.499.699-1.307.98-2.426.334-1.348.826-2.373 1.476-3.076.65-.704 1.456-1.055 2.417-1.055 1.032 0 1.86.422 2.488 1.266.627.843.94 1.945.94 3.304 0 1.278-.346 2.407-1.037 3.388-.691.982-1.617 1.458-2.777 1.429l-.053-.018v-1.652c.82 0 1.444-.302 1.872-.906.428-.603.642-1.35.642-2.24 0-.874-.185-1.565-.554-2.075-.37-.51-.87-.765-1.503-.765z" fill="#7F094A"/></g></svg>