<svg width="289" height="295" xmlns="http://www.w3.org/2000/svg"><g fill="#99F9E4" fill-rule="nonzero"><path d="M123.676 37.647c.715.353 1.073.353 1.788.353 1.072 0 2.502-.705 3.218-1.763.357-.353.357-.705.715-.705 1.072-1.763.715-3.88-1.073-4.937-1.788-1.058-3.933-.705-5.006 1.058-.357.353-.357.705-.715 1.058-1.072 1.763-.715 3.879 1.073 4.936zM133.021 30c.624 0 1.247 0 1.56-.321 2.806-1.929 5.612-2.25 5.612-2.25 1.56-.322 2.807-1.929 2.807-3.536-.312-1.607-1.871-2.893-3.43-2.893-.312 0-4.054.643-8.108 3.214-1.56.965-1.871 2.893-.936 4.5.312.643 1.248 1.286 2.495 1.286zM123.5 130c-2.1 0-3.5 1.333-3.5 3.333v3.334c0 2 1.4 3.333 3.5 3.333s3.5-1.333 3.5-3.333v-3.334c0-2-1.4-3.333-3.5-3.333zM139 130.4c0-2.04-1.4-3.4-3.5-3.4s-3.5 1.36-3.5 3.4v10.2c0 2.04 1.4 3.4 3.5 3.4s3.5-1.36 3.5-3.4v-10.2zM147.5 145c2.1 0 3.5-1.333 3.5-3.333v-13.334c0-2-1.4-3.333-3.5-3.333s-3.5 1.333-3.5 3.333v13.334c0 1.666 1.4 3.333 3.5 3.333zM163 140.6v-10.2c0-2.04-1.4-3.4-3.5-3.4s-3.5 1.36-3.5 3.4v10.2c0 2.04 1.4 3.4 3.5 3.4s3.5-1.7 3.5-3.4zM171.5 140c2.1 0 3.5-1.333 3.5-3.333v-3.334c0-2-1.4-3.333-3.5-3.333s-3.5 1.333-3.5 3.333v3.334c0 1.666 1.75 3.333 3.5 3.333zM125.091 107.496c1.593 0 3.187-1.612 2.868-3.546 0-1.934-1.593-3.223-3.505-2.9-5.736.322-17.207 4.19-20.393 17.082-.319 1.612.637 3.546 2.23 3.868h.638c1.274 0 2.868-.967 3.186-2.579 3.505-10.958 14.658-11.925 14.976-11.925zM189.125 186.062c-1.597-.322-3.514.644-3.833 2.255-2.876 11.274-14.056 11.918-14.376 12.24-1.597 0-3.194 1.611-2.875 3.544 0 1.61 1.597 2.899 3.195 2.899h.32c5.75-.322 17.25-4.188 20.444-17.073 0-1.61-.958-3.221-2.875-3.865zM146.5 160c-5.241 0-9.5 4.259-9.5 9.5s4.259 9.5 9.5 9.5 9.5-4.259 9.5-9.5-4.259-9.5-9.5-9.5zm0 12.448a2.936 2.936 0 0 1-2.948-2.948 2.936 2.936 0 0 1 2.948-2.948 2.936 2.936 0 0 1 2.948 2.948 2.936 2.936 0 0 1-2.948 2.948zM123.5 160c-5.241 0-9.5 4.259-9.5 9.5s4.259 9.5 9.5 9.5 9.5-4.259 9.5-9.5-4.259-9.5-9.5-9.5zm0 12.448a2.936 2.936 0 0 1-2.948-2.948 2.936 2.936 0 0 1 2.948-2.948 2.936 2.936 0 0 1 2.948 2.948 2.936 2.936 0 0 1-2.948 2.948zM179 169.5c0-5.241-4.259-9.5-9.5-9.5s-9.5 4.259-9.5 9.5 4.259 9.5 9.5 9.5 9.5-4.259 9.5-9.5zm-12.448 0a2.936 2.936 0 0 1 2.948-2.948 2.936 2.936 0 0 1 2.948 2.948 2.936 2.936 0 0 1-2.948 2.948 2.936 2.936 0 0 1-2.948-2.948zM132.5 64c6.73 0 12.5-5.449 12.5-12.5 0-6.73-5.449-12.5-12.5-12.5-6.73 0-12.5 5.449-12.5 12.5S125.449 64 132.5 64zm0-18.27c3.205 0 6.09 2.565 6.09 6.09 0 3.526-2.564 6.09-6.09 6.09s-6.09-2.884-6.09-6.41c0-3.526 2.564-5.77 6.09-5.77zM160.5 64c6.73 0 12.5-5.449 12.5-12.5 0-6.73-5.449-12.5-12.5-12.5-6.73 0-12.5 5.449-12.5 12.5S153.77 64 160.5 64zm0-18.27c3.205 0 6.09 2.565 6.09 6.09 0 3.526-2.564 6.09-6.09 6.09-3.205 0-6.09-2.564-6.09-6.09 0-3.525 2.885-6.09 6.09-6.09zM123 73.5c0 2.1 1.287 3.5 3.217 3.5h39.566c1.93 0 3.217-1.4 3.217-3.5s-1.287-3.5-3.217-3.5h-39.566c-1.93 0-3.217 1.4-3.217 3.5z"/><path d="M185.815 87.336V47.873c0-20.378-15.855-37.199-35.917-38.816V3.235c0-1.941-1.295-3.235-3.236-3.235-1.942 0-3.236 1.294-3.236 3.235v5.499c-20.062 1.617-35.918 18.437-35.918 38.815v39.463C71.267 87.66 58 116.124 58 142.972v57.9c0 8.086 6.795 14.88 14.885 14.88h1.618c7.766 0 13.914-5.823 14.885-13.263 3.883 7.116 9.707 12.939 16.502 17.144v44.314h-.97c-11.973 0-21.68 9.704-21.68 21.35 0 5.174 4.206 9.056 9.383 9.056h48.861c1.942 0 3.236-1.294 3.236-3.235V227.072h7.12v64.693c0 1.941 1.293 3.235 3.235 3.235h48.861c5.177 0 9.384-4.205 9.384-9.057 0-11.968-9.708-21.349-21.68-21.349h-.97V218.34v-.647c5.5-3.882 10.03-9.057 13.266-14.88.97 7.44 7.119 13.263 14.885 13.263h1.294c8.09 0 14.885-6.793 14.885-14.88v-57.9c0-26.848-12.943-55.313-49.185-55.96zm-39.153-72.133a32.586 32.586 0 0 1 32.682 32.67v39.14c-5.178-1.942-11.002-3.236-16.827-3.236H131.13c-5.825 0-11.65 1.294-16.827 3.235v-39.14c-.323-18.113 14.238-32.67 32.359-32.67zm-82.19 169.495h4.853c1.942 0 3.236-1.293 3.236-3.234s-1.294-3.235-3.236-3.235h-4.853v-34.934c0-37.522 22.327-46.902 36.241-48.843-11.002 8.733-17.797 21.995-17.797 37.198v61.135H64.472v-8.087zm18.767 16.497c0 4.529-3.883 8.41-8.413 8.41h-1.618c-4.53 0-8.413-3.881-8.413-8.41v-2.264H83.24v2.264zm54.686 63.076h-6.795c-1.942 0-3.236 1.294-3.236 3.234 0 1.941 1.294 3.235 3.236 3.235h6.795v17.79H92.3c-1.618 0-2.912-1.293-2.912-2.587 0-8.41 6.795-14.88 15.208-14.88 5.824 0 11.325 2.265 15.208 6.47.648.647 1.618.97 2.265.97.971 0 1.618-.323 2.266-.97 1.294-1.294 1.294-3.235 0-4.529-3.56-3.558-7.766-6.145-12.297-7.44v-42.05c5.825 2.265 11.973 3.882 18.445 3.882h7.118v36.875h.324zm45.949.97c-4.53 1.294-9.06 3.882-12.296 7.44-1.295 1.294-1.295 3.235 0 4.528.647.647 1.294.97 2.265.97.97 0 1.618-.323 2.265-.97 3.883-4.205 9.384-6.469 15.208-6.469 8.413 0 15.209 6.793 15.209 14.88 0 1.617-1.295 2.587-2.913 2.587h-45.301v-17.79h6.795c1.942 0 3.236-1.294 3.236-3.235 0-1.94-1.294-3.235-3.236-3.235h-6.795v-36.875h3.883c7.766 0 15.208-1.94 21.68-5.175v43.344zm-21.68-44.638h-31.388c-22.65 0-41.095-18.437-41.095-41.08V131.65c0-22.642 18.444-41.08 41.095-41.08h31.388c22.65 0 41.095 18.438 41.095 41.08v48.196c0 22.32-18.444 40.757-41.095 40.757zm66.334-19.408c0 4.529-3.883 8.41-8.413 8.41h-1.618c-4.53 0-8.413-3.881-8.413-8.41v-2.264h18.444v2.264zm0-22.966h-4.853c-1.942 0-3.236 1.294-3.236 3.235 0 1.94 1.294 3.234 3.236 3.234h4.853v7.764h-18.444v-12.616-48.196c0-14.88-6.795-28.465-17.797-37.198 13.914 2.264 36.241 11.644 36.241 48.843v34.934zM217.333 50c1 0 1.667-.333 2.334-1L233 35.667c1.333-1.334 1.333-3.334 0-4.667-1.333-1.333-3.333-1.333-4.667 0L215 44.333c-1.333 1.334-1.333 3.334 0 4.667.667.667 1.333 1 2.333 1zM14.5 176.97l-4.53 4.53c-1.294 1.294-1.294 3.235 0 4.53.648.646 1.618.97 2.265.97s1.618-.324 2.265-.97l4.53-4.53c1.294-1.294 1.294-3.235 0-4.53-1.295-1.294-3.56-1.294-4.53 0zM277.03 128.97c-1.295-1.294-3.236-1.294-4.53 0l-4.53 4.53c-1.294 1.294-1.294 3.235 0 4.53.648.646 1.618.97 2.265.97s1.618-.324 2.265-.97l4.53-4.53c1.294-.97 1.294-3.235 0-4.53zM60.964 58.036c.643.643 1.607.964 2.25.964s1.607-.321 2.25-.964L69 54.5l3.536 3.536c.643.643 1.607.964 2.25.964s1.607-.321 2.25-.964c1.285-1.286 1.285-3.215 0-4.5L73.5 50l3.536-3.536c1.285-1.285 1.285-3.214 0-4.5-1.286-1.285-3.215-1.285-4.5 0L69 45.5l-3.536-3.536c-1.285-1.285-3.214-1.285-4.5 0-1.285 1.286-1.285 3.215 0 4.5L64.5 50l-3.536 3.536c-1.285 1.285-1.285 3.214 0 4.5zM270.125 18.625h1.25v1.25c0 1.875 1.25 3.125 3.125 3.125s3.125-1.25 3.125-3.125v-1.25h1.25c1.875 0 3.125-1.25 3.125-3.125s-1.25-3.125-3.125-3.125h-1.25v-1.25c0-1.875-1.25-3.125-3.125-3.125s-3.125 1.25-3.125 3.125v1.25h-1.25c-1.875 0-3.125 1.25-3.125 3.125s1.25 3.125 3.125 3.125zM264.036 241.964c-1.286-1.285-3.215-1.285-4.5 0L256 245.5l-3.536-3.536c-1.285-1.285-3.214-1.285-4.5 0-1.285 1.286-1.285 3.215 0 4.5L251.5 250l-3.536 3.536c-1.285 1.285-1.285 3.214 0 4.5.643.643 1.607.964 2.25.964s1.607-.321 2.25-.964L256 254.5l3.536 3.536c.643.643 1.607.964 2.25.964s1.607-.321 2.25-.964c1.285-1.286 1.285-3.215 0-4.5L260.5 250l3.536-3.536c.964-1.285.964-3.214 0-4.5zM45.714 250.214h-4.928v-4.928c0-1.972-1.315-3.286-3.286-3.286s-3.286 1.314-3.286 3.286v4.928h-4.928c-1.972 0-3.286 1.315-3.286 3.286s1.314 3.286 3.286 3.286h4.928v4.928c0 1.972 1.315 3.286 3.286 3.286s3.286-1.314 3.286-3.286v-4.928h4.928c1.972 0 3.286-1.315 3.286-3.286s-1.643-3.286-3.286-3.286zM19 96.5c0-5.241-4.259-9.5-9.5-9.5S0 91.259 0 96.5s4.259 9.5 9.5 9.5 9.5-4.259 9.5-9.5zm-12.448 0A2.936 2.936 0 0 1 9.5 93.552a2.936 2.936 0 0 1 2.948 2.948A2.936 2.936 0 0 1 9.5 99.448 2.936 2.936 0 0 1 6.552 96.5zM258.5 66c-5.241 0-9.5 4.259-9.5 9.5s4.259 9.5 9.5 9.5 9.5-4.259 9.5-9.5c0-5.569-4.259-9.5-9.5-9.5zm0 12.12a2.936 2.936 0 0 1-2.948-2.948 2.936 2.936 0 0 1 2.948-2.948 2.936 2.936 0 0 1 2.948 2.948 2.936 2.936 0 0 1-2.948 2.949zM18.5 4C13.259 4 9 8.259 9 13.5s4.259 9.5 9.5 9.5 9.5-4.259 9.5-9.5S23.741 4 18.5 4zm0 12.12a2.936 2.936 0 0 1-2.948-2.948 2.936 2.936 0 0 1 2.948-2.948 2.936 2.936 0 0 1 2.948 2.948 2.936 2.936 0 0 1-2.948 2.949z"/><circle cx="32.5" cy="139.5" r="3.5"/><circle cx="89.5" cy="7.5" r="3.5"/><circle cx="208.5" cy="7.5" r="3.5"/><circle cx="12.5" cy="287.5" r="3.5"/><circle cx="285.5" cy="285.5" r="3.5"/><circle cx="279.5" cy="189.5" r="3.5"/><circle cx="221.5" cy="239.5" r="3.5"/></g></svg>