<svg height="32" viewBox="0 0 344 32" width="344" xmlns="http://www.w3.org/2000/svg"><g fill="none" fill-rule="evenodd" transform="translate(.716)"><g fill="#fff" fill-rule="nonzero" transform="translate(0 .65)"><path d="m4.88167352 31.3501969c.2985733 0 .55236061-.1045007.76136192-.313502s.31350197-.4627886.31350197-.7613619v-19.3923361l6.27003939 11.9578608c.1492866.268716.335895.5001103.5598249.694183.22393.1940726.5448963.2911089.9628989.2911089h1.8362259c.3881453 0 .7016472-.0970363.9405059-.2911089.2388586-.1940727.4329313-.425467.5822179-.694183l6.2700394-11.9578608v19.3923361c0 .2985733.0970363.5523606.291109.7613619.1940726.2090013.4553242.313502.7837549.313502h3.7620236c.3284306 0 .5971466-.1045007.8061479-.313502s.313502-.4627886.313502-.7613619v-29.15568311c0-.32843063-.1045007-.59714661-.313502-.80614792s-.4777173-.31350197-.8061479-.31350197h-3.4933076c-.4180027 0-.7315046.11196499-.940506.33589497-.2090013.22392998-.3433593.39560962-.4030739.51503895l-8.7332691 16.12295838-8.64369719-16.12295838c-.05971466-.11942933-.19407265-.29110897-.40307396-.51503895-.20900132-.22392998-.52250329-.33589497-.94050591-.33589497h-3.53809365c-.32843063 0-.59714661.10450066-.80614792.31350197s-.31350197.47771729-.31350197.80614792v29.15568311c0 .2985733.10450066.5523606.31350197.7613619s.47771729.313502.80614792.313502zm37.57545028 0c.4180026 0 .7240403-.0970363.9181129-.291109.1940727-.1940726.3209663-.3806809.380681-.5598249l2.1049418-5.4638915h13.3014407l2.1049417 5.4638915c.0597147.179144.1866084.3657523.380681.5598249.1940727.1940727.5001103.291109.9181129.291109h3.8963816c.2388587 0 .44786-.089572.627004-.268716s.2687159-.4030739.2687159-.6717899c0-.1194293-.0149286-.2537873-.044786-.403074l-10.7934249-28.88696711c-.1194293-.2985733-.2985733-.55982494-.5374319-.78375492-.2388587-.22392998-.582218-.33589497-1.0300779-.33589497h-4.8816735c-.44786 0-.7986836.11196499-1.0524709.33589497-.2537874.22392998-.425467.48518162-.515039.78375492l-10.7934249 28.88696711c-.0597147.1492867-.089572.2836447-.089572.403074 0 .268716.0970363.4926459.291109.6717899.1940726.179144.4105382.268716.6493969.268716zm15.1376665-11.4652149h-10.166421l5.0608175-13.8388726zm55.9227797 11.4652149c.328431 0 .597147-.1045007.806148-.313502s.313502-.4627886.313502-.7613619v-19.2579781l12.853581 19.6162661c.089572.0597146.22393.1940726.403074.4030739s.477717.313502.89572.313502h3.493307c.298574 0 .552361-.1045007.761362-.313502s.313502-.4777173.313502-.8061479v-29.11089711c0-.32843063-.104501-.59714661-.313502-.80614792s-.477717-.31350197-.806148-.31350197h-3.762023c-.328431 0-.589683.10450066-.783755.31350197-.194073.20900131-.291109.47771729-.291109.80614792v19.66105201l-12.898367-20.06412597c-.059715-.08957199-.186608-.23139431-.380681-.42546696-.194073-.19407265-.50011-.29110897-.918113-.29110897h-3.448522c-.298573 0-.55236.10450066-.761361.31350197-.209002.20900131-.313502.47771729-.313502.80614792v29.15568311c0 .2985733.1045.5523606.313502.7613619.209001.2090013.462788.313502.761361.313502z"/><path d="m80.0773601 31.3501969c.3284306 0 .5971466-.1045007.8061479-.313502s.313502-.4627886.313502-.7613619v-19.2579781l12.8535807 19.6162661c.089572.0597146.22393.1940726.403074.4030739.1791439.2090013.4777173.313502.8957199.313502h3.4933076c.2985733 0 .5523606-.1045007.761362-.313502.2090013-.2090013.3135019-.4777173.3135019-.8061479v-29.11089711c0-.32843063-.1045006-.59714661-.3135019-.80614792-.2090014-.20900131-.4777173-.31350197-.806148-.31350197h-3.7620236c-.3284306 0-.5896823.10450066-.7837549.31350197-.1940727.20900131-.291109.47771729-.291109.80614792v19.66105201l-12.8983667-20.06412597c-.0597147-.08957199-.1866083-.23139431-.380681-.42546696-.1940726-.19407265-.5001103-.29110897-.9181129-.29110897h-3.4485216c-.2985733 0-.5523607.10450066-.761362.31350197s-.3135019.47771729-.3135019.80614792v29.15568311c0 .2985733.1045006.5523606.3135019.7613619s.4627887.313502.761362.313502z" transform="matrix(-1 0 0 1 175.158 0)"/></g><path d="m156.757897 11.0998687h49.957841c1.380712 0 2.5 1.1192882 2.5 2.5v1.594941c0 1.3807118-1.119288 2.5-2.5 2.5h-49.957841c-1.380711 0-2.5-1.1192882-2.5-2.5v-1.594941c0-1.3807118 1.119289-2.5 2.5-2.5z" fill="#f20487"/><path d="m21.858054 31.0018614c.3193075 0 .5733022-.1015979.7619839-.3047936s.2830226-.4499334.2830226-.740213v-3.0914777c0-.3193076-.0943409-.5733022-.2830226-.761984-.1886817-.1886817-.4426764-.2830226-.7619839-.2830226h-12.40945299l6.18295549-6.2700394c1.3933421-1.1030625 2.5834885-2.184354 3.5704391-3.2438745.9869506-1.0595206 1.7416776-2.162583 2.2641809-3.3091875.5225033-1.1466044.7837549-2.4020637.7837549-3.76637779 0-1.74167761-.3991344-3.30918745-1.1974033-4.70252954-.7982689-1.39334208-1.9884153-2.49640456-3.5704391-3.30918745-1.5820239-.81278288-3.5776961-1.21917432-5.9870168-1.21917432-1.71264965 0-3.25113153.27576562-4.61544566.82729686-1.36431412.55153124-2.51817554 1.28448724-3.46158424 2.19886798s-1.66185071 1.95938731-2.15532604 3.13501969c-.49347532 1.17563238-.75472696 2.38754972-.78375492 3.635752 0 .23222367.08708388.43541937.26125164.60958717s.39187746.2612516.6531291.2612516h3.87523268c.26125164 0 .52250328-.0725699.78375492-.2177097s.42090542-.4063914.47896134-.78375489c.1451398-.84181084.41364843-1.61105178.80552589-2.30772283.39187746-.69667104.93615172-1.25545927 1.63282276-1.67636469s1.55299583-.63135813 2.56897443-.63135813c1.5384819 0 2.6633154.40639144 3.3745004 1.21917432s1.0667775 1.87230343 1.0667775 3.17856163c0 .87083879-.2685086 1.74893459-.8055259 2.63428739-.5370172.8853528-1.393342 1.8577894-2.5689744 2.91731-1.1756324 1.0595205-2.72137129 2.3440078-4.63721665 3.8534617l-6.87962655 6.8360846c-.46444736.3773635-.76198395.74747-.89260977 1.1103195s-.19593873.6749-.19593873.9361517v2.2206389c0 .2902796.10159786.5370173.30479358.740213s.44993338.3047936.74021298.3047936zm19.234652.3483355c2.0609852 0 3.8244338-.3047936 5.2903457-.9143807 1.465912-.6095872 2.6633154-1.451398 3.5922101-2.5254326.9288947-1.0740345 1.6255658-2.3149798 2.0900131-3.7228359.4644474-1.407856.725699-2.910053.7837549-4.5065908.058056-.7837549.0870839-1.6473367.0870839-2.5907454v-2.8519971c0-.9579227-.0290279-1.8432754-.0870839-2.6560583-.0580559-1.59653783-.3265645-3.09873476-.8055258-4.50659083-.4789614-1.40785606-1.1901464-2.63428738-2.1335551-3.67929394s-2.1408121-1.87230343-3.5922101-2.48189059-3.1930756-.91438074-5.2250328-.91438074c-2.0029292 0-3.7300929.30479358-5.1814909.91438074s-2.6488013 1.43688403-3.59221 2.48189059-1.6618507 2.27143788-2.1553261 3.67929394c-.4934753 1.40785607-.7692409 2.910053-.8272968 4.50659083-.029028.8127829-.050799 1.6981356-.0653129 2.6560583-.014514.9579227-.014514 1.9085884 0 2.8519971.0145139.9434087.0362849 1.8069905.0653129 2.5907454.0870839 1.5965378.3628495 3.0987348.8272968 4.5065908.4644474 1.4078561 1.1611184 2.6488014 2.0900132 3.7228359.9288947 1.0740346 2.119041 1.9158454 3.5704391 2.5254326 1.451398.6095871 3.2075895.9143807 5.2685747.9143807zm0-5.0073231c-1.8287615 0-3.1930756-.6168442-4.0929424-1.8505325-.8998667-1.2336883-1.3788281-2.910053-1.436884-5.0290941 0-.8418108-.007257-1.6908786-.021771-2.5472035-.0145139-.8563248-.0145139-1.7199066 0-2.5907454.014514-.8708388.021771-1.6981357.021771-2.4818906.0580559-2.06098515.5297603-3.72283586 1.4151131-4.98555213.8853527-1.26271626 2.2569239-1.89407439 4.1147133-1.89407439 1.8868174 0 3.2729025.63135813 4.1582553 1.89407439.8853528 1.26271627 1.3425431 2.92456698 1.3715711 4.98555213.0580559.7837549.0870839 1.6110518.0870839 2.4818906v2.5907454c0 .8563249-.029028 1.7053927-.0870839 2.5472035-.029028 2.1190411-.4862183 3.7954058-1.3715711 5.0290941s-2.2714379 1.8505325-4.1582553 1.8505325zm41.3757286 4.6589876c.3193076 0 .5733022-.1015979.761984-.3047936.1886817-.2031957.2830226-.4499334.2830226-.740213v-3.0914777c0-.3193076-.0943409-.5733022-.2830226-.761984-.1886818-.1886817-.4426764-.2830226-.761984-.2830226h-12.4094529l6.1829555-6.2700394c1.3933421-1.1030625 2.5834884-2.184354 3.5704391-3.2438745.9869506-1.0595206 1.7416776-2.162583 2.2641809-3.3091875.5225032-1.1466044.7837549-2.4020637.7837549-3.76637779 0-1.74167761-.3991345-3.30918745-1.1974034-4.70252954-.7982689-1.39334208-1.9884152-2.49640456-3.5704391-3.30918745-1.5820238-.81278288-3.577696-1.21917432-5.9870167-1.21917432-1.7126497 0-3.2511316.27576562-4.6154457.82729686s-2.5181755 1.28448724-3.4615842 2.19886798-1.6618507 1.95938731-2.1553261 3.13501969c-.4934753 1.17563238-.7547269 2.38754972-.7837549 3.635752 0 .23222367.0870839.43541937.2612517.60958717.1741677.1741678.3918774.2612516.6531291.2612516h3.8752326c.2612517 0 .5225033-.0725699.783755-.2177097.2612516-.1451398.4209054-.4063914.4789613-.78375489.1451398-.84181084.4136484-1.61105178.8055259-2.30772283.3918775-.69667104.9361517-1.25545927 1.6328227-1.67636469.6966711-.42090542 1.5529959-.63135813 2.5689745-.63135813 1.5384819 0 2.6633154.40639144 3.3745004 1.21917432s1.0667775 1.87230343 1.0667775 3.17856163c0 .87083879-.2685086 1.74893459-.8055259 2.63428739-.5370172.8853528-1.3933421 1.8577894-2.5689745 2.91731-1.1756323 1.0595205-2.7213712 2.3440078-4.6372166 3.8534617l-6.8796265 6.8360846c-.4644474.3773635-.761984.74747-.8926098 1.1103195s-.1959387.6749-.1959387.9361517v2.2206389c0 .2902796.1015978.5370173.3047936.740213.2031957.2031957.4499333.3047936.7402129.3047936zm29.2601834 0c.319308 0 .573303-.1015979.761984-.3047936.188682-.2031957.283023-.4499334.283023-.740213v-3.0914777c0-.3193076-.094341-.5733022-.283023-.761984-.188681-.1886817-.442676-.2830226-.761984-.2830226h-12.4094525l6.1829555-6.2700394c1.393342-1.1030625 2.583488-2.184354 3.570439-3.2438745.986951-1.0595206 1.741678-2.162583 2.264181-3.3091875.522503-1.1466044.783755-2.4020637.783755-3.76637779 0-1.74167761-.399135-3.30918745-1.197403-4.70252954-.798269-1.39334208-1.988416-2.49640456-3.57044-3.30918745-1.582023-.81278288-3.577696-1.21917432-5.987016-1.21917432-1.71265 0-3.2511319.27576562-4.615446.82729686s-2.5181755 1.28448724-3.4615842 2.19886798c-.9434088.91438074-1.6618508 1.95938731-2.1553261 3.13501969s-.7547269 2.38754972-.7837549 3.635752c0 .23222367.0870839.43541937.2612516.60958717.1741678.1741678.3918775.2612516.6531291.2612516h3.8752327c.2612516 0 .5225033-.0725699.7837549-.2177097.2612517-.1451398.4209055-.4063914.4789614-.78375489.1451398-.84181084.4136484-1.61105178.8055259-2.30772283.3918774-.69667104.9361517-1.25545927 1.6328227-1.67636469.6966711-.42090542 1.5529959-.63135813 2.5689749-.63135813 1.538481 0 2.663315.40639144 3.3745 1.21917432s1.066777 1.87230343 1.066777 3.17856163c0 .87083879-.268508 1.74893459-.805525 2.63428739-.537018.8853528-1.393342 1.8577894-2.568975 2.91731-1.175632 1.0595205-2.7213711 2.3440078-4.6372165 3.8534617l-6.8796265 6.8360846c-.4644474.3773635-.761984.74747-.8926098 1.1103195s-.1959387.6749-.1959387.9361517v2.2206389c0 .2902796.1015978.5370173.3047935.740213.2031958.2031957.4499334.3047936.740213.3047936z" fill="#fff" fill-rule="nonzero" transform="translate(230.116)"/></g></svg>