<?xml version="1.0" encoding="utf-8"?>
<!-- Generator: Adobe Illustrator 21.0.0, SVG Export Plug-In . SVG Version: 6.00 Build 0)  -->
<svg version="1.1" id="Layer_1" xmlns="http://www.w3.org/2000/svg" xmlns:xlink="http://www.w3.org/1999/xlink" x="0px" y="0px"
	 width="121px" height="40px" viewBox="0 0 121 40" style="enable-background:new 0 0 121 40;" xml:space="preserve">
<style type="text/css">
	.st0{fill:#FFFFFF;}
</style>
<g id="Page-1">
	<g id="Logo-example-4">
		<path id="Mono" class="st0" d="M22.8,25.7l-0.1-13.4l-6.5,10.9H13L6.6,12.7v13H0V0.4h5.9l8.9,14.6l8.6-14.6h5.9v25.3H22.8z
			 M47.2,26.3c-2.6,0-5.1-0.5-7.2-1.7s-3.8-2.7-5-4.7s-1.9-4.2-1.9-6.8s0.6-4.8,1.9-6.8s2.9-3.5,5-4.7S44.5,0,47.2,0
			s5.1,0.5,7.2,1.7c2.1,1.1,3.8,2.6,4.9,4.7c1.1,2,1.9,4.2,1.9,6.8s-0.6,4.8-1.9,6.8c-1.2,2-2.9,3.5-5,4.7
			C52.2,25.6,49.9,26.3,47.2,26.3z M47.2,20.4c1.2,0,2.5-0.3,3.4-0.9c1.1-0.6,1.9-1.4,2.5-2.6s0.9-2.4,0.9-3.8s-0.3-2.6-0.9-3.8
			s-1.4-1.9-2.5-2.6c-1.1-0.6-2.2-0.9-3.4-0.9s-2.5,0.3-3.4,0.9c-1.1,0.6-1.9,1.4-2.5,2.6c-0.6,1.1-0.9,2.4-0.9,3.8
			c0,1.4,0.3,2.6,0.9,3.8c0.6,1.1,1.4,1.9,2.5,2.6C44.8,20,45.9,20.4,47.2,20.4z M89.1,0.4v25.3h-5.9L72,12.2v13.5h-7V0.4h5.9
			L82,13.9V0.4H89.1z M106.9,26.3c-2.6,0-5.1-0.5-7.2-1.7c-2.1-1.1-3.8-2.7-5-4.7s-1.9-4.2-1.9-6.8s0.6-4.8,1.9-6.8s2.9-3.5,5-4.7
			c2.1-1.1,4.5-1.7,7.2-1.7c2.6,0,5.1,0.5,7.2,1.7s3.8,2.7,5,4.7s1.9,4.2,1.9,6.8s-0.6,4.8-1.9,6.8c-1.2,2-2.9,3.5-5,4.7
			C111.9,25.6,109.5,26.3,106.9,26.3z M106.9,20.4c1.2,0,2.5-0.3,3.4-0.9c1.1-0.6,1.9-1.4,2.5-2.6c0.6-1.1,0.9-2.4,0.9-3.8
			s-0.3-2.6-0.9-3.8c-0.6-1.1-1.4-1.9-2.5-2.6c-1.1-0.6-2.2-0.9-3.4-0.9s-2.5,0.3-3.4,0.9c-1.1,0.6-1.9,1.4-2.5,2.6
			c-0.6,1.1-0.9,2.4-0.9,3.8c0,1.4,0.3,2.6,0.9,3.8c0.6,1.1,1.4,1.9,2.5,2.6C104.4,20,105.6,20.4,106.9,20.4z"/>
		<path id="Brand-Tagline" class="st0" d="M5.6,35.9c0.4,0.2,0.7,0.4,1,0.7c0.3,0.4,0.4,0.7,0.4,1.1c0,0.6-0.3,1.1-0.8,1.5
			c-0.4,0.4-1.2,0.5-2.2,0.5H0.1v-7.4h3.6c0.9,0,1.6,0.2,2.1,0.5s0.7,0.8,0.7,1.4c0,0.4-0.1,0.7-0.3,1C6.1,35.6,5.8,35.8,5.6,35.9z
			 M1.8,33.7v1.8h1.7c0.4-0.1,0.8-0.1,1.1-0.3c0.2-0.2,0.4-0.4,0.4-0.6s-0.2-0.5-0.4-0.7c-0.2-0.2-0.5-0.2-1-0.2H1.8z M3.8,38.5
			c0.4,0,0.8-0.1,1.1-0.3c0.3-0.2,0.4-0.4,0.4-0.7c0-0.6-0.4-0.9-1.3-0.9H1.8v1.9H3.8z M15.2,39.8l-1.4-2h-1.6v2h-1.7v-7.4h3.2
			c0.6,0,1.2,0.1,1.7,0.4c0.4,0.3,0.9,0.5,1.1,1c0.3,0.4,0.4,0.9,0.4,1.4s-0.1,1.1-0.4,1.4c-0.3,0.4-0.6,0.7-1.1,0.9l1.7,2.4
			C17,39.8,15.2,39.8,15.2,39.8z M15.2,35.1c0-0.4-0.2-0.7-0.4-1s-0.6-0.4-1.1-0.4h-1.4v2.6h1.4c0.5,0,0.9-0.1,1.1-0.4
			C15,35.7,15.2,35.5,15.2,35.1z M25.4,38.2h-3.4l-0.6,1.6h-1.8l3.3-7.4h1.7l3.3,7.4h-1.8L25.4,38.2z M24.8,36.9l-1.1-2.8l-1.1,2.8
			H24.8z M37.7,32.4v7.4h-1.4l-3.7-4.5v4.5h-1.7v-7.4h1.4l3.7,4.5v-4.5H37.7z M41.8,32.4h3.3c0.8,0,1.5,0.2,2.1,0.4s1.1,0.7,1.4,1.3
			c0.4,0.5,0.5,1.2,0.5,1.9c0,0.7-0.2,1.4-0.5,1.9c-0.4,0.5-0.8,1-1.4,1.3c-0.6,0.3-1.3,0.4-2.1,0.4h-3.3V32.4z M45,38.4
			c0.7,0,1.3-0.2,1.8-0.6s0.7-1,0.7-1.7c0-0.7-0.2-1.2-0.7-1.7s-1.1-0.6-1.8-0.6h-1.6v4.6C43.4,38.4,45,38.4,45,38.4z M59.6,33.8
			h-2.4v-1.4h6.4v1.4h-2.4v6h-1.7C59.6,39.8,59.6,33.8,59.6,33.8z M71.4,38.2h-3.4l-0.6,1.6h-1.8l3.3-7.4h1.7l3.3,7.4h-1.8
			L71.4,38.2z M70.8,36.9l-1.1-2.8l-1.1,2.8H70.8z M81.8,36h1.6v3c-0.4,0.3-0.9,0.5-1.4,0.7S80.9,40,80.4,40c-0.8,0-1.5-0.2-2.1-0.5
			c-0.6-0.4-1.1-0.8-1.4-1.3c-0.4-0.6-0.5-1.2-0.5-1.9c0-0.7,0.2-1.4,0.5-1.9s0.8-1.1,1.5-1.3s1.3-0.5,2.1-0.5
			c0.6,0,1.2,0.1,1.8,0.4c0.5,0.2,1,0.5,1.3,1l-1.1,1.1c-0.5-0.5-1.1-0.8-1.9-0.8c-0.4,0-0.9,0.1-1.2,0.3s-0.6,0.4-0.9,0.8
			s-0.3,0.8-0.3,1.2s0.1,0.9,0.3,1.2c0.2,0.4,0.5,0.6,0.9,0.9c0.4,0.2,0.8,0.3,1.2,0.3c0.5,0,1-0.1,1.3-0.4L81.8,36L81.8,36z
			 M87.2,32.4h1.7v6h3.7v1.4h-5.5L87.2,32.4L87.2,32.4z M95.9,32.4h1.7v7.4h-1.7V32.4z M108.5,32.4v7.4H107l-3.7-4.5v4.5h-1.7v-7.4
			h1.4l3.7,4.5v-4.5H108.5z M118.2,38.4v1.4h-5.7v-7.4h5.6v1.4h-3.9v1.6h3.4v1.3h-3.4v1.7H118.2z"/>
	</g>
</g>
</svg>
