<?xml version="1.0" encoding="utf-8"?>
<!-- Generator: Adobe Illustrator 21.0.0, SVG Export Plug-In . SVG Version: 6.00 Build 0)  -->
<svg version="1.1" id="Layer_1" xmlns="http://www.w3.org/2000/svg" xmlns:xlink="http://www.w3.org/1999/xlink" x="0px" y="0px"
	 width="77.8px" height="40px" viewBox="0 0 77.8 40" style="enable-background:new 0 0 77.8 40;" xml:space="preserve">
<style type="text/css">
	.st0{fill:#FFFFFF;}
</style>
<g id="Page-1">
	<g id="Logo-example-3">
		<path id="MONOGRAMS" class="st0" d="M0.2,39.9c-0.1,0-0.2,0-0.2-0.1C0,39.8,0,39.8,0,39.7v-6.9c0-0.1,0-0.2,0.1-0.2
			c0.1-0.1,0.1-0.1,0.2-0.1h0.9c0.2,0,0.2,0.1,0.3,0.2l2,3.8l2-3.8c0.1-0.2,0.2-0.2,0.3-0.2h0.8c0.1,0,0.2,0,0.2,0.1
			c0.1,0.1,0.1,0.1,0.1,0.2v6.9c0,0.1,0,0.2-0.1,0.2c0,0.1-0.1,0.1-0.2,0.1H5.8c-0.1,0-0.2,0-0.2-0.1c-0.1-0.1-0.1-0.1-0.1-0.2v-4.5
			l-1.5,2.8c-0.1,0.2-0.2,0.2-0.3,0.2H3.2c-0.2,0-0.2-0.1-0.3-0.2l-1.5-2.8v4.5c0,0.1,0,0.2-0.1,0.2c-0.1,0.1-0.2,0.1-0.2,0.1H0.2z
			 M12.8,40c-1,0-1.7-0.2-2.3-0.7c-0.6-0.5-0.8-1.2-0.8-2.2c0-0.2,0-0.5,0-0.9c0-0.4,0-0.7,0-0.9c0-1,0.3-1.6,0.9-2.2
			s1.3-0.7,2.2-0.7c0.9,0,1.7,0.2,2.2,0.7c0.6,0.5,0.8,1.2,0.9,2.2c0,0.4,0,0.7,0,0.9c0,0.2,0,0.5,0,0.9c0,1-0.3,1.7-0.8,2.2
			C14.5,39.8,13.7,40,12.8,40z M12.8,38.8c0.5,0,0.8-0.2,1.1-0.4c0.2-0.2,0.4-0.7,0.4-1.3c0-0.4,0-0.7,0-0.9c0-0.2,0-0.5,0-0.9
			c0-0.6-0.2-1-0.5-1.3c-0.3-0.3-0.6-0.4-1.1-0.4s-0.8,0.2-1.1,0.4c-0.2,0.3-0.4,0.7-0.4,1.3c0,0.2,0,0.5,0,0.9c0,0.3,0,0.6,0,0.9
			c0,0.6,0.2,1,0.4,1.3C11.9,38.6,12.3,38.8,12.8,38.8z M18.9,39.9c-0.1,0-0.2,0-0.2-0.1c-0.1-0.1-0.1-0.1-0.1-0.2v-6.9
			c0-0.1,0-0.2,0.1-0.2c0.1-0.1,0.1-0.1,0.2-0.1h0.8c0.2,0,0.2,0.1,0.3,0.2l3,4.7v-4.6c0-0.1,0-0.2,0.1-0.2c0.1-0.1,0.1-0.1,0.2-0.1
			h0.9c0.1,0,0.2,0,0.2,0.1c0.1,0.1,0.1,0.1,0.1,0.2v6.9c0,0.1,0,0.2-0.1,0.2c0,0.1-0.1,0.1-0.1,0.1h-0.8c-0.2,0-0.2-0.1-0.3-0.2
			l-3-4.5v4.5c0,0.1,0,0.2-0.1,0.2c-0.1,0-0.2,0-0.2,0H18.9z M30.3,40c-1,0-1.7-0.2-2.3-0.7c-0.6-0.5-0.8-1.2-0.8-2.2
			c0-0.2,0-0.5,0-0.9c0-0.4,0-0.7,0-0.9c0-1,0.3-1.6,0.9-2.2s1.3-0.7,2.2-0.7c0.9,0,1.7,0.2,2.2,0.7c0.5,0.5,0.8,1.2,0.9,2.2
			c0,0.4,0,0.7,0,0.9c0,0.2,0,0.5,0,0.9c0,1-0.3,1.7-0.8,2.2C32,39.8,31.3,40,30.3,40z M30.3,38.8c0.5,0,0.8-0.2,1.1-0.4
			s0.4-0.7,0.4-1.3c0-0.4,0-0.7,0-0.9c0-0.2,0-0.5,0-0.9c0-0.6-0.2-1-0.5-1.3c-0.2-0.3-0.6-0.4-1.1-0.4c-0.5,0-0.8,0.2-1.1,0.4
			c-0.3,0.2-0.4,0.7-0.4,1.3c0,0.2,0,0.5,0,0.9c0,0.3,0,0.6,0,0.9c0,0.6,0.2,1,0.4,1.3C29.4,38.7,29.9,38.8,30.3,38.8z M39.1,40
			c-1,0-1.7-0.2-2.3-0.7s-0.8-1.2-0.9-2.1c0-0.2,0-0.6,0-1c0-0.4,0-0.8,0-1c0-0.9,0.3-1.5,0.9-2c0.6-0.5,1.3-0.7,2.3-0.7
			c0.6,0,1.2,0.1,1.7,0.3c0.5,0.2,0.8,0.5,1.1,0.8c0.2,0.3,0.4,0.6,0.4,1c0,0.1,0,0.1-0.1,0.2c-0.1,0.1-0.1,0.1-0.2,0.1h-1.1
			c-0.1,0-0.2,0-0.2-0.1c0,0-0.1-0.1-0.1-0.2c-0.1-0.2-0.2-0.5-0.5-0.6c-0.2-0.2-0.6-0.2-1-0.2c-0.5,0-0.9,0.2-1.1,0.4
			c-0.2,0.2-0.4,0.6-0.4,1.2c0,0.2,0,0.5,0,0.9c0,0.4,0,0.7,0,0.9c0,0.6,0.2,1,0.4,1.3c0.2,0.2,0.6,0.4,1.1,0.4
			c0.5,0,0.9-0.2,1.2-0.4c0.3-0.2,0.5-0.6,0.5-1.2v-0.3h-1.5c-0.1,0-0.2,0-0.2-0.1c-0.1-0.1-0.1-0.1-0.1-0.2V36c0-0.1,0-0.2,0.1-0.2
			c0.1-0.1,0.1-0.1,0.2-0.1h2.5c0.1,0,0.2,0,0.2,0.1c0.1,0.1,0.1,0.1,0.1,0.2v1.1c0,0.6-0.2,1.1-0.4,1.5c-0.2,0.4-0.6,0.7-1.1,1
			C40.2,39.9,39.8,40,39.1,40z M45.2,39.9c-0.1,0-0.2,0-0.2-0.1c-0.1-0.1-0.1-0.1-0.1-0.2v-6.9c0-0.1,0-0.2,0.1-0.2
			c0.1-0.1,0.1-0.1,0.2-0.1H48c0.9,0,1.5,0.2,2,0.6c0.5,0.4,0.7,1,0.7,1.7c0,0.5-0.2,1-0.4,1.3c-0.2,0.3-0.6,0.6-1.1,0.7l1.5,2.7
			c0,0.1,0,0.1,0,0.1c0,0.1,0,0.1-0.1,0.2c0.1,0.2,0,0.2-0.1,0.2h-1c-0.1,0-0.2,0-0.2-0.1s-0.1-0.1-0.2-0.2l-1.4-2.5h-1.5v2.5
			c0,0.1,0,0.2-0.1,0.2c0,0.2-0.1,0.2-0.2,0.2H45.2z M48,35.9c0.4,0,0.7-0.1,1-0.2c0.2-0.2,0.3-0.5,0.3-0.8c0-0.3-0.1-0.6-0.3-0.8
			c-0.2-0.2-0.5-0.3-1-0.3h-1.5v2.2H48z M53,39.9c-0.1,0-0.1,0-0.2-0.1s-0.1-0.1-0.1-0.2v-0.1l2.5-6.8c0.1-0.2,0.2-0.2,0.4-0.2h1.1
			c0.2,0,0.3,0.1,0.4,0.2l2.5,6.8v0.1c0,0.1,0,0.1-0.1,0.2c0.1,0.1,0,0.1-0.1,0.1h-1c-0.2,0-0.2-0.1-0.3-0.2l-0.5-1.3h-3.1l-0.5,1.3
			c-0.1,0.2-0.2,0.2-0.3,0.2H53z M55.1,37.2h2.4L56.2,34L55.1,37.2z M62.4,39.9c-0.1,0-0.2,0-0.2-0.1c-0.1-0.1-0.1-0.1-0.1-0.2v-6.9
			c0-0.1,0-0.2,0.1-0.2c0.1-0.1,0.1-0.1,0.2-0.1h0.9c0.2,0,0.2,0.1,0.3,0.2l2,3.8l2-3.8c0.1-0.2,0.2-0.2,0.3-0.2h0.8
			c0.1,0,0.2,0,0.2,0.1c0.1,0.1,0.1,0.1,0.1,0.2v6.9c0,0.1,0,0.2-0.1,0.2c0,0.1-0.1,0.1-0.2,0.1h-0.9c-0.1,0-0.2,0-0.2-0.1
			c-0.1-0.1-0.1-0.1-0.1-0.2v-4.5l-1.5,2.8c-0.1,0.2-0.2,0.2-0.3,0.2h-0.5c-0.2,0-0.2-0.1-0.3-0.2l-1.5-2.8v4.5c0,0.1,0,0.2-0.1,0.2
			c-0.1,0.1-0.2,0.1-0.2,0.1H62.4z M74.6,40c-0.6,0-1.1-0.1-1.6-0.3c-0.5-0.2-0.8-0.4-1.1-0.7c-0.2-0.3-0.3-0.6-0.4-1
			c0-0.1,0-0.1,0.1-0.2c0.1-0.1,0.1-0.1,0.2-0.1h1c0.1,0,0.2,0,0.2,0.1c0.1,0,0.1,0.1,0.2,0.2c0.1,0.2,0.2,0.4,0.5,0.6
			s0.6,0.2,1.1,0.2s0.9-0.1,1.1-0.2c0.2-0.2,0.4-0.4,0.4-0.6c0-0.2-0.1-0.3-0.2-0.5c-0.2-0.2-0.3-0.2-0.6-0.3
			c-0.2-0.1-0.6-0.2-1.1-0.3c-0.8-0.2-1.5-0.5-1.8-0.8c-0.4-0.3-0.6-0.8-0.6-1.4c0-0.4,0.1-0.8,0.3-1.1c0.2-0.3,0.6-0.6,1-0.7
			c0.4-0.2,0.9-0.2,1.5-0.2s1.1,0.1,1.5,0.3c0.4,0.2,0.7,0.5,1,0.7c0.2,0.3,0.3,0.6,0.3,0.9c0,0.1,0,0.1-0.1,0.2
			c-0.1,0.1-0.1,0.1-0.2,0.1h-1c-0.2,0-0.2-0.1-0.3-0.2c0-0.2-0.2-0.4-0.4-0.6c-0.2-0.2-0.6-0.2-0.9-0.2c-0.4,0-0.7,0.1-0.9,0.2
			c-0.2,0.2-0.3,0.3-0.3,0.6c0,0.2,0.1,0.3,0.2,0.5c0.1,0.2,0.3,0.2,0.6,0.3c0.2,0.1,0.6,0.2,1.1,0.3c0.6,0.2,1.1,0.3,1.5,0.5
			c0.3,0.2,0.6,0.4,0.8,0.6c0.2,0.2,0.2,0.6,0.2,1.1c0,0.5-0.2,0.9-0.4,1.2c-0.2,0.3-0.6,0.6-1.1,0.7C75.8,39.9,75.3,40,74.6,40z"/>
		<g id="Group-2" transform="translate(1.000000, 0.000000)">
			<polyline id="Fill-12" class="st0" points="22.4,26.5 30.1,26.5 18.6,0 11,0 22.4,26.5 			"/>
			<polyline id="Fill-14" class="st0" points="7.1,26.5 -0.5,26.5 10.9,0 18.6,0 7.1,26.5 			"/>
			<polyline id="Fill-15" class="st0" points="45.5,26.5 53.1,26.5 41.7,0 34.1,0 45.5,26.5 			"/>
			<polyline id="Fill-17" class="st0" points="30.2,26.5 22.5,26.5 34,0 41.6,0 30.2,26.5 			"/>
			<polyline id="Fill-18" class="st0" points="68.5,26.5 76.1,26.5 64.6,0 57,0 68.5,26.5 			"/>
			<polyline id="Fill-20" class="st0" points="53.1,26.5 45.5,26.5 56.9,0 64.6,0 53.1,26.5 			"/>
		</g>
	</g>
</g>
</svg>
