<?xml version="1.0" encoding="utf-8"?>
<!-- Generator: Adobe Illustrator 21.0.0, SVG Export Plug-In . SVG Version: 6.00 Build 0)  -->
<svg version="1.1" id="Layer_1" xmlns="http://www.w3.org/2000/svg" xmlns:xlink="http://www.w3.org/1999/xlink" x="0px" y="0px"
	 width="172.8px" height="40px" viewBox="0 0 172.8 40" style="enable-background:new 0 0 172.8 40;" xml:space="preserve">
<style type="text/css">
	.st0{fill:#FFFFFF;}
</style>
<g id="Page-1">
	<g id="Logo-example-8">
		<g id="Group-12">
			<path id="Combined-Shape" class="st0" d="M0,3.1c0-3.4,5.8-4.3,6.5-0.8c1.9,11.1,1.8,23,0.8,34.2c-0.3,3.7-6,3.7-6.1-0.1
				C0.9,25.3,0.1,14.2,0,3.1z M16,2.8c0.1-3.2,5.3-4,5.9-0.7c2.2,11.4,2.3,23.8,1.8,35.4c-0.2,3.5-5.3,3.3-5.6-0.1
				C17,26.1,15.8,14.2,16,2.8z M32.2,3.7c0.2-3.1,5.9-4.1,6.6-0.7c1.8,9.4,1.4,20.2-0.3,29.6c-0.6,3.1-5.8,2.1-6-0.8
				C32.2,22.6,31.7,12.9,32.2,3.7z"/>
		</g>
		<g id="Group-13" transform="translate(64.000000, 5.000000)">
			<path id="Fill-162" class="st0" d="M-5.8,3.5c-0.8,0-1.7,0-2.5,0c0,3.1,0,6.3,0,9.4c2.9,0,6.1-0.2,6.9-3.6
				C-0.6,6.4-2.8,3.6-5.8,3.5z M0.2,1.4c3,2.8,3.8,7.4,2,11c-3,5.8-9.5,4.9-15,4.9c0-6.1,0-12.2,0-18.3h4.6C-5.1-1-2.2-0.8,0.2,1.4z
				"/>
			<polygon id="Fill-163" class="st0" points="4.8,16.6 9.6,16.6 9.6,-1 4.8,-1 			"/>
			<path id="Fill-164" class="st0" d="M19.4,2.6c-0.2,0-1.1,0-4.2,0v3.8h4.2c1-0.1,1.7-0.9,1.7-1.9C21.1,3.5,20.4,2.7,19.4,2.6z
				 M25.6,16.6h-4.5L18.3,10h-2.9v6.6h-4.2V-1h8.4c3,0,5.5,2.5,5.5,5.4c0,1.9-1,3.6-2.5,4.6L25.6,16.6z"/>
			<polyline id="Fill-165" class="st0" points="40.8,16.6 28,16.6 28,-1 40.5,-1 40.5,2.9 32.8,2.9 32.8,5.9 39.3,5.9 39.3,9.7 
				32.8,9.7 32.8,12.8 40.8,12.8 40.8,16.6 			"/>
			<path id="Fill-166" class="st0" d="M55.2,11.6l3.2,3.1c-1.7,1.7-4,2.7-6.6,2.7c-5.2,0-9.4-4.1-9.4-9.2S46.5-1,51.7-1
				c2.6,0,5,1,6.6,2.7l-3.2,3.1c-0.9-0.9-2.1-1.4-3.4-1.4c-2.6,0-4.8,2.2-4.8,4.8c0,2.6,2.2,4.7,4.8,4.7
				C53.1,12.9,54.3,12.5,55.2,11.6"/>
			<polyline id="Fill-167" class="st0" points="72.8,3.5 68.2,3.5 68.2,16.6 63.7,16.6 63.7,3.5 59.2,3.5 59.2,-1 72.8,-1 72.8,3.5 
							"/>
			<path id="Fill-168" class="st0" d="M88.3,8.2c0-2.6-2.2-4.8-4.7-4.7c-2.6,0-4.8,2.2-4.8,4.8c0,2.6,2.2,4.7,4.8,4.7
				C86.2,12.9,88.3,10.9,88.3,8.2z M92.8,8.2c0,5-4.1,9.2-9.2,9.2c-5.1,0-9.2-4.1-9.2-9.2S78.5-1,83.6-1C88.7-1,92.8,3.1,92.8,8.2z"
				/>
			<path id="Fill-169" class="st0" d="M102.6,2.6c-0.2,0-1.1,0-4.2,0v3.8h4.2c1-0.1,1.7-0.9,1.7-1.9C104.3,3.5,103.6,2.7,102.6,2.6z
				 M108.8,16.6h-4.5l-2.8-6.6h-2.9v6.6h-4.2V-1h8.4c3,0,5.5,2.5,5.5,5.4c0,1.9-1,3.6-2.5,4.6L108.8,16.6z"/>
		</g>
		<path id="Brand-Tagline" class="st0" d="M52.2,36c-0.1,0-0.1,0-0.2-0.1c-0.1-0.1-0.1-0.1-0.1-0.2v-6.2c0-0.1,0-0.2,0.1-0.2
			c0.1-0.1,0.1-0.1,0.2-0.1H55c0.7,0,1.3,0.2,1.7,0.5c0.4,0.3,0.6,0.8,0.6,1.4c0,0.3-0.1,0.6-0.2,0.9c-0.2,0.2-0.3,0.4-0.6,0.5
			c0.2,0.2,0.5,0.3,0.7,0.6c0.2,0.2,0.2,0.6,0.2,1c0,0.6-0.2,1-0.6,1.4S55.8,36,55,36H52.2z M54.8,32c0.3,0,0.6-0.1,0.7-0.2
			c0.2-0.2,0.2-0.4,0.2-0.6c0-0.2-0.1-0.5-0.2-0.6c-0.2-0.2-0.4-0.2-0.7-0.2h-1.5V32L54.8,32z M54.9,35c0.3,0,0.6-0.1,0.8-0.2
			c0.2-0.2,0.2-0.4,0.2-0.7s-0.1-0.5-0.3-0.7c-0.2-0.2-0.5-0.2-0.8-0.2h-1.6V35H54.9z M59.6,36c-0.1,0-0.1,0-0.2-0.1
			s-0.1-0.1-0.1-0.2v-6.2c0-0.1,0-0.2,0.1-0.2c0.1-0.1,0.1-0.1,0.2-0.1h2.5c0.8,0,1.4,0.2,1.8,0.6c0.5,0.4,0.6,0.9,0.6,1.5
			c0,0.5-0.1,0.9-0.3,1.2s-0.6,0.6-1,0.7l1.4,2.5v0.1c0,0.1,0,0.1-0.1,0.2c-0.1,0.1,0,0,0,0h-0.9c-0.1,0-0.2,0-0.2-0.1
			c-0.1-0.1-0.1-0.1-0.2-0.2l-1.2-2.2h-1.3v2.3c0,0.1,0,0.1-0.1,0.2c-0.1,0.1-0.2,0-0.2,0H59.6z M62,32.4c0.4,0,0.6-0.1,0.9-0.2
			c0.2-0.2,0.3-0.4,0.3-0.7s-0.1-0.6-0.3-0.7s-0.5-0.2-0.9-0.2h-1.4v2L62,32.4z M66.2,36c-0.1,0-0.1,0-0.2-0.1c0,0-0.1-0.1-0.1-0.2
			v-0.1l2.3-6.2c0.1-0.2,0.2-0.2,0.3-0.2h1c0.2,0,0.3,0.1,0.3,0.2l2.3,6.2v0.1c0,0.1,0,0.1-0.1,0.2c-0.1,0-0.1,0.1-0.2,0.1h-0.9
			C71,36,71,35.9,71,35.9l-0.5-1.2h-2.9l-0.5,1.2c0.2,0.1,0.1,0.2-0.1,0.2H66.2z M68.1,33.5h2.2l-1.1-3L68.1,33.5z M74.3,36
			c-0.1,0-0.1,0-0.2-0.1c-0.1-0.1-0.1-0.1-0.1-0.2v-6.2c0-0.1,0-0.2,0.1-0.2c0.1-0.1,0.1-0.1,0.2-0.1H75c0.2,0,0.2,0.1,0.2,0.2
			l2.7,4.2v-4.2c0-0.1,0-0.2,0.1-0.2c0.1,0,0.1-0.1,0.2-0.1H79c0.1,0,0.2,0,0.2,0.1c0.1,0.1,0.1,0.1,0.1,0.2v6.2
			c0,0.1,0,0.2-0.1,0.2c0.1,0.1,0,0.1-0.1,0.1h-0.7c-0.2,0-0.2-0.1-0.3-0.2l-2.7-4.2v4.1c0,0.1,0,0.1-0.1,0.2c0,0.1-0.1,0.1-0.2,0.1
			H74.3z M81.9,36c-0.1,0-0.1,0-0.2-0.1c-0.1-0.1-0.1-0.1-0.1-0.2v-6.2c0-0.1,0-0.2,0.1-0.2c0.1-0.1,0.1-0.1,0.2-0.1h2.3
			c1.9,0,2.9,0.9,2.9,2.6c0,0.4,0,0.6,0,0.7c0,0.2,0,0.4,0,0.7c0,0.9-0.2,1.5-0.7,2c-0.5,0.4-1.2,0.6-2.1,0.6H81.9z M84.2,34.9
			c0.6,0,0.9-0.1,1.1-0.3c0.2-0.2,0.4-0.6,0.4-1.2c0-0.4,0-0.6,0-0.7s0-0.3,0-0.7c0-0.6-0.2-0.9-0.4-1.1c-0.2-0.2-0.6-0.4-1.2-0.4
			H83v4.5L84.2,34.9z M93.7,36c-0.1,0-0.1,0-0.2-0.1c-0.1-0.1-0.1-0.1-0.1-0.2v-5.3h-1.8c-0.1,0-0.1,0-0.2-0.1
			c-0.1-0.1-0.1-0.1-0.1-0.2v-0.7c0-0.1,0-0.2,0.1-0.2c0.1-0.1,0.1-0.1,0.2-0.1h4.9c0.1,0,0.2,0,0.2,0.1c0.1,0.1,0.1,0.1,0.1,0.2
			v0.7c0,0.1,0,0.2-0.1,0.2c-0.1,0.1-0.1,0.1-0.2,0.1h-1.8v5.3c0,0.1,0,0.1-0.1,0.2C94.6,36,94.6,36,94.5,36H93.7z M97.4,36
			c-0.1,0-0.1,0-0.2-0.1c0,0-0.1-0.1-0.1-0.2v-0.1l2.3-6.2c0.1-0.2,0.2-0.2,0.3-0.2h1c0.2,0,0.3,0.1,0.3,0.2l2.3,6.2v0.1
			c0,0.1,0,0.1-0.1,0.2c-0.1,0-0.1,0.1-0.2,0.1h-0.9c-0.2,0-0.2-0.1-0.2-0.2l-0.5-1.2h-2.9l-0.5,1.2C98.2,36,98.1,36,98.1,36H97.4z
			 M99.3,33.5h2.2l-1.1-3L99.3,33.5z M107.8,36.1c-0.9,0-1.6-0.2-2.1-0.7s-0.7-1.1-0.8-1.9c0-0.2,0-0.5,0-0.9s0-0.7,0-0.9
			c0-0.8,0.3-1.4,0.8-1.8c0.5-0.5,1.2-0.6,2.1-0.6c0.6,0,1.1,0.1,1.5,0.3c0.4,0.2,0.7,0.5,1,0.7c0.2,0.3,0.3,0.6,0.3,0.9
			c0,0.1,0,0.1-0.1,0.2c0,0-0.1,0.1-0.2,0.1h-1c-0.1,0-0.1,0-0.2,0c0,0-0.1-0.1-0.1-0.2c-0.1-0.2-0.2-0.4-0.5-0.6
			c-0.2-0.2-0.6-0.2-0.9-0.2c-0.5,0-0.8,0.2-1,0.4c-0.2,0.2-0.4,0.6-0.4,1.1c0,0.2,0,0.5,0,0.9s0,0.6,0,0.9c0,0.5,0.2,0.9,0.4,1.1
			c0.2,0.2,0.6,0.4,1,0.4c0.5,0,0.8-0.2,1.1-0.4c0.2-0.2,0.4-0.6,0.4-1.1v-0.3h-1.2c-0.1,0-0.1,0-0.2-0.1c-0.1-0.1-0.1-0.1-0.1-0.2
			v-0.6c0-0.1,0-0.1,0.1-0.2c0.1-0.1,0.1-0.1,0.2-0.1h2.3c0.1,0,0.2,0,0.2,0.1c0.1,0.1,0.1,0.1,0.1,0.2v1c0,0.6-0.1,1-0.3,1.4
			c-0.2,0.4-0.6,0.7-1,0.9C108.9,36,108.4,36.1,107.8,36.1z M112.9,36c-0.1,0-0.1,0-0.2-0.1c-0.1-0.1-0.1-0.1-0.1-0.2v-6.2
			c0-0.1,0-0.2,0.1-0.2c0.1-0.1,0.1-0.1,0.2-0.1h0.9c0.1,0,0.2,0,0.2,0.1c0.1,0.1,0.1,0.1,0.1,0.2v5.4h3c0.1,0,0.2,0,0.2,0.1
			c0.1,0.1,0.1,0.1,0.1,0.2v0.7c0,0.1,0,0.1-0.1,0.2s-0.1,0.1-0.2,0.1L112.9,36z M119.3,36c-0.1,0-0.1,0-0.2-0.1
			c-0.1-0.1-0.1-0.1-0.1-0.2v-6.2c0-0.1,0-0.2,0.1-0.2c0.1-0.1,0.1-0.1,0.2-0.1h1c0.1,0,0.2,0,0.2,0.1c0.1,0.1,0.1,0.1,0.1,0.2v6.2
			c0,0.1,0,0.1-0.1,0.2c-0.1,0.1-0.1,0.1-0.2,0.1H119.3z M123,36c-0.1,0-0.1,0-0.2-0.1c-0.1-0.1-0.1-0.1-0.1-0.2v-6.2
			c0-0.1,0-0.2,0.1-0.2c0.1-0.1,0.1-0.1,0.2-0.1h0.7c0.2,0,0.2,0.1,0.2,0.2l2.7,4.2v-4.2c0-0.1,0-0.2,0.1-0.2
			c0.1-0.1,0.1-0.1,0.2-0.1h0.8c0.1,0,0.2,0,0.2,0.1c0.1,0.1,0.1,0.1,0.1,0.2v6.2c0,0.1,0,0.2-0.1,0.2c-0.1,0.1-0.1,0.1-0.2,0.1H127
			c-0.2,0-0.2-0.1-0.3-0.2l-2.7-4.2v4.1c0,0.1,0,0.1-0.1,0.2c-0.1,0.1-0.1,0.1-0.2,0.1L123,36z M130.6,36c-0.1,0-0.1,0-0.2-0.1
			s-0.1-0.1-0.1-0.2v-6.2c0-0.1,0-0.2,0.1-0.2c0.1-0.1,0.1-0.1,0.2-0.1h4.2c0.1,0,0.2,0,0.2,0.1c0.1,0.1,0.1,0.1,0.1,0.2v0.6
			c0,0.1,0,0.2-0.1,0.2c-0.1,0.1-0.1,0.1-0.2,0.1h-3.1v1.7h3c0.1,0,0.2,0,0.2,0.1c0.1,0.1,0.1,0.1,0.1,0.2V33c0,0.1,0,0.2-0.1,0.2
			c-0.1,0.1-0.1,0.1-0.2,0.1h-3V35h3.2c0.1,0,0.2,0,0.2,0.1c0.1,0.1,0.1,0.1,0.1,0.2v0.6c0,0.1,0,0.2-0.1,0.2
			c-0.1,0.1-0.1,0.1-0.2,0.1L130.6,36z"/>
	</g>
</g>
</svg>
