<?xml version="1.0" encoding="utf-8"?>
<!-- Generator: Adobe Illustrator 21.0.0, SVG Export Plug-In . SVG Version: 6.00 Build 0)  -->
<svg version="1.1" id="Layer_1" xmlns="http://www.w3.org/2000/svg" xmlns:xlink="http://www.w3.org/1999/xlink" x="0px" y="0px"
	 width="108.8px" height="40px" viewBox="0 0 108.8 40" style="enable-background:new 0 0 108.8 40;" xml:space="preserve">
<style type="text/css">
	.st0{fill:#FFFFFF;}
</style>
<g id="Page-1">
	<g id="Logo-example-6">
		<polyline id="Fill-170" class="st0" points="29.2,40 43.9,40 29.2,0 14.6,0 0,40 7.3,40 4.2,31.5 15.2,1.5 29.2,40 		"/>
		<path id="Brand-Name" class="st0" d="M61.1,12.4c0.6,0.2,1,0.5,1.4,1c0.3,0.4,0.5,1,0.5,1.5c0,0.9-0.3,1.6-1,2.1
			c-0.7,0.5-1.8,0.7-3.1,0.7h-5.5V7.6h5.2c1.3,0,2.3,0.2,3,0.7c0.6,0.5,1,1.1,1,1.9c0,0.5-0.1,0.9-0.3,1.3
			C61.9,11.9,61.6,12.2,61.1,12.4z M56.2,9.7v1.9h1.9c1,0,1.4-0.3,1.4-1s-0.5-1-1.4-1H56.2z M58.6,15.6c1,0,1.5-0.3,1.5-1
			c0-0.7-0.5-1-1.5-1h-2.4v2.1C56.2,15.6,58.6,15.6,58.6,15.6z M68.9,15.1h-1.5v2.7h-2.9V7.6h4.7c0.9,0,1.7,0.2,2.4,0.5
			c0.7,0.3,1.2,0.7,1.5,1.3c0.3,0.6,0.6,1.2,0.6,2c0,0.7-0.2,1.4-0.5,1.9c-0.3,0.6-0.8,1-1.4,1.3l2.2,3.2h-3.1L68.9,15.1z
			 M70.7,11.3c0-0.5-0.2-0.8-0.5-1.1c-0.3-0.2-0.7-0.4-1.4-0.4h-1.6v3h1.6c0.6,0,1-0.2,1.4-0.4C70.6,12.2,70.7,11.8,70.7,11.3z
			 M82,15.8h-4.3l-0.8,1.9H74l4.5-10.1h2.8l4.5,10.1h-3L82,15.8z M81.1,13.6l-1.3-3.2l-1.3,3.2H81.1z M96.3,7.6v10.1h-2.3l-4.5-5.4
			v5.4h-2.8V7.6h2.3l4.5,5.4V7.6H96.3z M98.3,7.6h4.8c1.1,0,2.1,0.2,3,0.6c0.9,0.4,1.5,1,2,1.8c0.5,0.8,0.7,1.7,0.7,2.7
			s-0.2,1.9-0.7,2.7c-0.5,0.7-1.1,1.4-2,1.8c-0.9,0.4-1.9,0.6-3,0.6h-4.8C98.3,17.7,98.3,7.6,98.3,7.6z M102.9,15.5
			c0.9,0,1.5-0.2,2.1-0.7s0.8-1.2,0.8-2c0-0.8-0.2-1.5-0.8-2s-1.2-0.7-2.1-0.7h-1.9v5.6L102.9,15.5L102.9,15.5z M62.7,22.9V33h-1.5
			l-5.6-6.8V33h-1.9V22.9h1.5l5.6,6.8v-6.8C60.8,22.9,62.7,22.9,62.7,22.9z M72,30.7h-5.1l-1,2.3H64l4.6-10.1h1.9L75,33h-1.9
			L72,30.7z M71.4,29.1l-1.9-4.4l-1.9,4.4H71.4z M85.6,33v-6.8l-3.3,5.6h-0.8l-3.4-5.4V33h-1.8V22.9h1.5l4,6.8l3.9-6.8h1.5V33H85.6z
			 M97.7,31.4V33h-7.6V22.9h7.4v1.6H92v2.7h4.9v1.5H92v2.7H97.7z"/>
	</g>
</g>
</svg>
