<?xml version="1.0" encoding="utf-8"?>
<!-- Generator: Adobe Illustrator 21.0.0, SVG Export Plug-In . SVG Version: 6.00 Build 0)  -->
<svg version="1.1" id="Layer_1" xmlns="http://www.w3.org/2000/svg" xmlns:xlink="http://www.w3.org/1999/xlink" x="0px" y="0px"
	 width="67px" height="50px" viewBox="0 0 67 50" style="enable-background:new 0 0 67 50;" xml:space="preserve">
<style type="text/css">
	.st0{fill:#2C396B;}
</style>
<g id="Page-1">
	<path id="Logo-example-7-small" class="st0" d="M20.3,6.3c0.2,0.2,0.5,0.5,0.7,0.7c0,0,0,0.1,0.1,0.1c-1.3,3.5-2.6,6.9-3.8,10.4
		c-1.7,4.5-3.4,9.1-5,13.6c-1.8,4.9-4.3,10.1-0.9,15.1c0.4,0.5,0.7,0.9,1.2,1.3c0.7,0.7,1.5,1.2,2.3,1.7c0.2,0.1,0.7,0.5,1,0.5
		c0,0-5.8,0-10.4,0H4.4c-2.5,0-4.4,0-4.4,0c1.5-1.5,2.9-3.2,4.2-4.9c0.9-1.2,1.7-2.4,2.5-3.6c1.7-2.8,2.9-5.7,4-8.7
		c1.6-4.4,3.2-8.7,4.8-13.1C17.1,15,18.7,10.7,20.3,6.3z M28.3,28.6c0,2.8-2.2,5-5,5s-5-2.2-5-5c0-2.8,2.2-5,5-5
		S28.3,25.8,28.3,28.6z M57.9,42.5c2.6,3,5.7,5.4,9.2,7.3H40.8c0,0-13.2,0-13.2,0c0.4,0,1.5-1.1,1.8-1.4c0.6-0.5,1.1-1,1.7-1.5
		c0.9-0.9,1.7-1.8,2.5-2.8c1.4-2,2.6-4,2.4-6.6c-0.1-1.9-1-3.5-1.6-5.2c-0.7-1.9-1.4-3.9-2.1-5.8c-1.4-3.7-2.7-7.5-4.1-11.2
		c-0.3-0.8-0.7-1.6-1-2.4c-0.9-2-2-3.9-3.5-5.6c-2.6-3-5.7-5.4-9.2-7.3h26.3c0.1,0.3,0.2,0.5,0.3,0.8c2.2,6,4.4,12.1,6.6,18.1
		c1.3,3.6,2.7,7.3,4,10.9c0.9,2.4,1.7,4.8,2.8,7.1C55.3,38.9,56.4,40.8,57.9,42.5z"/>
</g>
</svg>
