<svg width="1231" height="740" xmlns="http://www.w3.org/2000/svg"><path d="M178.262 163.32H66.738v70.899h131.446V285H.527V.625h198.047v50.781H66.738v61.133h111.524v50.781zm222.976 66.407H311.59L295.574 285h-66.406L320.965.625h70.898L483.855 285H417.45l-16.21-55.273zm-75-50.782h60.352L356.902 77.188h-1.172l-29.492 101.757zm265.946-2.93V285h-66.211V.625h109.375c32.943 0 59.049 7.617 78.32 22.852 19.27 15.234 28.906 36.067 28.906 62.5 0 14.713-3.873 27.343-11.62 37.89-7.748 10.547-19.174 19.14-34.278 25.781 17.448 4.948 29.98 13.184 37.597 24.707 7.618 11.524 11.426 25.88 11.426 43.067v17.969c0 7.422 1.107 15.885 3.32 25.39 2.214 9.506 6.055 16.276 11.524 20.313V285h-67.969c-5.208-4.036-8.626-11.198-10.254-21.484-1.627-10.287-2.441-19.792-2.441-28.516v-17.188c0-13.541-3.58-23.893-10.742-31.054-7.162-7.162-17.643-10.742-31.446-10.742h-45.507zm0-50.78h43.554c13.282 0 23.438-3.028 30.469-9.083 7.031-6.054 10.547-14.746 10.547-26.074 0-11.588-3.613-20.93-10.84-28.027-7.227-7.097-17.415-10.645-30.566-10.645h-43.164v73.828zm286.062 108.984h122.461V285H812.035V.625h66.211v233.594zm222.781-109.375h1.172L1158.84.625h71.68L1133.84 185v100h-65.82V181.68L973.294.625h71.289l56.445 124.219zm-923.91 512.695V735h-66.21V450.625h115.429c33.724 0 60.482 8.626 80.273 25.879 19.792 17.253 29.688 39.811 29.688 67.676 0 27.995-9.896 50.553-29.688 67.675-19.791 17.123-46.549 25.684-80.273 25.684h-49.219zm0-50.781h49.219c14.323 0 25.228-3.939 32.715-11.817 7.487-7.877 11.23-18 11.23-30.37 0-12.631-3.743-22.982-11.23-31.055s-18.392-12.11-32.715-12.11h-49.219v85.352zm334.696 92.969h-89.649L406.148 735h-66.406l91.797-284.375h70.899L594.43 735h-66.407l-16.21-55.273zm-75-50.782h60.351l-29.687-101.758h-1.172l-29.493 101.758zm350.71 30.664c0-10.026-3.32-17.773-9.96-23.242-6.641-5.469-18.555-11.263-35.743-17.383-35.937-11.328-62.565-23.47-79.883-36.425-17.317-12.956-25.976-31.673-25.976-56.153 0-23.828 10.319-43.099 30.957-57.812 20.638-14.714 46.842-22.07 78.613-22.07 31.51 0 57.324 8.105 77.442 24.316 20.117 16.21 29.85 37.077 29.199 62.598l-.39 1.171h-64.063c0-11.328-3.841-20.54-11.524-27.636-7.682-7.097-18.294-10.645-31.836-10.645-13.28 0-23.698 2.93-31.25 8.79-7.552 5.859-11.328 13.085-11.328 21.679 0 8.333 3.809 15.006 11.426 20.02 7.617 5.012 21.907 11.295 42.871 18.847 32.292 9.636 56.608 21.484 72.95 35.547 16.34 14.063 24.511 33.398 24.511 58.008 0 25-9.733 44.563-29.2 58.691-19.465 14.128-45.279 21.192-77.44 21.192-32.292 0-60.222-8.106-83.79-24.317-23.567-16.21-35.026-39.55-34.375-70.02l.391-1.171h64.258c0 16.406 4.427 28.125 13.281 35.156 8.854 7.031 22.266 10.547 40.234 10.547 13.672 0 23.861-2.734 30.567-8.203 6.706-5.469 10.058-12.63 10.058-21.485zm274.54 0c0-10.026-3.32-17.773-9.961-23.242-6.641-5.469-18.555-11.263-35.743-17.383-35.937-11.328-62.565-23.47-79.882-36.425-17.318-12.956-25.977-31.673-25.977-56.153 0-23.828 10.319-43.099 30.957-57.812 20.638-14.714 46.842-22.07 78.613-22.07 31.51 0 57.324 8.105 77.442 24.316 20.117 16.21 29.85 37.077 29.199 62.598l-.39 1.171h-64.063c0-11.328-3.841-20.54-11.524-27.636-7.682-7.097-18.294-10.645-31.836-10.645-13.28 0-23.697 2.93-31.25 8.79-7.552 5.859-11.328 13.085-11.328 21.679 0 8.333 3.809 15.006 11.426 20.02 7.617 5.012 21.908 11.295 42.871 18.847 32.292 9.636 56.608 21.484 72.95 35.547 16.34 14.063 24.511 33.398 24.511 58.008 0 25-9.733 44.563-29.2 58.691-19.465 14.128-45.279 21.192-77.44 21.192-32.292 0-60.222-8.106-83.79-24.317-23.567-16.21-35.026-39.55-34.375-70.02l.391-1.171h64.258c0 16.406 4.427 28.125 13.281 35.156 8.854 7.031 22.266 10.547 40.235 10.547 13.671 0 23.86-2.734 30.566-8.203 6.706-5.469 10.059-12.63 10.059-21.485z" fill="#EDEDED" fill-rule="evenodd" opacity=".4"/></svg>