<?xml version="1.0" encoding="utf-8"?>
<!-- Generator: Adobe Illustrator 21.0.0, SVG Export Plug-In . SVG Version: 6.00 Build 0)  -->
<svg version="1.1" id="Layer_1" xmlns="http://www.w3.org/2000/svg" xmlns:xlink="http://www.w3.org/1999/xlink" x="0px" y="0px"
	 width="177px" height="189px" viewBox="0 0 177 189" style="enable-background:new 0 0 177 189;" xml:space="preserve">
<style type="text/css">
	.st0{fill:#F20487;}
</style>
<path class="st0" d="M-667.1,871.3l-5.9-22.2c7.1-1.9,14.3-3.6,21.5-5.3c32.5-7.7,63.2-15.1,87.3-39.1c24-24,31.4-54.7,39.1-87.3
	c8.1-34.2,16.6-69.6,45.2-98.2c28.6-28.6,64-37.1,98.2-45.2c32.5-7.7,63.2-15.1,87.3-39.1c24-24,31.4-54.8,39.1-87.3
	c8.1-34.2,16.6-69.6,45.2-98.2s64-37.1,98.2-45.2c32.5-7.7,63.2-15.1,87.3-39.1c24-24,31.4-54.7,39.1-87.3
	c8.1-34.2,16.6-69.6,45.2-98.2s64-37.1,98.2-45.2c32.5-7.7,63.2-15.1,87.3-39.1c24-24,31.4-54.8,39.1-87.3
	c8.1-34.2,16.6-69.6,45.2-98.2s64-37.1,98.2-45.2c32.5-7.7,63.2-15.1,87.3-39.1c24-24,31.4-54.8,39.1-87.3
	c8.1-34.2,16.6-69.6,45.2-98.2c28.6-28.6,64-37.1,98.2-45.2c32.5-7.7,63.2-15.1,87.3-39.1c24-24,31.3-54.7,39.1-87.3
	c1.7-7.2,3.4-14.3,5.3-21.4l22.2,5.9c-1.8,6.9-3.5,13.9-5.2,20.9C838-592,829.6-556.7,801-528c-28.6,28.6-64,37.1-98.2,45.2
	c-32.5,7.7-63.2,15.1-87.3,39.1c-24,24-31.3,54.8-39.1,87.3c-8.1,34.2-16.6,69.6-45.2,98.2c-28.6,28.6-64,37.1-98.2,45.2
	c-32.5,7.7-63.2,15.1-87.3,39.1c-24,24-31.4,54.8-39.1,87.3C298.4-52.4,290-17,261.4,11.6s-64,37.1-98.2,45.2
	c-32.5,7.7-63.2,15.1-87.3,39.1c-24,24-31.3,54.8-39.1,87.3c-8.1,34.2-16.6,69.6-45.2,98.2s-64,37.1-98.2,45.2
	c-32.5,7.7-63.2,15.1-87.3,39.1c-24,24-31.4,54.8-39.1,87.3c-8.2,34.2-16.6,69.6-45.2,98.2c-28.6,28.6-64,37.1-98.2,45.2
	c-32.5,7.7-63.2,15.1-87.3,39.1c-24,24-31.4,54.8-39.1,87.3c-8.1,34.2-16.6,69.6-45.2,98.2c-28.6,28.6-64,37.1-98.2,45.2
	C-653.2,867.8-660.2,869.5-667.1,871.3"/>
</svg>
