<?xml version="1.0" encoding="utf-8"?>
<!-- Generator: Adobe Illustrator 21.0.0, SVG Export Plug-In . SVG Version: 6.00 Build 0)  -->
<svg version="1.1" id="Layer_1" xmlns="http://www.w3.org/2000/svg" xmlns:xlink="http://www.w3.org/1999/xlink" x="0px" y="0px"
	 width="130px" height="35.9px" viewBox="0 0 130 35.9" style="enable-background:new 0 0 130 35.9;" xml:space="preserve">
<style type="text/css">
	.st0{fill:#FFFFFF;}
</style>
<g id="Page-1">
	<g id="Logo-example-5">
		<g id="Group-6">
			<path id="Fill-1" class="st0" d="M31.4,35.9c-1.3,0-2.5-0.5-3.5-1.4s-1.4-2.2-1.4-3.5c0-1.3,0.5-2.5,1.4-3.4
				c0.9-0.9,2.2-1.4,3.5-1.4s2.5,0.5,3.5,1.4c1.9,1.9,1.9,5,0,6.9C33.9,35.4,32.7,35.9,31.4,35.9"/>
			<path id="Fill-3" class="st0" d="M4.9,9.9c-1.3,0-2.5-0.5-3.5-1.4C0.5,7.5,0,6.3,0,5s0.5-2.5,1.4-3.4c0.9-0.9,2.2-1.4,3.5-1.4
				s2.5,0.5,3.4,1.4c0.9,0.9,1.4,2.2,1.4,3.5S9.3,7.6,8.3,8.6C7.5,9.4,6.2,9.9,4.9,9.9"/>
			<path id="Fill-5" class="st0" d="M31.2,9.8c-1.3,0-2.5-0.5-3.5-1.4c-1.9-1.9-1.9-5,0-6.9C28.6,0.5,29.9,0,31.2,0s2.5,0.5,3.5,1.4
				c1.9,1.9,1.9,5,0,6.9C33.7,9.3,32.5,9.8,31.2,9.8"/>
			<path id="Fill-7" class="st0" d="M5.1,35.9c-1.3,0-2.5-0.5-3.5-1.4s-1.4-2.2-1.4-3.5c0-1.3,0.5-2.5,1.4-3.5
				c0.2-0.2,0.4-0.4,0.7-0.6c0.1-0.1,0.1-0.1,0.2-0.1c0.1-0.1,0.4-0.2,0.5-0.3c0.1-0.1,0.2-0.1,0.3-0.1c0.1-0.1,0.4-0.1,0.6-0.1
				c0.1,0,0.1,0,0.1,0h0.1l1.1-0.1c0.1,0,0.3,0,0.4,0.1h0.1c0.1,0,0.1,0,0.1,0h0.1h0.1H6c0.1,0,0.1,0,0.2,0c1.9,0,3.7-0.8,5.1-2.2
				c1.4-1.4,2.1-3.3,2-5.1v-0.1v-0.1c0-0.1,0-0.1,0-0.1s0-0.1,0-0.2v-0.1c0-0.1,0-0.2,0-0.3l0.1-1.1v-0.1v-0.1
				c0.1-0.2,0.1-0.4,0.2-0.6c0.1-0.1,0.1-0.2,0.1-0.3c0.1-0.2,0.1-0.4,0.3-0.5c0.1-0.1,0.1-0.1,0.1-0.2c0.2-0.3,0.4-0.5,0.6-0.7
				c0.9-0.9,2.2-1.4,3.5-1.4s2.5,0.5,3.5,1.4c1.9,1.9,1.9,5,0,6.9c-0.2,0.2-0.4,0.4-0.7,0.6C21,22,20.9,22,20.9,22
				c-0.1,0.1-0.4,0.2-0.5,0.3c-0.1,0.1-0.2,0.1-0.3,0.1c-0.2,0.1-0.4,0.1-0.6,0.1h-0.1h-0.1l-1.1,0.1c-0.1,0-0.3,0-0.4-0.1h-0.1
				c0,0-0.1,0-0.1,0h-0.1h-0.1h-0.1c-0.1,0-0.1,0-0.2,0c-1.9,0-3.7,0.8-5.1,2.2c-1.4,1.4-2.1,3.3-2,5.1v0.1V30c0,0.1,0,0.1,0,0.1
				c0,0.1,0,0.1,0,0.2c0,0.1,0,0.1,0,0.1s0,0.1,0,0.2l0,0l-0.1,1l-0.1,0.1c-0.1,0.2-0.1,0.4-0.1,0.6c-0.1,0.1-0.1,0.2-0.1,0.3
				c-0.1,0.2-0.1,0.4-0.3,0.5c-0.1,0.1-0.1,0.1-0.1,0.2C9,33.8,8.8,34,8.6,34.1C7.6,35.4,6.4,35.9,5.1,35.9L5.1,35.9z"/>
			<path id="Fill-9" class="st0" d="M18.2,35.9c-1.3,0-2.5-0.5-3.5-1.4c-0.9-0.9-1.4-2.2-1.4-3.5c0-1.3,0.5-2.5,1.4-3.4
				c0.2-0.2,0.4-0.4,0.7-0.6c0.1-0.1,0.1-0.1,0.2-0.1c0.1-0.1,0.4-0.2,0.5-0.3c0.1-0.1,0.2-0.1,0.3-0.1c0.1-0.1,0.4-0.1,0.6-0.1
				c0,0,0.1-0.1,0.2-0.1l1.1-0.1c0.1,0,0.3,0,0.4,0.1h0.1c0.1,0,0.1,0,0.1,0c0,0,0,0,0.1,0l0,0h0.1c0.1,0,0.1,0,0.2,0
				c1.9,0,3.7-0.8,5.1-2.2c1.4-1.4,2.1-3.3,2-5.1v-0.2l0,0l0,0c0-0.1,0-0.1,0-0.1v-0.1c0-0.1,0-0.1,0-0.3l0.1-1.1
				c0,0,0.1-0.1,0.1-0.2c0.1-0.2,0.1-0.4,0.1-0.6c0-0.1,0.1-0.2,0.1-0.3c0.1-0.1,0.1-0.4,0.3-0.5l0,0c0.1-0.1,0.1-0.1,0.1-0.2
				c0.2-0.3,0.4-0.5,0.6-0.7c0.9-0.9,2.2-1.4,3.5-1.4s2.5,0.5,3.5,1.4c1.9,1.9,1.9,5,0,6.9c-0.2,0.2-0.4,0.4-0.7,0.6
				C34.1,22,34.1,22,34,22l-0.1,0.1c-0.1,0.1-0.4,0.2-0.5,0.3c-0.1,0.1-0.2,0.1-0.3,0.1c-0.1,0.1-0.4,0.1-0.6,0.1
				c-0.1,0-0.1,0-0.1,0h-0.1l-1.1,0.1c-0.1,0-0.4,0-0.5-0.1c-0.1,0-0.1,0-0.1,0c0,0,0,0-0.1,0h-0.1c-0.1,0-0.1,0-0.2,0
				c-1.9,0-3.7,0.8-5.1,2.2c-1.4,1.4-2.1,3.3-2,5.1V30v0.1c0,0.1,0,0.1,0,0.1c0,0.1,0,0.1,0,0.1c0,0.1,0,0.1,0,0.1s0,0.1,0,0.2
				L23,31.8L23,32c-0.1,0.2-0.1,0.4-0.1,0.6c0,0.1-0.1,0.1-0.1,0.3l0,0c-0.1,0.1-0.1,0.4-0.3,0.5c-0.1,0.1-0.1,0.1-0.1,0.2
				c-0.2,0.3-0.4,0.5-0.6,0.7C20.7,35.4,19.5,35.9,18.2,35.9"/>
			<path id="Fill-11" class="st0" d="M5.1,22.7c-1.3,0-2.5-0.5-3.5-1.4c-0.9-0.9-1.4-2.2-1.4-3.5c0-1.3,0.5-2.5,1.4-3.4
				C1.8,14.1,2,14,2.3,13.8c0.1-0.1,0.1-0.1,0.2-0.1c0.1-0.1,0.4-0.2,0.5-0.3c0.1-0.1,0.2-0.1,0.3-0.1C3.5,13.1,3.7,13,3.9,13h0.1
				h0.1L5.2,13c0.1,0,0.3,0,0.4,0.1l0,0c0.1,0,0.1,0,0.1,0c0,0,0,0,0.1,0h0.1H6c0.1,0,0.1,0,0.2,0c1.9,0,3.7-0.8,5.1-2.2
				s2.1-3.3,2-5.1V5.7V5.7c0-0.1,0-0.1,0-0.1c0-0.1,0-0.1,0-0.1V5.2c0-0.1,0-0.1,0-0.3l0.1-1l0,0l0,0l0.1-0.1
				c0.1-0.3,0.1-0.4,0.1-0.7c0-0.1,0.1-0.2,0.1-0.3c0.1-0.1,0.1-0.4,0.3-0.5l0,0c0.1-0.1,0.1-0.1,0.1-0.2c0.2-0.3,0.4-0.5,0.6-0.7
				C15.7,0.5,17,0,18.3,0s2.5,0.5,3.5,1.4c1.9,1.9,1.9,5,0,6.9c-0.2,0.2-0.4,0.4-0.7,0.6C21,9,20.9,9,20.9,9.1l0,0
				c-0.1,0.1-0.4,0.2-0.5,0.3c-0.1,0.1-0.2,0.1-0.3,0.1c-0.2,0.1-0.4,0.1-0.6,0.1c-0.1,0-0.1,0-0.1,0h-0.1l-1.1,0.1
				c-0.1,0-0.3,0-0.4-0.1h-0.1c-0.1,0-0.1,0-0.1,0h-0.1l0,0h-0.1c-0.1,0-0.1,0-0.2,0c-1.9,0-3.7,0.8-5.1,2.2s-2.1,3.3-2,5.1V17V17
				c0,0.1,0,0.1,0,0.1c0,0.1,0,0.1,0,0.1c0,0.1,0,0.1,0,0.1c0,0.1,0,0.1,0,0.2l-0.2,1.1v0.1v0.1c-0.1,0.2-0.1,0.4-0.1,0.6
				c0,0.1-0.1,0.2-0.1,0.3c-0.1,0.1-0.1,0.4-0.3,0.5c-0.1,0.1-0.1,0.1-0.1,0.2c-0.2,0.3-0.4,0.5-0.6,0.7C7.6,22.2,6.4,22.7,5.1,22.7
				"/>
		</g>
		<path id="TechBrand" class="st0" d="M45.7,16h-2.8v-2H51v2h-2.8v7.1h-2.6L45.7,16L45.7,16z M59.3,21.1v2H52V14h7.2v2h-4.6v1.5h4.1
			v2h-4.1v1.7L59.3,21.1L59.3,21.1z M65.4,23.3c-0.9,0-1.8-0.2-2.6-0.6c-0.8-0.4-1.4-0.9-1.8-1.7c-0.4-0.7-0.7-1.5-0.7-2.5
			s0.2-1.7,0.7-2.5c0.4-0.7,1-1.3,1.8-1.7s1.6-0.6,2.6-0.6c0.9,0,1.6,0.1,2.2,0.4c0.7,0.3,1.2,0.7,1.7,1.3l-1.7,1.5
			c-0.6-0.7-1.3-1.1-2.2-1.1c-0.5,0-0.9,0.1-1.3,0.3c-0.4,0.2-0.7,0.5-0.9,0.9C63,17.8,63,18.2,63,18.7c0,0.5,0.1,0.9,0.3,1.4
			c0.2,0.4,0.5,0.7,0.9,0.9c0.4,0.2,0.8,0.3,1.3,0.3c0.9,0,1.6-0.4,2.2-1.1l1.7,1.5c-0.4,0.6-1,1-1.7,1.3
			C67,23.3,66.2,23.3,65.4,23.3z M79.1,14v9.1h-2.6v-3.6H73v3.6h-2.6V14H73v3.4h3.6V14C76.5,14,79.1,14,79.1,14z M87.7,18.3
			c0.5,0.1,0.9,0.4,1.2,0.8c0.3,0.4,0.4,0.9,0.4,1.4c0,0.8-0.3,1.4-0.9,1.8c-0.6,0.4-1.5,0.7-2.7,0.7h-4.5V14h4.3
			c1.1,0,1.9,0.2,2.5,0.7s0.9,1,0.9,1.7c0,0.4-0.1,0.9-0.3,1.2C88.3,17.9,88,18.2,87.7,18.3z M82.9,15.3v2.5h2.4
			c0.6,0,1-0.1,1.4-0.3c0.3-0.2,0.5-0.5,0.5-0.9c0-0.4-0.1-0.7-0.5-0.9c-0.4-0.2-0.8-0.3-1.4-0.3L82.9,15.3L82.9,15.3z M85.7,21.8
			c1.3,0,2-0.4,2-1.3s-0.7-1.3-2-1.3h-2.8v2.6C82.9,21.8,85.7,21.8,85.7,21.8z M97.2,23.1l-1.9-2.7c-0.1,0-0.2,0-0.4,0h-2.1v2.7
			h-1.7V14h3.8c0.8,0,1.4,0.1,2.1,0.4c0.6,0.3,1,0.7,1.4,1.1c0.3,0.5,0.4,1.1,0.4,1.7s-0.1,1.3-0.5,1.7c-0.4,0.4-0.8,0.9-1.4,1.1
			l2.1,3h-1.8V23.1z M97.1,17.2c0-0.6-0.2-1-0.6-1.4c-0.4-0.4-0.9-0.4-1.7-0.4h-2v3.6h2c0.7,0,1.3-0.1,1.7-0.5
			C96.9,18.3,97.1,17.8,97.1,17.2z M106.6,21H102l-0.9,2.1h-1.7l4.1-9.1h1.7l4.1,9.1h-1.7L106.6,21z M106.1,19.6l-1.7-4l-1.7,4
			H106.1z M118.6,14v9.1h-1.4l-5-6.2v6.2h-1.7V14h1.4l5,6.2V14H118.6z M121,14h4c0.9,0,1.8,0.2,2.6,0.6c0.7,0.4,1.4,0.9,1.7,1.6
			c0.4,0.7,0.7,1.5,0.7,2.4c0,0.9-0.2,1.7-0.7,2.4c-0.4,0.7-1,1.2-1.7,1.6c-0.7,0.4-1.6,0.6-2.6,0.6h-4V14z M124.9,21.7
			c0.7,0,1.2-0.1,1.7-0.4c0.5-0.3,0.9-0.7,1.2-1.1c0.3-0.5,0.4-1,0.4-1.7s-0.1-1.2-0.4-1.7c-0.3-0.5-0.7-0.9-1.2-1.1
			c-0.5-0.3-1.1-0.4-1.7-0.4h-2.2v6.2H124.9z"/>
	</g>
</g>
</svg>
