<?xml version="1.0" encoding="utf-8"?>
<!-- Generator: Adobe Illustrator 21.0.0, SVG Export Plug-In . SVG Version: 6.00 Build 0)  -->
<svg version="1.1" id="Layer_1" xmlns="http://www.w3.org/2000/svg" xmlns:xlink="http://www.w3.org/1999/xlink" x="0px" y="0px"
	 width="102.2px" height="36.5px" viewBox="0 0 102.2 36.5" style="enable-background:new 0 0 102.2 36.5;" xml:space="preserve">
<style type="text/css">
	.st0{fill:#FFFFFF;}
</style>
<g id="Page-1_1_">
	<g id="Logo-example-16_1_">
		<path id="Combined-Shape_1_" class="st0" d="M43.9,15.1c-0.1,0-0.1,0-0.2-0.1c-0.1-0.1-0.1-0.1-0.1-0.2V7.5c0-0.1,0-0.1,0.1-0.2
			c0.1-0.1,0.1-0.1,0.2-0.1h3.2c0.9,0,1.5,0.2,2,0.6c0.4,0.4,0.6,0.9,0.6,1.5c0,0.4-0.1,0.7-0.3,1c-0.2,0.2-0.4,0.5-0.7,0.6
			c0.3,0.1,0.6,0.4,0.8,0.7c0.2,0.3,0.3,0.7,0.3,1.1c0,0.7-0.2,1.2-0.7,1.7c-0.5,0.4-1.1,0.6-2,0.6L43.9,15.1L43.9,15.1z M46.9,10.5
			c0.4,0,0.7-0.1,0.9-0.2c0.2-0.2,0.3-0.4,0.3-0.7c0-0.3-0.1-0.6-0.3-0.7c-0.2-0.2-0.5-0.2-0.9-0.2h-1.7v2
			C45.2,10.5,46.9,10.5,46.9,10.5z M47,13.9c0.4,0,0.7-0.1,0.9-0.3c0.2-0.2,0.3-0.5,0.3-0.8S48.2,12.2,48,12
			c-0.2-0.2-0.5-0.3-0.9-0.3h-1.9v2.2H47z M53.4,15.1c-0.1,0-0.1,0-0.2-0.1c-0.1-0.1-0.1-0.1-0.1-0.2V7.5c0-0.1,0-0.1,0.1-0.2
			s0.1-0.1,0.2-0.1h4.9c0.1,0,0.1,0,0.2,0.1s0.1,0.1,0.1,0.2v0.7c0,0.1,0,0.1-0.1,0.2c-0.1,0.1-0.1,0.1-0.2,0.1h-3.7v1.9h3.4
			c0.1,0,0.1,0,0.2,0.1c0.1,0.1,0.1,0.1,0.1,0.2v0.7c0,0.1,0,0.1-0.1,0.2c-0.1,0.1-0.1,0.1-0.2,0.1h-3.4v2h3.7c0.1,0,0.1,0,0.2,0.1
			c0.1,0.1,0.1,0.1,0.1,0.2v0.7c0,0.1,0,0.1-0.1,0.2c0,0.2-0.1,0.2-0.1,0.2C58.4,15.1,53.4,15.1,53.4,15.1z M61.5,15.1
			c-0.1,0-0.1,0-0.2-0.1c-0.1-0.1-0.1-0.1-0.1-0.2v-0.1l2.7-7.2c0.1-0.2,0.2-0.2,0.4-0.2h1.2c0.2,0,0.3,0.1,0.4,0.2l2.7,7.2v0.1
			c0,0.1,0,0.1-0.1,0.2c-0.1,0.1-0.1,0.1-0.2,0.1h-1c-0.2,0-0.2-0.1-0.3-0.2l-0.5-1.4h-3.3l-0.5,1.4c-0.1,0.1-0.2,0.2-0.3,0.2H61.5z
			 M63.7,12.2h2.5L65,8.8L63.7,12.2z M74.5,15.2c-1,0-1.8-0.2-2.4-0.7c-0.6-0.5-0.8-1.3-0.8-2.4V7.5c0-0.1,0-0.1,0.1-0.2
			c0.1-0.1,0.1-0.1,0.2-0.1h1.1c0.1,0,0.1,0,0.2,0.1c0.1,0.1,0.1,0.1,0.1,0.2v4.5c0,0.6,0.1,1.1,0.4,1.3c0.3,0.3,0.7,0.4,1.2,0.4
			s0.9-0.1,1.2-0.4c0.3-0.3,0.4-0.7,0.4-1.3V7.5c0-0.1,0-0.1,0.1-0.2c0.1-0.1,0.1-0.1,0.2-0.1h1.1c0.1,0,0.1,0,0.2,0.1
			c0.1,0.1,0.1,0.1,0.1,0.2v4.5c0,1.1-0.2,1.8-0.8,2.4S75.5,15.2,74.5,15.2z M83.2,15.1c-0.1,0-0.1,0-0.2-0.1
			c-0.1-0.1-0.1-0.1-0.1-0.2V8.7h-2c-0.1,0-0.1,0-0.2-0.1c-0.1-0.1-0.1-0.1-0.1-0.2V7.5c0-0.1,0-0.1,0.1-0.2
			c0.1-0.1,0.1-0.1,0.2-0.1h5.7c0.1,0,0.1,0,0.2,0.1c0.1,0.1,0.1,0.1,0.1,0.2v0.8c0,0.1,0,0.1-0.1,0.2c-0.1,0.1-0.1,0.1-0.2,0.1h-2
			v6.1c0,0.1,0,0.1-0.1,0.2C84.4,15,84.4,15,84.3,15h-1.1L83.2,15.1L83.2,15.1z M92.1,15.1c-0.1,0-0.1,0-0.2-0.1
			c-0.1-0.1-0.1-0.1-0.1-0.2v-2.5l-2.7-4.6c0-0.1-0.1-0.1-0.1-0.1c0-0.1,0-0.1,0.1-0.2c0.1-0.1,0.1-0.1,0.2-0.1h1
			c0.1,0,0.2,0.1,0.4,0.2l1.9,3.2l1.9-3.2c0-0.1,0.1-0.1,0.1-0.1c0.1-0.1,0.1-0.1,0.2-0.1h1c0.1,0,0.1,0,0.2,0.1
			C96,7.4,96,7.5,96,7.5c0,0.1,0,0.1-0.1,0.1l-2.6,4.6v2.5c0,0.1,0,0.1-0.1,0.2c-0.1,0.1-0.1,0.1-0.2,0.1H92.1z M46.2,27.6
			c-0.6,0-1.1-0.1-1.6-0.3c-0.4-0.2-0.8-0.4-1.1-0.7c-0.2-0.3-0.4-0.7-0.4-1c0-0.1,0-0.1,0.1-0.2c0.1-0.1,0.1-0.1,0.2-0.1H44
			c0.1,0,0.2,0.1,0.3,0.2c0.1,0.3,0.2,0.6,0.6,0.8c0.3,0.2,0.7,0.3,1.4,0.3s1.1-0.1,1.4-0.3c0.3-0.2,0.5-0.6,0.5-0.9
			c0-0.2-0.1-0.4-0.2-0.6c-0.1-0.2-0.4-0.3-0.7-0.4c-0.3-0.1-0.7-0.2-1.4-0.4c-0.6-0.2-1.1-0.3-1.4-0.5c-0.3-0.2-0.6-0.4-0.7-0.7
			c-0.2-0.2-0.2-0.6-0.2-1.1c0-0.4,0.1-0.7,0.3-1.1c0.2-0.3,0.6-0.6,0.9-0.7c0.4-0.2,0.9-0.2,1.4-0.2s1.1,0.1,1.5,0.3
			s0.7,0.4,0.9,0.7c0.2,0.3,0.3,0.6,0.4,0.9c0,0.1,0,0.1-0.1,0.2c-0.1,0.1-0.1,0.1-0.2,0.1h-0.6c-0.1,0-0.1,0-0.2-0.1
			c-0.1-0.1-0.1-0.1-0.1-0.2c-0.1-0.3-0.2-0.6-0.6-0.8c-0.3-0.2-0.7-0.3-1.2-0.3c-0.5,0-0.9,0.1-1.2,0.3c-0.3,0.2-0.4,0.5-0.4,0.9
			c0,0.2,0.1,0.5,0.2,0.6c0.1,0.2,0.4,0.3,0.6,0.4c0.3,0.1,0.7,0.2,1.2,0.4c0.6,0.2,1.1,0.4,1.5,0.6c0.4,0.2,0.6,0.4,0.8,0.7
			c0.2,0.3,0.2,0.6,0.2,1c0,0.7-0.2,1.2-0.8,1.6C47.8,27.4,47.2,27.6,46.2,27.6z M54.4,27.5c-0.1,0-0.1,0-0.2-0.1
			c-0.1-0.1-0.1-0.1-0.1-0.2v-6.6H52c-0.1,0-0.1,0-0.2-0.1c-0.1-0.1-0.1-0.1-0.1-0.2v-0.4c0-0.1,0-0.1,0.1-0.2
			c0.1-0.1,0.1-0.1,0.2-0.1h5.3c0.1,0,0.1,0,0.2,0.1c0.1,0.1,0.1,0.1,0.1,0.2v0.4c0,0.1,0,0.1-0.1,0.2c-0.1,0.1-0.1,0.1-0.2,0.1
			h-2.2v6.6c0,0.1,0,0.1-0.1,0.2c0,0.1-0.1,0.1-0.2,0.1H54.4z M63.6,27.6c-0.9,0-1.7-0.2-2.2-0.8c-0.6-0.6-0.8-1.3-0.8-2.4v-4.5
			c0-0.1,0-0.1,0.1-0.2c0.1-0.1,0.1-0.1,0.2-0.1h0.6c0.1,0,0.1,0,0.2,0.1c0.1,0.1,0.1,0.1,0.1,0.2v4.5c0,0.7,0.2,1.3,0.5,1.6
			c0.3,0.4,0.8,0.6,1.4,0.6c0.6,0,1.1-0.2,1.4-0.6c0.3-0.4,0.5-0.9,0.5-1.6v-4.5c0-0.1,0-0.1,0.1-0.2c0.1-0.1,0.1-0.1,0.2-0.1h0.6
			c0.1,0,0.1,0,0.2,0.1c0.1,0.1,0.1,0.1,0.1,0.2v4.5c0,1.1-0.2,1.9-0.8,2.4C65.4,27.3,64.6,27.6,63.6,27.6z M70.6,27.5
			c-0.1,0-0.1,0-0.2-0.1c-0.1-0.1-0.1-0.1-0.1-0.2v-7.3c0-0.1,0-0.1,0.1-0.2c0.1-0.1,0.1-0.1,0.2-0.1h2.5c1.1,0,1.9,0.2,2.4,0.7
			c0.5,0.5,0.7,1.2,0.7,2.3c0,0.2,0,0.5,0,0.9c0,0.4,0,0.7,0,0.9c0,0.7-0.1,1.3-0.3,1.7c-0.2,0.4-0.6,0.7-1,1
			c-0.4,0.2-1.1,0.3-1.8,0.3C73.2,27.5,70.6,27.5,70.6,27.5z M73.2,26.5c0.5,0,0.9-0.1,1.2-0.2c0.3-0.2,0.6-0.4,0.7-0.7
			c0.1-0.3,0.2-0.7,0.2-1.2c0-0.4,0-0.7,0-0.9c0-0.1,0-0.4,0-0.8c0-0.7-0.2-1.3-0.6-1.6c-0.3-0.4-0.9-0.5-1.7-0.5h-1.7v5.9H73.2z
			 M80.2,27.5c-0.1,0-0.1,0-0.2-0.1c-0.1-0.1-0.1-0.1-0.1-0.2v-7.3c0-0.1,0-0.1,0.1-0.2c0.1-0.1,0.1-0.1,0.2-0.1h0.6
			c0.1,0,0.1,0,0.2,0.1c0.1,0.1,0.1,0.1,0.1,0.2v7.3c0,0.1,0,0.1-0.1,0.2c-0.1,0.1-0.1,0.1-0.2,0.1C80.7,27.5,80.2,27.5,80.2,27.5z
			 M87.5,27.6c-1,0-1.7-0.2-2.2-0.7c-0.6-0.5-0.8-1.3-0.8-2.3c0-0.2,0-0.6,0-0.9s0-0.7,0-0.9c0-1,0.3-1.8,0.9-2.3
			c0.6-0.5,1.3-0.8,2.2-0.8s1.7,0.2,2.2,0.8c0.6,0.6,0.8,1.3,0.9,2.3c0,0.4,0,0.7,0,0.9s0,0.5,0,0.9c0,1.1-0.3,1.8-0.8,2.3
			C89.3,27.3,88.5,27.6,87.5,27.6z M87.5,26.7c0.6,0,1.1-0.2,1.4-0.6c0.4-0.4,0.6-0.9,0.6-1.7c0-0.4,0-0.7,0-0.9c0-0.2,0-0.4,0-0.9
			c0-0.7-0.2-1.3-0.6-1.7c-0.4-0.4-0.8-0.6-1.4-0.6s-1.1,0.2-1.4,0.6c-0.4,0.4-0.6,0.9-0.6,1.7c0,0.2,0,0.5,0,0.9c0,0.4,0,0.7,0,0.9
			c0,0.7,0.2,1.3,0.6,1.7C86.5,26.5,87,26.7,87.5,26.7z"/>
		<g id="XMLID_1_">
			<path id="XMLID_4_" class="st0" d="M37.1,32.3l-2.5-5.1l-11.3-23h-2.5l10.9,22.1h-2.2L18.7,4.3L6.4,28.4l4.9,0.1l17.6,0.1h3.9
				l1.8,3.7L37.1,32.3z M10,26.2l8.7-17l1.2,2.4l-7.4,14.7L10,26.2z M14.9,26.2l6.2-12.1l6,12.2L14.9,26.2z"/>
			<polygon id="XMLID_3_" class="st0" points="16.5,4.2 14.1,4.2 0,32 2.5,32.1 3.6,29.8 3.6,29.8 			"/>
			<polygon id="XMLID_2_" class="st0" points="5.8,29.8 4.6,32.1 32.5,32.2 31.4,30 			"/>
		</g>
	</g>
</g>
</svg>
