<?xml version="1.0" encoding="utf-8"?>
<!-- Generator: Adobe Illustrator 21.0.0, SVG Export Plug-In . SVG Version: 6.00 Build 0)  -->
<svg version="1.1" id="Layer_1" xmlns="http://www.w3.org/2000/svg" xmlns:xlink="http://www.w3.org/1999/xlink" x="0px" y="0px"
	 width="63px" height="36.1px" viewBox="0 0 63 36.1" style="enable-background:new 0 0 63 36.1;" xml:space="preserve">
<style type="text/css">
	.st0{fill:#FFFFFF;}
</style>
<g id="Page-1">
	<g id="Logo-example-13">
		<path id="Combined-Shape" class="st0" d="M0.2,27.8c-0.1,0-0.1,0-0.1-0.1C0,27.7,0,27.7,0,27.7v-5.5C0,22.1,0,22,0.1,22
			C0.1,22,0.1,22,0.2,22h0.4c0.1,0,0.2,0.1,0.2,0.1l1.8,3.4l1.8-3.4C4.5,22,4.6,22,4.7,22h0.4c0.1,0,0.1,0,0.1,0.1
			c0.1,0.1,0.1,0.1,0.1,0.1v5.5c0,0.1,0,0.1-0.1,0.1c-0.1,0.1-0.1,0.1-0.1,0.1H4.6c-0.1,0-0.1,0-0.1-0.1c-0.1-0.1-0.1-0.1-0.1-0.1
			v-4.2L3,26.2c-0.1,0.1-0.1,0.2-0.2,0.2H2.4c-0.1,0-0.2-0.1-0.2-0.2l-1.5-2.8v4.2c0,0.1,0,0.1-0.1,0.1c-0.1,0.1-0.1,0.1-0.1,0.1
			C0.5,27.8,0.2,27.8,0.2,27.8z M10.2,28c-0.7,0-1.3-0.2-1.7-0.6c-0.4-0.4-0.6-1-0.6-1.8c0-0.2,0-0.4,0-0.7c0-0.3,0-0.5,0-0.7
			c0-0.8,0.2-1.3,0.7-1.8c0.4-0.4,1-0.6,1.7-0.6c0.7,0,1.3,0.2,1.7,0.6c0.4,0.4,0.6,1,0.7,1.8c0,0.3,0,0.5,0,0.7c0,0.1,0,0.4,0,0.7
			c0,0.8-0.2,1.4-0.6,1.8C11.5,27.7,11,28,10.2,28z M10.2,27.2c0.4,0,0.8-0.1,1.1-0.4c0.2-0.3,0.4-0.7,0.4-1.3c0-0.4,0-0.5,0-0.7
			c0-0.1,0-0.4,0-0.7c0-0.5-0.2-1-0.4-1.3c-0.2-0.3-0.6-0.4-1.1-0.4c-0.4,0-0.8,0.1-1.1,0.4c-0.3,0.3-0.4,0.7-0.4,1.3
			c0,0.2,0,0.4,0,0.7s0,0.5,0,0.7c0,0.5,0.2,1,0.4,1.3C9.4,27.1,9.7,27.2,10.2,27.2z M15.4,27.8c-0.1,0-0.1,0-0.1-0.1
			c-0.1-0.1-0.1-0.1-0.1-0.1v-5.5c0-0.1,0-0.1,0.1-0.1c0.1-0.1,0.1-0.1,0.1-0.1h0.4c0.1,0,0.1,0,0.1,0.1l0.1,0.1l2.8,4.4v-4.3
			c0-0.1,0-0.1,0.1-0.1C18.9,22,18.9,22,19,22h0.4c0.1,0,0.1,0,0.1,0.1c0.1,0.1,0.1,0.1,0.1,0.1v5.5c0,0.1,0,0.1-0.1,0.1
			c-0.1,0.1-0.1,0.1-0.1,0.1H19c-0.1,0-0.2-0.1-0.2-0.1L16,23.4v4.2c0,0.1,0,0.1-0.1,0.1c-0.1,0.1-0.1,0.1-0.1,0.1L15.4,27.8
			L15.4,27.8z M24.6,28c-0.7,0-1.3-0.2-1.7-0.6c-0.4-0.4-0.6-1-0.6-1.8c0-0.2,0-0.4,0-0.7c0-0.3,0-0.5,0-0.7c0-0.8,0.2-1.3,0.7-1.8
			c0.4-0.4,1-0.6,1.7-0.6c0.7,0,1.3,0.2,1.7,0.6s0.6,1,0.7,1.8c0,0.3,0,0.5,0,0.7c0,0.1,0,0.4,0,0.7c0,0.8-0.2,1.4-0.6,1.8
			C25.9,27.7,25.4,28,24.6,28z M24.6,27.2c0.4,0,0.8-0.1,1.1-0.4c0.2-0.3,0.4-0.7,0.4-1.3c0-0.4,0-0.5,0-0.7c0-0.1,0-0.4,0-0.7
			c0-0.5-0.2-1-0.4-1.3c-0.2-0.3-0.6-0.4-1.1-0.4c-0.4,0-0.8,0.1-1.1,0.4c-0.3,0.3-0.4,0.7-0.4,1.3c0,0.2,0,0.4,0,0.7s0,0.5,0,0.7
			c0,0.5,0.2,1,0.4,1.3C23.8,27.1,24.1,27.2,24.6,27.2z M31.8,28c-0.7,0-1.3-0.2-1.7-0.6c-0.4-0.4-0.6-1-0.7-1.6c0-0.2,0-0.4,0-0.8
			c0-0.4,0-0.6,0-0.8c0-0.7,0.2-1.2,0.7-1.6c0.4-0.4,1-0.6,1.7-0.6c0.5,0,0.9,0.1,1.3,0.2c0.4,0.2,0.6,0.4,0.8,0.7
			c0.2,0.2,0.2,0.5,0.3,0.7l0,0c0,0.1,0,0.1-0.1,0.1C34,23.7,34,23.7,34,23.7h-0.5c-0.1,0-0.1,0-0.1-0.1c0,0-0.1-0.1-0.1-0.1
			c-0.1-0.2-0.2-0.5-0.5-0.7c-0.2-0.2-0.5-0.2-1-0.2c-0.5,0-0.8,0.1-1.1,0.4c-0.2,0.2-0.4,0.7-0.4,1.2c0,0.2,0,0.4,0,0.7
			c0,0.4,0,0.6,0,0.7c0,0.5,0.2,1,0.4,1.2c0.2,0.2,0.7,0.4,1.1,0.4c0.5,0,0.8-0.1,1.1-0.4c0.3-0.3,0.4-0.7,0.4-1.2v-0.4h-1.3
			c-0.1,0-0.1,0-0.1-0.1c-0.1,0-0.1,0-0.1-0.1v-0.2c0-0.1,0-0.1,0.1-0.1c0.1-0.1,0.1-0.1,0.1-0.1H34c0.1,0,0.1,0,0.1,0.1
			c0.1,0.1,0.1,0.1,0.1,0.1v0.8c0,0.5-0.1,0.8-0.3,1.2c-0.2,0.4-0.5,0.6-0.8,0.8C32.6,27.8,32.3,28,31.8,28z M37,27.8
			c-0.1,0-0.1,0-0.1-0.1c-0.1-0.1-0.1-0.1-0.1-0.1v-5.5c0-0.1,0-0.1,0.1-0.1C36.9,22,36.9,22,37,22H39c0.7,0,1.1,0.1,1.5,0.4
			c0.4,0.3,0.5,0.7,0.5,1.3c0,0.4-0.1,0.8-0.3,1.1c-0.2,0.3-0.5,0.5-0.9,0.6l1.3,2.2c0,0.1,0,0.1,0,0.1c0,0.1,0,0.1-0.1,0.1
			C41.1,28,41.1,28,41,28h-0.4c-0.1,0-0.1,0-0.2-0.1s-0.1-0.1-0.1-0.2l-1.3-2.2h-1.5v2.2c0,0.1,0,0.1-0.1,0.1
			c-0.1,0.1-0.1,0.1-0.1,0.1L37,27.8C37,27.9,37,27.8,37,27.8z M39,24.8c0.8,0,1.3-0.4,1.3-1.1s-0.4-1.1-1.3-1.1h-1.5v2.2H39z
			 M43.3,27.8c-0.1,0-0.1,0-0.1-0.1c-0.1-0.1-0.1-0.1-0.1-0.1v-0.1l2.1-5.5c0.1-0.1,0.1-0.2,0.2-0.2h0.5c0.1,0,0.2,0.1,0.2,0.2
			l2.1,5.5v0.1c0,0.1,0,0.1-0.1,0.1c-0.1,0.1-0.1,0.1-0.1,0.1h-0.4c-0.1,0-0.1,0-0.1-0.1c-0.1-0.1-0.1-0.1-0.1-0.1l-0.5-1.2h-2.8
			l-0.5,1.2c-0.1,0.1-0.1,0.1-0.2,0.1L43.3,27.8L43.3,27.8z M44.7,25.8H47l-1.1-3L44.7,25.8z M51,27.8c-0.1,0-0.1,0-0.1-0.1
			c-0.1-0.1-0.1-0.1-0.1-0.1v-5.5c0-0.1,0-0.1,0.1-0.1C51,22,51,22,51,22h0.4c0.1,0,0.2,0.1,0.2,0.1l1.8,3.4l1.8-3.4
			c0.1-0.1,0.1-0.1,0.2-0.1h0.4c0.1,0,0.1,0,0.1,0.1c0.1,0.1,0.1,0.1,0.1,0.1v5.5c0,0.1,0,0.1-0.1,0.1c-0.1,0.1-0.1,0.1-0.1,0.1
			h-0.4c-0.1,0-0.1,0-0.1-0.1c-0.1-0.1-0.1-0.1-0.1-0.1v-4.2l-1.5,2.8c-0.1,0.1-0.1,0.2-0.2,0.2h-0.2c-0.1,0-0.2-0.1-0.2-0.2
			l-1.5-2.8v4.2c0,0.1,0,0.1-0.1,0.1c-0.1,0.1-0.1,0.1-0.1,0.1C51.5,27.8,51,27.8,51,27.8z M25.8,18.3c0-4.1-3.3-7.3-7.3-7.3
			s-7.3,3.3-7.3,7.3H9.4c0-5.1,4.1-9.1,9.1-9.1c3.4,0,6.4,1.8,7.9,4.5c0.3-1.1,0.7-2.2,1.1-3.2c-2.2-2.5-5.4-4.2-9.1-4.2
			c-6.6,0-12,5.4-12,12H4.7c0-7.6,6.2-13.8,13.8-13.8c3.9,0,7.5,1.6,10,4.3c0.5-0.8,1-1.5,1.6-2.2c-3-3-7.1-4.8-11.6-4.8
			C9.4,1.8,2.1,9.2,2.1,18.3H0.2C0.2,8.2,8.4,0,18.5,0c5,0,9.5,2,12.8,5.3C34.6,2,39.2,0,44.2,0c10.1,0,18.3,8.2,18.3,18.3h-1.8
			c0-9.1-7.4-16.5-16.5-16.5c-4.5,0-8.6,1.8-11.6,4.8c0.6,0.7,1.1,1.5,1.6,2.2c2.5-2.7,6.1-4.3,10-4.3c7.6,0,13.8,6.2,13.8,13.8
			h-1.8c0-6.6-5.4-12-12-12c-3.6,0-6.9,1.6-9.1,4.2c0.5,1,0.8,2.1,1.1,3.2c1.6-2.7,4.5-4.5,7.9-4.5c5.1,0,9.1,4.1,9.1,9.1h-1.8
			c0-4.1-3.3-7.3-7.3-7.3s-7.3,3.3-7.3,7.3H35c0-2.2-0.4-4.2-1.1-6.1c-0.8,1.4-1.4,3-1.6,4.7c0.1,0.5,0.1,0.9,0.1,1.4h-0.2h-1.8
			c0-0.5,0-1,0.1-1.4c-0.2-1.7-0.7-3.3-1.6-4.7c-0.7,1.9-1.1,3.9-1.1,6.1L25.8,18.3L25.8,18.3z M29.8,10.3c0.7,0.9,1.1,1.9,1.6,2.9
			c0.4-1,1-2,1.6-2.9c-0.5-0.8-1-1.6-1.6-2.4C30.7,8.7,30.2,9.4,29.8,10.3z M60.8,28c-0.5,0-0.8-0.1-1.2-0.2
			c-0.4-0.2-0.6-0.4-0.8-0.6c-0.2-0.2-0.3-0.5-0.3-0.8c0-0.1,0-0.1,0.1-0.1c0.1-0.1,0.1-0.1,0.1-0.1h0.4c0.1,0,0.2,0.1,0.2,0.2
			c0.1,0.2,0.2,0.4,0.4,0.6c0.2,0.2,0.6,0.2,1,0.2c0.5,0,0.8-0.1,1.1-0.2c0.2-0.2,0.4-0.4,0.4-0.7c0-0.2-0.1-0.4-0.2-0.5
			c-0.1-0.1-0.3-0.2-0.5-0.3c-0.2-0.1-0.5-0.2-1-0.4c-0.4-0.1-0.8-0.2-1-0.4c-0.2-0.1-0.4-0.3-0.6-0.5c-0.1-0.2-0.2-0.5-0.2-0.8
			s0.1-0.6,0.2-0.8c0.2-0.2,0.4-0.4,0.7-0.5c0.3-0.1,0.7-0.2,1.1-0.2c0.4,0,0.8,0.1,1.1,0.2c0.3,0.2,0.5,0.4,0.7,0.6
			c0.2,0.2,0.2,0.5,0.2,0.7c0,0.1,0,0.1-0.1,0.1c-0.1,0.1-0.1,0.1-0.1,0.1h-0.4c-0.1,0-0.1,0-0.1-0.1c-0.1,0-0.1-0.1-0.1-0.1
			c-0.1-0.2-0.2-0.4-0.4-0.6c-0.2-0.2-0.5-0.2-0.9-0.2c-0.4,0-0.7,0.1-0.9,0.2c-0.2,0.1-0.4,0.4-0.4,0.7c0,0.2,0.1,0.4,0.2,0.5
			c0.1,0.1,0.2,0.2,0.5,0.3c0.2,0.1,0.5,0.2,1,0.3c0.5,0.1,0.8,0.2,1.1,0.4c0.3,0.1,0.5,0.3,0.6,0.5c0.1,0.2,0.2,0.5,0.2,0.8
			c0,0.5-0.2,1-0.6,1.3C62.1,27.8,61.5,28,60.8,28z"/>
	</g>
</g>
</svg>
