<?xml version="1.0" encoding="UTF-8"?>
<svg width="30px" height="30px" viewBox="0 0 30 30" version="1.1" xmlns="http://www.w3.org/2000/svg" xmlns:xlink="http://www.w3.org/1999/xlink">
    <!-- Generator: Sketch 51 (57462) - http://www.bohemiancoding.com/sketch -->
    <title>play-sound</title>
    <desc>Created with Sketch.</desc>
    <defs></defs>
    <g id="Clean" stroke="none" stroke-width="1" fill="none" fill-rule="evenodd">
        <g id="Desktop-HD" transform="translate(-257.000000, -465.000000)" fill="#FFFFFF">
            <g id="play-sound" transform="translate(257.000000, 465.000000)">
                <path d="M22.3401136,8.77977273 L21.9579205,8.43221591 L20.8100114,9.71993182 L21.1922045,10.0674886 C22.5145568,11.2153977 23.2443068,12.8853068 23.2443068,14.6244205 C23.2443068,16.3636023 22.4785909,18.0335114 21.1922045,19.1813523 L20.8100114,19.5289091 L21.9579205,20.816625 L22.3401136,20.4690682 C24.0100227,18.9736023 24.9834886,16.851 24.9834886,14.58975 C24.9834886,12.4324432 24.0100227,10.2765682 22.3401136,8.77963636 L22.3401136,8.77977273 Z" id="Fill-1"></path>
                <path d="M26.1661364,6.31090909 L25.7839432,5.96202273 L24.6013977,7.24973864 L24.9835909,7.59729545 C26.9664545,9.40571591 28.0797273,11.9796818 28.0797273,14.6592273 C28.0797273,17.3372386 26.9318182,19.9112727 24.9835909,21.7211591 L24.6013977,22.0687159 L25.7839432,23.3564318 L26.1661364,23.008875 C28.4965568,20.8875 29.8189773,17.8260341 29.8189773,14.6606932 C29.8536,11.4939545 28.4979545,8.46705682 26.1661364,6.31114773 L26.1661364,6.31090909 Z" id="Fill-2"></path>
                <path d="M17.7831818,0.153136364 L17.7831818,0.118513636 C17.4702375,-0.0559363636 17.1919091,0.118513636 16.9482273,0.222385227 L6.19902273,6.65840795 L0.876409432,6.65840795 L0.772537841,6.65840795 C0.634043523,6.65840795 0.49421625,6.62378523 0.355708295,6.76227955 C0.217200341,6.90077386 0.146635568,7.005975 0.112012841,7.14447273 C0.0414347727,7.18042841 0.0414347727,7.2843 0.0414347727,7.31892273 L0.0414347727,22.0339227 C0.0414347727,22.1031716 0.0760571591,22.172417 0.110679886,22.2083727 C0.110679886,22.3828227 0.179925341,22.5905659 0.319752614,22.7650091 C0.390331023,22.7996318 0.632696932,23.007375 0.876388977,23.007375 L6.19900227,23.007375 L16.9829795,29.268853 C17.0868511,29.3380984 17.226675,29.3727245 17.4357409,29.3727245 C17.5742352,29.3727245 17.6794364,29.3381018 17.7486852,29.268853 C17.7486852,29.268853 17.783308,29.2342302 17.8179307,29.2342302 C18.130875,29.0597802 18.1654875,28.7122302 18.1654875,28.4685143 L18.1654875,0.8480625 C18.1654875,0.638989773 18.1654875,0.395301136 17.8179307,0.2221875 L17.8179307,0.152942045 L17.7831818,0.153136364 Z M1.78056818,8.39768182 L5.60659091,8.39768182 L5.60659091,21.2683636 L1.78056818,21.2683636 L1.78056818,8.39768182 Z M7.34693182,21.5465455 L7.34693182,7.80620455 L16.3915909,2.41438636 L16.3915909,26.9731364 L7.34693182,21.5465455 Z" id="Fill-3"></path>
            </g>
        </g>
    </g>
</svg>