<svg width="64" height="55" viewBox="0 0 64 55" xmlns="http://www.w3.org/2000/svg"><title>beaver</title><g fill="none"><path d="M63.955 50.134c0 2.428-11.947 4.397-26.684 4.397-14.737 0-26.683-1.969-26.683-4.397s11.946-4.397 26.683-4.397 26.684 1.969 26.684 4.397" fill="#45545E"/><path d="M29.176 49.437c5.537-.14 12.56 2.692 17.086-.441 1.023-.707.473-1.2.403-1.126-4.288 4.56-10.116.762-18.347.35-.056-.003.852 1.152.858 1.217" fill="#3E0000"/><path d="M21.288 19.805c-3.312-3.72-8.52-3.317-11.047-1.87C6.73 19.947.18 27.317 4.314 31.19c2.726 2.554 3.288 4.291 7.26 6.673 2.151 1.29 4.779 4.348 7.752 6.062 1.521.877 3.887 2.146 4.086 3.872.327 2.844 4.299 3.412 7.834 3.22.692-.038-1.2-1.46-.573-1.544 1.054-.142 4.523.747 5.187.83 3.319.416 5.784.621 7.588.613 3.829-.016 5.09-1.841 5.705-2.474 1.99-2.047.02-3.133-.605-4.222-.224-.389.343-1.098.46-1.405.973-2.523 1.597-3.414 3.13-5.668 1.203-1.77.901.583 1.938-2.354 2.576-7.294.49-2.368.834-5.924.122-1.277 4.51-2.66 1.02-8.645-1.142-1.96-3.128-6.968-5.297-9.511-2.243-2.63-1.16-.409-3.169-1.012-15.817-4.743-7.228 1.776-17.653-.958-4.851-1.272-5.359-1.596-6.298 4.897-.448 3.094-.503 1.762-2.225 6.165" fill="#F9F9F9"/><path d="M39.998 42.182c2.83.436 6.48-2.56 10.611-9.955-1.582 19.686-27.542 19.015-32.595 3.449-.63-1.942.54-9.38 2.642-13.658 5.852-11.913-.32-.614-1.665-.014-.92.41-2.266.033-2.509.584-3.608 8.194-5.378 12.71-2.602 16.462 2.557 3.455 6.931 4.79 7.473 5.18.151.108 1.263 4.816 3.485 5.731 1.554.64 3.53 1.25 4.947.912.64-.152.696-1.19 1.368-1.297 1.58-.254 3.795.171 3.969.182 1.222.084 6.294 1.761 9.549 1.085 3.95-.82 6.103-4.074 6.64-4.623.71-.725-4.653-2.042-3.897-2.885 3.634-4.05 6.977-9.397 5.406-12.32-.049-.09 4.374-2.83 4.432-6.24.06-3.525-1.477 6.673-10.953 4.548-2.96-.664-2.8 6.092-4.394 6.023-10.639-.467-2.247 5.396-1.907 6.836" fill="#DCDCDC"/><path d="M42.075 25.401c.022.723-5.705 2.649-7.152 3.766-1.39 1.074-2.3.642-2.383 3.263-.012.414 1.377 4.43 1.697 5.09 1.394 2.875 2.725 4.59 6.26 4.345 1.012-.07 2.113-.866 2.92-1.428 1.1-.766 4.413-6.9 5.651-8.608 2.34-3.225-.897-2.714-3.596-5.465-.396-.402-2.824-.963-3.397-.963" fill="#FFF"/><path d="M42.075 25.401c.022.428-4.804 3.028-6.25 3.689-1.39.636-2.712-.972-3.285.47-1 2.521 3.2 8.715 3.52 9.105-.526-1.705-1.602-4.17-.803-5.622.807-1.462 5.42-3.567 5.399-2.059-.022 1.53-.41 4.329-.889 8.28 1.013-.042 3.293-7.464 3.893-8.096.927-.977 2.847.092 3.066.917.219.824-.742 3.192-3.15 6.992.91-.742 5.029-4.67 5.627-6.74.937-3.25-2.084-4.98-3.731-5.973-.396-.237-2.824-.963-3.397-.963" fill="#EBEBEB"/><path d="M24.285 7.905c-.979.063.014-2.558 1.045-3.482C29.256.903 29.423 1.869 33.246.54c1.578-.549 6.157.413 7.612 1.15.546.277 1.644 3.233 3.153 3.917 1.896.86 3.207 3.345-.007 3.827-3.39.508-8.672 1.048-11.513-1.22-1.92-1.534-.781 1.48-3.388.342-.005-.001-4.81-.652-4.818-.651" fill="#FFF"/><path d="M32.82 8.164c-.526.034 1.694-.72 2.247-1.217 2.11-1.892 2.374-.772 4.429-1.487.848-.294 4.19.501 4.973.899.293.148.328.614 1.14.982 1.018.462 1.742 1.117.014 1.376-1.822.274-5.178 1.487-6.705.267-1.032-.824-.294.251-1.822.185-.603-.025-9.893-1.23-4.276-1.005" fill="#F9F9F9"/><path d="M14.604 18.146c-.87-1-9.25 11.978-10 12.712C3 32.426 5.37 33.232 8.126 35.52c4.834 4.012 3.934 3.627 7.403 5.247.017-.048.016-.064-.289-.365-.171-.169 1.082-3.577.762-3.888-.32-.312-.912 1.74-1.653 2.986-.665-.639-1.692-1.617-1.64-1.743 1.073-2.626 4.006-9.119 3.562-9.395-.59-.367-3.732 7.041-4.802 8.246-.38.43-1.397-.152-1.72-.505-.2-.218-.51-.54-.296-1.007 1.705-3.698 8.541-15.532 7.993-15.913-.504-.351-6.526 10.741-9.03 14.02-.87 1.137-1.976-.76-2.508-1.127.755-1.07 8.925-13.667 8.696-13.93" fill="#45545E"/><path d="M39.96 22.545c.24.292.462.519.683.742a2.976 2.976 0 0 1-.035-1.968c-.736.262-1.105.673-.648 1.226m9.873-5.577c.09 0 .176.016.256.044a1.52 1.52 0 0 0-2.57 1.102 1.521 1.521 0 1 0 3.036-.144.762.762 0 1 1-.722-1.002" fill="#3E0000"/><path d="M29.924 48.446c-.203-.15-.601-.365-.675-.308-.107.085.586 1.041.264 1.759-.323.717-4.486-.51-4.73-1.024-.262-.549.518-2.316.359-2.867-.16-.55-1.42-1.196-2.187-1.611-6.26-3.393-18.678-13.377-18.07-16.97.573-3.385 6.086-9.628 7.357-9.928 1.27-.299 6.208.52 6.324.157.129-.402-6.598-3.041-7.999-2.632C9.243 15.408.632 24.22.064 27.468c-1.342 7.665 18.876 17.524 21.546 19.09.79.461-.603 2.289-.002 3.297.79 1.321 10.297 2.275 10.485 1.434.153-.684-1.274-2.178-2.17-2.843" fill="#45545E"/><path d="M41.436 41.098c-.37.188-1.023.26-1.681.247 1.714-4.295 3.505-9.122 4.366-14.932 1.264 1.515 3.184 3.44 4.673 4.27-.866 3.017-5.664 9.552-7.358 10.415m-2.448.193c-.5-.06-.932-.165-1.153-.301-1.24-.763-3.84-5.822-4.474-9.245 2.24-.385 6.55-3.062 8.61-5.149-.443 4.724-1.733 9.887-2.983 14.695m-.311-33.469c-1.928.037-3.863.156-5.353.251 3.217-2.542 10.903-2.971 11.706-.181-1.57-.007-3.87-.117-6.353-.07m-8.479-.047c-.781-.884-2.197-2.874-3.063-2.894-.347-.008-1.155.49-2.088 1.193.423-3.032 4.636-4.737 8.566-5.07.955.752 1.765 1.61 2.837 3.962-1.826.087-3.293.258-3.791.529-.887.48-1.794 1.37-2.46 2.28m9.696-5.595c.497.435 1.412 1.638 2.017 2.754a79.84 79.84 0 0 0-3.475-.027C37.564 3.06 36.563 1.884 35.49.949c1.884.057 3.527.465 4.405 1.23m11.687 8.412c-.014-.932 1.529-1.852 1.4-3.027-.087-.794-3.424-2.335-4.178-2.022-.591.245-.946 1.3-1.447 1.874.198-.771.274-1.534.035-1.826-.2-.246-1.508-.435-3.272-.552-.646-1.467-2.096-3.06-3.069-3.94-1.006-.91-3.578-1.167-6.471-.88-.296-.223-.412-.265-1.133-.171-.672.086-.721.253-.571.396-4.237.7-8.64 2.46-9.608 4.965-.176.454-.298 1.286-.252 2.34-1.306 1.165-2.408 2.322-2.42 2.683-.028.807 1.402 1.955 1.507 2.556.105.602-2.572 4.702-4.18 10.357-1.978 6.952-.8 16.55 5.392 16.499 3.354-.028 2.525-5.136.247-5.035-.675.03-.289 4.172-1.822 3.491-2.72-1.208-3.092-8.408-1.124-13.402 3.967-10.065 5.498-10.604 5.376-11.324-.122-.72-1.678-1.967-1.715-2.454-.044-.565 2.22-2.731 2.902-2.493.598.208 1.578 2.5 2.42 2.649.746.132 14.97-2.37 18.394-.823 3.423 1.548 8.48 12.915 8.099 14.094-.382 1.179-3.563 3.216-6.436 3.08-2.006-.095-4.628-1.92-5.75-2.895.028-.016.054-.04.08-.058-.295.12-.628.194-1.01.194-.36 0-.672-.07-.954-.176-1.623 1.358-4.493 3.193-7.047 3.36-3.339.219-6.637-2.017-7.178-2.987-.612-1.097 1.655-5.289 1.336-5.55-.643-.528-6.475 5.701-5.83 7.885.49 1.656 4.137 3.332 7.086 4.042.747 2.728 4.052 9.36 5.17 10.088 1.193.777 4.694 1.067 6.166.462 1.681-.692 7.131-6.208 8.785-10.893.527-.035 1.156-.163 1.829-.36-.609 9.242-9.295 15.653-8.965 16.265.337.623 5.308-.88 5.906-.28.552.554-1.86 3.206-1.712 3.269.147.062 5.969-3.8 5.53-5.363-.257-.915-3.854-.443-4.063-.811-.2-.351 6.207-4.841 7.696-15.046 1.047-.653 1.858-1.349 2.132-1.956.843-1.865-7.277-15.983-7.28-16.225" fill="#45545E"/><path d="M36.234 16.967c.09 0 .176.016.256.045a1.522 1.522 0 1 0 .466.958.76.76 0 1 1-.722-1.003" fill="#3E0000"/><path d="M49.061 19.612c.828 0 1.503-.675 1.503-1.503 0-.828-.675-1.503-1.503-1.503-.828 0-1.503.675-1.503 1.503 0 .828.675 1.503 1.503 1.503" fill="#45545E"/><path d="M49.061 18.988a.88.88 0 0 0 0-1.758.88.88 0 0 0-.879.88.88.88 0 0 0 .88.878" fill="#000"/><path d="M49.836 18.05a.444.444 0 1 0-.001-.888.444.444 0 0 0 0 .887" fill="#FFF"/><path d="M35.47 19.618c.829 0 1.504-.676 1.504-1.503 0-.828-.675-1.504-1.503-1.504-.828 0-1.504.676-1.504 1.504 0 .827.676 1.503 1.504 1.503" fill="#45545E"/><path d="M35.471 18.993a.88.88 0 0 0 0-1.757.88.88 0 0 0-.879.879.88.88 0 0 0 .88.878" fill="#000"/><path d="M36.245 18.055a.444.444 0 0 0 0-.886.444.444 0 0 0 0 .886" fill="#FFF"/><path d="M42.035 24.69c-.117-.077.416-.777.53-1.286.152-.676-.416-.808-.818-.724-.749.157-.226 1.001-.06 1.319.135.26.041.422-.388-.022-.215-.223-.4-.431-.593-.626-.24-.242-.48-.485-.741-.801-1.6-1.94 6.916-2.128 5.994-.286-.337.673-.76 1.158-1.239 1.711-.713.825.087-.613.092-.938.008-.396-.225-.344-.382-.193-.387.367.394 1.998-1.302 2.116-.399.028-.811-.056-1.093-.27m-28.87-7.26c3.094.206 5.23.87 8.3 1.927-.99-1.14-2.496-1.744-5.26-2.923-1.18-.503-2.375.305-3.04.997m4.703 19.109c-.636 1.164-13.018-9.03-13.908-9.587-1.902-1.188.669-3.558 2.871-6.383 3.861-4.954 1.722-1.993 4.763-4.318.023.035 4.54 4.015 4.41 4.172-.182.221-5.003-3.258-5.289-2.946-.499.544-.99 1.098-.89 1.205 1.834 1.942 7.122 5.564 6.67 6.06-.62.68-5.778-3.742-7.28-4.8-1.297-.912-1.87 1.42-1.642 1.723 2.457 3.247 11.326 9.532 10.873 10.02-.418.45-8.167-5.314-11.52-7.911-1.132-.877-1.512 1.236-1.954 1.708.968.884 13.063 10.75 12.896 11.057" fill="#45545E"/></g></svg>