<svg width="180" height="120" viewBox="0 0 180 120" xmlns="http://www.w3.org/2000/svg" xmlns:xlink="http://www.w3.org/1999/xlink"><title>Vamtam-logo-presentation</title><defs><path id="a" d="M1.334 21.343l77.031-4.178v3.97l76.552-3.97V.694H.907z"/><linearGradient x1="21.143%" y1="100%" x2="83.934%" y2="-4.151%" id="c"><stop stop-color="#782ED2" offset="0%"/><stop stop-color="#F26878" offset="51.503%"/><stop stop-color="#FF9A4A" offset="100%"/></linearGradient></defs><g fill="none" fill-rule="evenodd"><g transform="translate(17 78)"><mask id="b" fill="#fff"><use xlink:href="#a"/></mask><path d="M20.363 12.091h1.956l-4.716 8.4h-1.968l-1.908-8.4h2.04l1.224 6.396 3.372-6.396zm7.756 8.4l-.384-1.632h-3.888l-.924 1.632h-1.956l5.04-8.4h1.944l2.208 8.4h-2.04zm-3.396-3.156h2.664l-.78-3.324-1.884 3.324zm16.324-5.244h2.064l-1.632 8.4H39.81l1.128-5.76-3.396 4.908h-1.188l-1.452-4.944-1.14 5.796h-1.68l1.632-8.4h2.076l1.608 5.244 3.648-5.244zm11.164 0l-.312 1.608H49.33l-1.38 6.792h-1.896l1.368-6.792h-2.556l.312-1.608h7.032zm5.644 8.4l-.384-1.632h-3.888l-.924 1.632h-1.956l5.04-8.4h1.944l2.208 8.4h-2.04zm-3.396-3.156h2.664l-.78-3.324-1.884 3.324zm16.324-5.244h2.064l-1.632 8.4h-1.668l1.128-5.76-3.396 4.908H66.09l-1.452-4.944-1.14 5.796h-1.68l1.632-8.4h2.076l1.608 5.244 3.648-5.244zm14.972 0l-.312 1.608h-2.568l-1.38 6.792h-1.896l1.368-6.792H78.41l.312-1.608h7.032zm8.092 0h1.896l-1.68 8.4h-1.896l.66-3.324h-3.804l-.66 3.324h-1.896l1.68-8.4h1.896l-.696 3.504h3.804l.696-3.504zm11.212 1.572h-4.5l-.372 1.824h4.056l-.312 1.572h-4.056l-.372 1.848h4.62l-.3 1.584h-6.528l1.68-8.4h6.396l-.312 1.572zm10.264-1.572h2.064l-1.632 8.4h-1.668l1.128-5.76-3.396 4.908h-1.188l-1.452-4.944-1.14 5.796h-1.68l1.632-8.4h2.076l1.608 5.244 3.648-5.244zm11.044 1.572h-4.5l-.372 1.824h4.056l-.312 1.572h-4.056l-.372 1.848h4.62l-.3 1.584h-6.528l1.68-8.4h6.396l-.312 1.572zm5.38-1.728c.576 0 1.136.084 1.68.252a5.05 5.05 0 0 1 1.416.672l-.888 1.572a5.8 5.8 0 0 0-1.308-.63c-.464-.156-.868-.234-1.212-.234s-.62.068-.828.204a.64.64 0 0 0-.312.564c0 .272.126.482.378.63.252.148.646.306 1.182.474.512.16.934.316 1.266.468.332.152.616.378.852.678.236.3.354.686.354 1.158 0 .6-.158 1.116-.474 1.548a2.95 2.95 0 0 1-1.284.984 4.671 4.671 0 0 1-1.806.336c-.68 0-1.336-.122-1.968-.366a4.852 4.852 0 0 1-1.608-.99l.912-1.548c.384.384.84.692 1.368.924.528.232 1.02.348 1.476.348.416 0 .742-.08.978-.24a.767.767 0 0 0 .354-.672.65.65 0 0 0-.204-.486 1.505 1.505 0 0 0-.516-.318c-.208-.08-.496-.176-.864-.288-.536-.16-.974-.318-1.314-.474a2.12 2.12 0 0 1-.852-.714c-.228-.32-.322-.736-.282-1.248.024-.52.188-.976.492-1.368.304-.392.716-.696 1.236-.912.52-.216 1.112-.324 1.776-.324z" fill="#000" mask="url(#b)"/></g><path d="M62.702 29.144c2.858 0 3.28 4.392-.047 4.392h-10.46c-2.162 0-3.061 1.574-3.473 2.469-.412.894-4.685 10.55-6.646 14.616-1.436 2.977-5.378 3.405-7.005-.126-.463-1.005-20.367-44.052-21.85-47.364-1.203-2.69 2.831-4.493 4.037-1.804.283.629 19.428 42.113 19.993 43.338.574 1.247 2.068 1.24 2.62.07.318-.673 6.01-13.151 6.716-14.61.249-.514.631-.981 1.442-.981h14.673zM126.79 49.72c1.18 2.916-2.957 4.25-4.053 1.86-1.79-3.906-17.42-37.745-17.57-38.065-.585-1.25-2.117-1.15-2.678-.01-1.024 2.08-16.844 36.464-17.237 37.344-1.042 2.33-5.03 3.448-6.726-.227L61.333 13.374c-.451-.977-2.02-1.135-2.565.05l-4.525 9.872c-1.391 2.579-5.328.636-3.958-2.035 2.349-4.578 8.273-17.937 8.474-18.371.542-1.164 2.052-1.18 2.557-.086l19.262 41.73c.516 1.117 2.044 1.553 2.768-.017.716-1.55 18.74-40.42 19.207-41.613.425-1.087 1.99-1.258 2.54-.084.871 1.857 21.355 46.055 21.697 46.9z" fill="url(#c)" fill-rule="nonzero" transform="translate(17 21)"/></g></svg>